<?xml version="1.0" encoding="UTF-8"?>
<!DOCTYPE svg PUBLIC "-//W3C//DTD SVG 1.1//EN" "http://www.w3.org/Graphics/SVG/1.1/DTD/svg11.dtd">
<!-- Creator: CorelDRAW X7 -->
<svg xmlns="http://www.w3.org/2000/svg" xml:space="preserve" width="82.8988mm" height="135.467mm" version="1.1" style="shape-rendering:geometricPrecision; text-rendering:geometricPrecision; image-rendering:optimizeQuality; fill-rule:evenodd; clip-rule:evenodd"
viewBox="0 0 857 1400"
 xmlns:xlink="http://www.w3.org/1999/xlink">
 <defs>
  <style type="text/css">
   <![CDATA[
    .fil2 {fill:#FEFEFE}
    .fil3 {fill:#EF8641}
    .fil1 {fill:#2C314B}
    .fil0 {fill:#ECF5FF}
   ]]>
  </style>
 </defs>
 <g id="Layer_x0020_1">
  <metadata id="CorelCorpID_0Corel-Layer"/>
  <path class="fil0" d="M754 1380l-651 0c-46,0 -82,-37 -82,-82l0 -1195c0,-46 36,-82 82,-82l651 0c46,0 82,36 82,82l0 1195c0,45 -36,82 -82,82l0 0z"/>
  <path class="fil0" d="M586 693c0,99 -81,180 -181,180 -99,0 -180,-81 -180,-180 0,-100 81,-181 180,-181 100,0 181,81 181,181zm0 0z"/>
  <path class="fil0" d="M405 512c-6,0 -12,0 -18,1 92,9 163,86 163,180 0,93 -71,170 -163,179 6,1 12,1 18,1 100,0 181,-81 181,-180 0,-100 -81,-181 -181,-181zm0 0z"/>
  <path class="fil0" d="M405 512c6,0 12,0 18,1 -91,9 -162,86 -162,180 0,93 71,170 162,179 -6,1 -12,1 -18,1 -99,0 -180,-81 -180,-180 0,-100 81,-181 180,-181zm0 0z"/>
  <path class="fil1" d="M405 880c-103,0 -187,-84 -187,-187 0,-103 84,-187 187,-187 104,0 187,84 187,187 0,103 -83,187 -187,187zm0 -361c-96,0 -174,78 -174,174 0,96 78,174 174,174 96,0 174,-78 174,-174 0,-96 -78,-174 -174,-174zm0 0z"/>
  <path class="fil2" d="M279 615c-1,0 -2,0 -3,-1 -3,-2 -4,-6 -2,-9 8,-13 18,-24 30,-34 3,-2 7,-2 9,1 3,3 2,7 -1,9 -10,9 -20,20 -27,31 -2,2 -4,3 -6,3zm0 0z"/>
  <path class="fil1" d="M407 598c6,0 10,4 10,10l0 4c13,2 24,6 34,12 3,2 6,6 6,11 0,7 -5,12 -12,12 -2,0 -4,-1 -6,-2 -8,-5 -16,-8 -23,-10l0 42c33,9 47,22 47,45 0,24 -18,40 -46,43l0 13c0,5 -4,9 -10,9 -5,0 -9,-4 -9,-9l0 -14c-17,-1 -32,-7 -45,-17 -4,-2 -6,-6 -6,-10 0,-7 5,-12 12,-12 3,0 5,1 7,2 11,8 21,13 33,15l0 -43c-32,-8 -47,-20 -47,-45 0,-23 19,-40 46,-42l0 -4c0,-6 4,-10 9,-10zm-8 75l0 -39c-14,1 -21,9 -21,18 0,10 4,15 21,21l0 0zm17 30l0 40c14,-2 22,-9 22,-19 0,-10 -5,-16 -22,-21zm0 0z"/>
  <path class="fil0" d="M593 873l-93 -89 40 -42 52 50 89 -91 41 41 -129 131zm0 0z"/>
  <path class="fil3" d="M593 880c-2,0 -4,-1 -5,-2l-92 -90c-3,-2 -3,-6 -1,-9l41 -41c1,-2 2,-2 4,-2 2,-1 4,0 5,1l47 46 84 -87c3,-2 7,-2 10,0l41 41c1,1 2,3 2,4 0,2 -1,4 -2,5l-130 132c-1,1 -3,2 -4,2l0 0zm-84 -97l84 81 120 -122 -32 -32 -85 87c-2,2 -6,2 -9,0l-47 -46 -31 32zm0 0z"/>
  <path class="fil1" d="M754 1400l-651 0c-57,0 -103,-46 -103,-102l0 -1195c0,-57 46,-103 103,-103l651 0c57,0 103,46 103,103l0 1195c0,56 -46,102 -103,102l0 0zm-651 -1359c-34,0 -62,28 -62,62l0 1195c0,33 28,61 62,61l651 0c34,0 62,-28 62,-61l0 -1195c0,-34 -28,-62 -62,-62l-651 0z"/>
  <path class="fil1" d="M586 131l-315 0c-16,0 -28,-12 -28,-27l0 -83 371 0 0 83c0,15 -13,27 -28,27l0 0z"/>
  <circle class="fil2" cx="540" cy="81" r="8"/>
  <rect class="fil2" x="379" y="75" width="98.0195" height="11.9543" rx="5" ry="6"/>
 </g>
</svg>
