<?xml version="1.0" encoding="UTF-8"?>
<!DOCTYPE svg PUBLIC "-//W3C//DTD SVG 1.1//EN" "http://www.w3.org/Graphics/SVG/1.1/DTD/svg11.dtd">
<!-- Creator: CorelDRAW X7 -->
<svg xmlns="http://www.w3.org/2000/svg" xml:space="preserve" width="78.0828mm" height="40.6009mm" version="1.1" style="shape-rendering:geometricPrecision; text-rendering:geometricPrecision; image-rendering:optimizeQuality; fill-rule:evenodd; clip-rule:evenodd"
viewBox="0 0 2509 1305"
 xmlns:xlink="http://www.w3.org/1999/xlink">
 <defs>
  <style type="text/css">
   <![CDATA[
    .fil0 {fill:#EF8641}
    .fil1 {fill:#00B6E8;fill-rule:nonzero}
   ]]>
  </style>
 </defs>
 <g id="Layer_x0020_1">
  <metadata id="CorelCorpID_0Corel-Layer"/>
  <g id="_1638563140640">
   <path class="fil0" d="M1553 857l1 1 0 6 0 441 -264 0 0 -441 0 -6 1 -1c4,-52 61,-94 131,-94l0 0c70,0 127,42 131,94z"/>
   <circle class="fil0" cx="1422" cy="564" r="129"/>
   <path class="fil1" d="M472 1305c-130,0 -241,-46 -333,-139 -93,-92 -139,-204 -139,-335l0 -831 183 0 0 457c83,-66 180,-99 289,-99 3,0 5,0 7,0 2,0 4,0 6,0 2,0 4,0 6,0 2,1 4,1 6,1 2,0 4,0 6,0 2,0 4,0 6,0 2,0 4,1 6,1 2,0 4,0 6,0l0 0c2,0 4,1 5,1 2,0 4,0 6,1 2,0 4,0 6,0 2,0 4,1 6,1 2,0 4,1 6,1 2,0 4,0 5,1l0 0c2,0 4,0 6,1l0 0c2,0 4,0 6,1l0 0c2,0 4,1 6,1l0 0c1,0 3,1 5,1l0 0c2,1 4,1 6,1l0 0c2,1 3,1 5,2l0 0c2,0 4,1 6,1l0 0c2,1 4,1 5,2l0 0c2,0 4,1 6,1l0 0c2,1 4,1 5,2l0 0c2,0 4,1 6,1l0 0c2,1 3,1 5,2l0 0c69,22 130,61 185,116 85,85 131,187 137,304l0 0c0,2 0,4 0,6l0 0c1,2 1,4 1,6l0 0c0,2 0,4 0,6 0,2 0,4 0,6l0 0c0,2 0,4 0,6 0,3 0,5 0,7l0 0c0,2 0,4 0,6 0,2 0,4 0,6l0 0c0,2 0,4 -1,6l0 0c0,2 0,4 0,6l0 0c-6,117 -52,219 -137,304 -58,58 -123,98 -196,119l0 0c-1,1 -3,1 -5,2l0 0c-2,0 -4,1 -6,1l0 0c-1,1 -3,1 -5,2l0 0c-2,0 -4,1 -6,1l0 0c-2,1 -3,1 -5,2l0 0c-2,0 -4,0 -6,1l0 0c-2,0 -4,1 -5,1l0 0c-2,0 -4,1 -6,1l0 0c-2,1 -4,1 -6,1l0 0c-2,1 -4,1 -6,1l0 0c-1,1 -3,1 -5,1 -2,0 -4,1 -6,1 -2,0 -4,0 -6,1 -2,0 -4,0 -6,0 -2,1 -4,1 -6,1 -1,0 -3,0 -5,1l0 0c-2,0 -4,0 -6,0 -2,0 -4,0 -6,1 -2,0 -4,0 -6,0 -2,0 -4,0 -6,0 -2,0 -4,0 -6,1 -2,0 -4,0 -6,0 -2,0 -4,0 -6,0 -2,0 -4,0 -7,0zm0 -770c-81,0 -151,29 -209,87 -58,58 -87,128 -87,209 0,82 29,152 87,210 58,57 128,86 209,86 82,0 152,-29 210,-86 58,-58 87,-128 87,-210 0,-81 -29,-151 -87,-209 -58,-58 -128,-87 -210,-87z"/>
   <path class="fil1" d="M472 532c166,0 300,134 300,299 0,166 -134,300 -300,300 -165,0 -299,-134 -299,-300 0,-165 134,-299 299,-299zm0 3c-81,0 -151,29 -209,87 -58,58 -87,128 -87,209 0,82 29,152 87,210 58,57 128,86 209,86 82,0 152,-29 210,-86 58,-58 87,-128 87,-210 0,-81 -29,-151 -87,-209 -58,-58 -128,-87 -210,-87z"/>
   <polygon class="fil1" points="1204,0 1204,1305 1031,1305 1031,0 "/>
   <path class="fil0" d="M1903 857l0 1 0 6 0 441 -263 0 0 -441 0 -6 0 -1c5,-52 62,-94 132,-94l0 0c69,0 126,42 131,94z"/>
   <circle class="fil0" cx="1772" cy="564" r="129"/>
   <rect class="fil0" x="1643" y="564" width="257.104" height="96.414" rx="6" ry="4"/>
   <path class="fil1" d="M2138 1048c5,26 13,44 24,54 20,20 44,30 73,30 28,0 52,-10 72,-30 20,-20 31,-44 31,-74 0,-28 -10,-52 -30,-72 -14,-14 -44,-35 -89,-64 -62,-34 -106,-63 -132,-89 -46,-46 -68,-100 -68,-164 0,-64 22,-119 68,-165 45,-46 100,-68 164,-68 65,0 118,21 161,64 30,31 49,65 58,102l-167 49c-4,-14 -8,-23 -12,-28 -10,-10 -23,-15 -40,-15 -16,0 -31,6 -43,18 -11,12 -17,26 -17,43 0,16 6,31 17,42 11,10 34,27 72,51 68,38 118,72 149,103 54,54 80,119 80,193 0,77 -26,142 -80,196 -53,54 -118,81 -194,81 -76,0 -141,-27 -195,-82 -37,-37 -61,-83 -73,-138l171 -37z"/>
  </g>
  <path class="fil1" d="M472 1305c-130,0 -241,-46 -333,-139 -93,-92 -139,-204 -139,-335l0 -831 183 0 0 457c83,-66 180,-99 289,-99 3,0 5,0 7,0 2,0 4,0 6,0 2,0 4,0 6,0 2,1 4,1 6,1 2,0 4,0 6,0 2,0 4,0 6,0 2,0 4,1 6,1 2,0 4,0 6,0l0 0c2,0 4,1 5,1 2,0 4,0 6,1 2,0 4,0 6,0 2,0 4,1 6,1 2,0 4,1 6,1 2,0 4,0 5,1l0 0c2,0 4,0 6,1l0 0c2,0 4,0 6,1l0 0c2,0 4,1 6,1l0 0c1,0 3,1 5,1l0 0c2,1 4,1 6,1l0 0c2,1 3,1 5,2l0 0c2,0 4,1 6,1l0 0c2,1 4,1 5,2l0 0c2,0 4,1 6,1l0 0c2,1 4,1 5,2l0 0c2,0 4,1 6,1l0 0c2,1 3,1 5,2l0 0c69,22 130,61 185,116 85,85 131,187 137,304l0 0c0,2 0,4 0,6l0 0c1,2 1,4 1,6l0 0c0,2 0,4 0,6 0,2 0,4 0,6l0 0c0,2 0,4 0,6 0,3 0,5 0,7l0 0c0,2 0,4 0,6 0,2 0,4 0,6l0 0c0,2 0,4 -1,6l0 0c0,2 0,4 0,6l0 0c-6,117 -52,219 -137,304 -58,58 -123,98 -196,119l0 0c-1,1 -3,1 -5,2l0 0c-2,0 -4,1 -6,1l0 0c-1,1 -3,1 -5,2l0 0c-2,0 -4,1 -6,1l0 0c-2,1 -3,1 -5,2l0 0c-2,0 -4,0 -6,1l0 0c-2,0 -4,1 -5,1l0 0c-2,0 -4,1 -6,1l0 0c-2,1 -4,1 -6,1l0 0c-2,1 -4,1 -6,1l0 0c-1,1 -3,1 -5,1 -2,0 -4,1 -6,1 -2,0 -4,0 -6,1 -2,0 -4,0 -6,0 -2,1 -4,1 -6,1 -1,0 -3,0 -5,1l0 0c-2,0 -4,0 -6,0 -2,0 -4,0 -6,1 -2,0 -4,0 -6,0 -2,0 -4,0 -6,0 -2,0 -4,0 -6,1 -2,0 -4,0 -6,0 -2,0 -4,0 -6,0 -2,0 -4,0 -7,0zm0 -770c-81,0 -151,29 -209,87 -58,58 -87,128 -87,209 0,82 29,152 87,210 58,57 128,86 209,86 82,0 152,-29 210,-86 58,-58 87,-128 87,-210 0,-81 -29,-151 -87,-209 -58,-58 -128,-87 -210,-87z"/>
  <path class="fil1" d="M472 532c166,0 300,134 300,299 0,166 -134,300 -300,300 -165,0 -299,-134 -299,-300 0,-165 134,-299 299,-299zm0 3c-81,0 -151,29 -209,87 -58,58 -87,128 -87,209 0,82 29,152 87,210 58,57 128,86 209,86 82,0 152,-29 210,-86 58,-58 87,-128 87,-210 0,-81 -29,-151 -87,-209 -58,-58 -128,-87 -210,-87z"/>
  <polygon class="fil1" points="1204,0 1204,1305 1031,1305 1031,0 "/>
  <path class="fil1" d="M2138 1048c5,26 13,44 24,54 20,20 44,30 73,30 28,0 52,-10 72,-30 20,-20 31,-44 31,-74 0,-28 -10,-52 -30,-72 -14,-14 -44,-35 -89,-64 -62,-34 -106,-63 -132,-89 -46,-46 -68,-100 -68,-164 0,-64 22,-119 68,-165 45,-46 100,-68 164,-68 65,0 118,21 161,64 30,31 49,65 58,102l-167 49c-4,-14 -8,-23 -12,-28 -10,-10 -23,-15 -40,-15 -16,0 -31,6 -43,18 -11,12 -17,26 -17,43 0,16 6,31 17,42 11,10 34,27 72,51 68,38 118,72 149,103 54,54 80,119 80,193 0,77 -26,142 -80,196 -53,54 -118,81 -194,81 -76,0 -141,-27 -195,-82 -37,-37 -61,-83 -73,-138l171 -37z"/>
 </g>
</svg>
