<?xml version="1.0" encoding="UTF-8"?>
<!DOCTYPE svg PUBLIC "-//W3C//DTD SVG 1.1//EN" "http://www.w3.org/Graphics/SVG/1.1/DTD/svg11.dtd">
<!-- Creator: CorelDRAW X7 -->
<svg xmlns="http://www.w3.org/2000/svg" xml:space="preserve" width="82.8987mm" height="135.467mm" version="1.1" style="shape-rendering:geometricPrecision; text-rendering:geometricPrecision; image-rendering:optimizeQuality; fill-rule:evenodd; clip-rule:evenodd"
viewBox="0 0 2090 3415"
 xmlns:xlink="http://www.w3.org/1999/xlink">
 <defs>
  <style type="text/css">
   <![CDATA[
    .fil8 {fill:#FEFEFE}
    .fil7 {fill:#EF8641}
    .fil0 {fill:#E9F0F9}
    .fil4 {fill:#6FAEDF}
    .fil1 {fill:#2C314B}
    .fil3 {fill:#9BC6FD}
    .fil2 {fill:#BCD7FD}
    .fil6 {fill:#ECAD9A}
    .fil5 {fill:#F2CCBC}
    .fil9 {fill:#FEFEFE;fill-rule:nonzero}
   ]]>
  </style>
 </defs>
 <g id="Layer_x0020_1">
  <metadata id="CorelCorpID_0Corel-Layer"/>
  <path class="fil0" d="M1840 3365l-1590 0c-110,0 -200,-89 -200,-200l0 -2915c0,-110 90,-200 200,-200l1590 0c110,0 200,90 200,200l0 2915c0,111 -90,200 -200,200l0 0z"/>
  <path class="fil1" d="M1840 3415l-1590 0c-138,0 -250,-112 -250,-250l0 -2915c0,-138 112,-250 250,-250l1590 0c138,0 250,112 250,250l0 2915c0,138 -112,250 -250,250l0 0zm-1590 -3315c-83,0 -150,67 -150,150l0 2915c0,83 67,150 150,150l1590 0c83,0 150,-67 150,-150l0 -2915c0,-83 -67,-150 -150,-150l-1590 0z"/>
  <path class="fil1" d="M1430 320l-770 0c-37,0 -67,-30 -67,-66l0 -204 904 0 0 204c0,36 -30,66 -67,66l0 0z"/>
  <circle class="fil1" cx="1045" cy="1843" r="412"/>
  <path class="fil2" d="M743 1135c0,106 -56,198 -139,251 -45,28 -100,22 -157,22 -58,0 -113,6 -158,-22 -83,-53 -139,-145 -139,-251 0,-163 133,-296 297,-296 163,0 296,133 296,296l0 0z"/>
  <path class="fil3" d="M447 839c-20,0 -39,2 -58,6 137,26 239,146 239,290 0,144 -102,264 -239,291 19,3 43,-6 63,-6 58,0 107,-6 152,-34 83,-53 139,-145 139,-251 0,-163 -133,-296 -296,-296z"/>
  <path class="fil4" d="M457 1154l-21 0c-81,0 -147,66 -147,147l0 85c45,28 100,45 158,45 57,0 112,-17 157,-45l0 -85c0,-81 -66,-147 -147,-147l0 0z"/>
  <path class="fil4" d="M457 1154l-21 0c-16,0 -32,3 -47,7 59,20 101,75 101,140l0 1c0,60 -41,112 -99,123 -1,0 -1,0 -2,1 19,3 38,5 58,5 57,0 112,-17 157,-45l0 -85c0,-81 -66,-147 -147,-147l0 0z"/>
  <circle class="fil5" cx="447" cy="1054" r="100"/>
  <path class="fil6" d="M447 953c-19,0 -36,5 -51,14 30,17 51,49 51,87 0,37 -21,69 -51,87 15,8 32,13 51,13 55,0 100,-45 100,-100 0,-56 -45,-101 -100,-101l0 0z"/>
  <path class="fil2" d="M1937 2551c0,105 -55,198 -138,250 -46,29 -100,12 -158,12 -58,0 -112,17 -158,-12 -83,-52 -138,-145 -138,-250 0,-164 133,-296 296,-296 164,0 296,132 296,296z"/>
  <path class="fil3" d="M1641 2255c-19,0 -39,1 -57,5 136,27 239,147 239,291 0,144 -103,263 -239,290 18,4 38,-2 57,-2 58,0 112,-9 158,-38 83,-52 138,-145 138,-250 0,-164 -132,-296 -296,-296l0 0z"/>
  <path class="fil7" d="M1652 2569l-22 0c-81,0 -147,66 -147,147l0 85c46,29 100,46 158,46 58,0 112,-17 158,-46l0 -85c0,-81 -66,-147 -147,-147l0 0z"/>
  <path class="fil7" d="M1652 2569l-22 0c-16,0 -31,3 -46,8 58,19 101,74 101,139l0 2c0,59 -42,111 -100,123 0,0 -1,0 -1,0 18,4 38,6 57,6 58,0 112,-17 158,-46l0 -85c0,-81 -66,-147 -147,-147l0 0z"/>
  <circle class="fil5" cx="1641" cy="2469" r="100"/>
  <path class="fil6" d="M1641 2369c-18,0 -35,5 -50,13 30,17 50,50 50,87 0,37 -20,70 -50,87 15,9 32,13 50,13 56,0 100,-44 100,-100 0,-55 -44,-100 -100,-100l0 0z"/>
  <circle class="fil8" cx="1317" cy="197" r="20"/>
  <rect class="fil8" x="925" y="182" width="239.116" height="29.1622" rx="13" ry="15"/>
  <path class="fil9" d="M865 1849l0 43c0,1 0,2 1,2l15 0c1,0 1,-1 1,-2l0 -51c0,-3 -1,-6 -2,-8 -1,-3 -3,-5 -5,-7 -2,-2 -5,-4 -8,-5 -2,-1 -5,-1 -8,-1l-25 0 0 -27c0,-1 0,-1 -1,-1l-15 0c-1,0 -1,0 -1,1l0 85 0 0 0 14c0,1 0,2 1,2l15 0c1,0 1,-1 1,-2l0 -49c0,-1 1,-2 1,-3 1,-1 2,-1 4,-2 1,0 2,-1 4,-1 2,0 3,0 5,0 4,0 9,1 12,3 3,2 5,5 5,9zm51 -11c0,0 1,-1 2,-1l12 0c1,0 1,0 1,-1l0 -15c0,-1 0,-1 -1,-1l-12 0c-1,0 -2,-1 -2,-2l0 -18c0,0 0,-1 -1,-1l-14 0c-1,0 -2,1 -2,1l0 18c0,1 0,2 -1,2l-8 0c-1,0 -1,0 -1,1l0 15c0,1 0,1 1,1l8 0c1,0 1,1 1,1l0 45c0,3 1,5 4,8 2,2 5,3 9,3l18 0c1,0 1,-1 1,-2l0 -14c0,-1 0,-1 -1,-2l-12 0c-1,0 -2,0 -2,-1l0 -37zm49 0c0,0 0,-1 1,-1l12 0c1,0 1,0 1,-1l0 -15c0,-1 0,-1 -1,-1l-12 0c-1,0 -1,-1 -1,-2l0 -18c0,0 -1,-1 -2,-1l-14 0c-1,0 -2,1 -2,1l0 18c0,1 0,2 -1,2l-8 0c-1,0 -1,0 -1,1l0 15c0,1 0,1 1,1l8 0c1,0 1,1 1,1l0 45c0,3 2,5 4,8 2,2 5,3 9,3l18 0c1,0 1,-1 1,-2l0 -14c0,-1 0,-1 -1,-2l-12 0c-1,0 -1,0 -1,-1l0 -37zm41 57c0,-1 1,-1 2,-1l15 0c4,0 9,-1 13,-2 3,-2 7,-4 10,-7 2,-4 5,-8 6,-12 2,-5 3,-11 3,-18 0,-4 -1,-9 -2,-13 -1,-4 -2,-8 -5,-11 -2,-4 -5,-6 -9,-8 -3,-2 -8,-3 -14,-3l-35 0c-1,0 -1,0 -1,1l0 98c0,1 0,2 1,2l15 0c1,0 1,-1 1,-2l0 -24zm0 -57c0,0 1,-1 2,-1l18 0c2,0 3,0 5,1 1,1 2,2 3,4 1,1 2,3 3,4 1,2 1,4 1,5l0 11c0,2 0,3 -1,5 -1,2 -2,3 -3,5 -1,1 -2,2 -3,3 -2,1 -3,1 -5,1l-18 0c-1,0 -2,0 -2,-1l0 -37zm56 40l0 14c0,1 0,2 1,2l47 0c3,0 6,-1 8,-3 2,-1 3,-3 4,-5 2,-3 2,-5 3,-7 0,-3 0,-4 0,-6 0,-5 0,-9 -1,-12 -1,-3 -2,-6 -4,-8 -1,-2 -3,-3 -6,-4 -3,-1 -6,-1 -10,-1l-20 0c-2,0 -3,-1 -3,-2 -1,-1 -2,-2 -2,-4 0,-1 1,-2 1,-3 1,-1 2,-2 4,-2l37 0c1,0 1,0 1,-1l0 -15c0,-1 0,-1 -1,-1l-31 0c-5,0 -9,0 -12,1 -4,0 -7,1 -9,3 -2,1 -4,4 -5,7 -1,3 -1,6 -1,11 0,3 0,6 1,9 0,3 1,5 3,7 1,2 3,3 5,5 3,1 6,1 9,1l22 0c2,0 4,1 4,2 1,1 1,3 1,4 0,0 0,1 0,2 0,1 0,2 -1,2 0,1 -1,1 -2,2 0,0 -1,0 -3,0l-39 0c-1,0 -1,1 -1,2zm74 14c0,1 0,2 1,2l16 0c1,0 2,-1 2,-2l0 -16c0,-1 -1,-1 -2,-1l-16 0c-1,0 -1,0 -1,1l0 16zm0 -63c0,1 0,1 1,1l16 0c1,0 2,0 2,-1l0 -17c0,-1 -1,-1 -2,-1l-16 0c-1,0 -1,0 -1,1l0 17zm26 63c0,1 0,1 0,1 0,1 0,1 1,1l16 0c1,0 1,0 2,-1 0,0 0,0 0,-1l55 -99c0,0 0,0 0,0 0,-1 -1,-1 -1,-1l-16 0c-1,0 -2,0 -2,0 0,0 -1,1 -1,1l-54 99zm76 0c-1,1 -1,1 -1,1 0,1 1,1 2,1l15 0c1,0 2,0 2,-1 0,0 1,0 1,-1l54 -99c0,0 0,0 0,0 0,-1 0,-1 -1,-1l-16 0c-1,0 -1,0 -1,0 -1,0 -1,1 -1,1l-54 99z"/>
 </g>
</svg>
