<?xml version="1.0" encoding="UTF-8"?>
<!DOCTYPE svg PUBLIC "-//W3C//DTD SVG 1.1//EN" "http://www.w3.org/Graphics/SVG/1.1/DTD/svg11.dtd">
<!-- Creator: CorelDRAW X7 -->
<svg xmlns="http://www.w3.org/2000/svg" xml:space="preserve" width="89.9659mm" height="58.3672mm" version="1.1" style="shape-rendering:geometricPrecision; text-rendering:geometricPrecision; image-rendering:optimizeQuality; fill-rule:evenodd; clip-rule:evenodd"
viewBox="0 0 848 550"
 xmlns:xlink="http://www.w3.org/1999/xlink">
 <defs>
  <style type="text/css">
   <![CDATA[
    .fil8 {fill:#FEFEFE}
    .fil11 {fill:#FEFEFD}
    .fil13 {fill:#F8CECF}
    .fil3 {fill:#F2A49E}
    .fil2 {fill:#EF8641}
    .fil0 {fill:#E9F0F9}
    .fil12 {fill:#3A8AC7}
    .fil1 {fill:#282427}
    .fil4 {fill:#2C314B}
    .fil6 {fill:#122544}
    .fil9 {fill:#233862}
    .fil10 {fill:#2B478B}
    .fil5 {fill:#D2E3FC}
    .fil7 {fill:#F99746}
   ]]>
  </style>
 </defs>
 <g id="Layer_x0020_1">
  <metadata id="CorelCorpID_0Corel-Layer"/>
  <path class="fil0" d="M717 511c0,0 106,-60 80,-173 -24,-105 -120,-56 -199,-141 -79,-84 -93,-250 -316,-170 -223,80 -299,271 -210,484l645 0z"/>
  <path class="fil1" d="M311 167c0,0 -37,19 -10,59 0,0 -32,4 -40,-5 0,0 1,4 3,5 0,0 -31,-4 -42,-15 -11,-12 23,-166 105,-134 0,0 72,6 52,88 -21,81 6,86 6,86 0,0 -8,2 -12,2 0,0 -5,-3 -5,-6 0,0 0,5 1,6 0,0 -29,-2 -42,-15 -13,-14 -24,-55 -16,-71z"/>
  <path class="fil2" d="M363 207l-3 1c-13,1 -25,-8 -27,-21l-2 -15c-2,-13 7,-26 20,-27l3 -1c13,-2 25,8 27,21l2 15c2,13 -7,25 -20,27z"/>
  <path class="fil3" d="M371 330c-11,9 -18,39 -35,44 -66,19 -102,-59 -114,-98 9,-5 18,-7 23,-8 5,-1 10,-1 14,-2 7,-6 17,-30 18,-67l3 1 53 12c0,0 -1,17 -2,32 0,13 0,16 1,17 4,1 9,12 9,12l0 0c1,1 17,25 30,57z"/>
  <path class="fil3" d="M333 212c0,0 -1,17 -2,32 -30,-1 -45,-29 -51,-44l53 12z"/>
  <path class="fil4" d="M606 489c0,0 -32,1 -66,2 -4,0 -8,0 -12,0 -28,-1 -55,-2 -67,-5 -11,-2 -55,-32 -90,-68l0 0c-3,6 -5,11 -5,12 -1,8 -3,16 -5,24 -8,29 -21,54 -21,55l-19 0 -147 0c0,0 28,-43 21,-152 -1,-3 25,-91 25,-91 0,0 20,-3 43,-5 2,2 7,60 36,63 4,1 34,47 34,47l10 -47 -11 -63c14,4 21,6 33,11 7,3 14,8 18,16 20,37 86,155 92,158 6,3 30,7 55,12l0 0c33,6 69,12 69,12l7 19z"/>
  <polygon class="fil5" points="350,509 339,509 340,509 "/>
  <path class="fil3" d="M342 228c0,0 -71,-2 -69,-46 1,-44 -7,-74 39,-75 45,-1 53,16 56,31 4,15 -7,89 -26,90z"/>
  <path class="fil1" d="M328 169c0,0 -2,-2 -6,-2 -2,0 -5,0 -7,2 -1,0 -1,1 -1,2 1,1 2,1 2,0 2,-1 4,-1 6,-1 1,0 3,0 3,0 1,1 1,1 1,1l1 0 0 0 0 0 0 0 0 0 0 0 0 0c0,1 1,0 2,0 0,-1 0,-2 -1,-2z"/>
  <path class="fil1" d="M362 168c0,0 -2,-2 -6,-2 -2,0 -4,1 -6,2 -1,1 -1,1 -1,2 1,1 1,1 2,1 2,-2 4,-2 5,-2 1,0 2,0 3,1l1 0 0 0 0 0c0,1 1,1 2,0 0,0 0,-1 0,-2z"/>
  <path class="fil4" d="M540 491c-4,0 -8,0 -12,0 -28,-1 -55,-2 -67,-5 -11,-2 -55,-32 -90,-68l0 0c0,0 7,-28 10,-33 4,-5 16,41 45,60 30,19 76,32 98,26 15,-3 17,10 16,20z"/>
  <path class="fil6" d="M332 221c-40,-13 -50,-51 -50,-51l4 -2 -2 1 2 -1c0,1 10,37 48,49 0,0 0,0 0,0l-1 4c0,0 -1,0 -1,0z"/>
  <path class="fil2" d="M337 224l-4 -1c-2,-1 -3,-3 -2,-5 0,-2 2,-3 4,-2l4 1c2,1 3,3 2,5 0,2 -2,3 -4,2z"/>
  <path class="fil1" d="M319 153c0,0 9,-1 9,3 0,0 0,2 -8,3 -8,1 -10,0 -11,-2 -1,-3 5,-4 10,-4z"/>
  <path class="fil1" d="M346 101c0,0 -18,54 -45,63 -28,9 -37,-2 -37,-2 0,0 21,-18 23,-48 0,0 44,-35 59,-13z"/>
  <path class="fil1" d="M312 117c0,0 37,-2 49,8 8,8 7,12 8,22 0,0 16,-25 -1,-43 -17,-18 -56,13 -56,13z"/>
  <path class="fil1" d="M222 211c11,11 42,15 42,15 -2,-1 -3,-5 -3,-5 16,12 54,3 54,3 -30,-7 -20,-51 -10,-53 6,-34 18,-75 24,-94 -2,0 -2,0 -2,0 -82,-32 -116,122 -105,134z"/>
  <path class="fil2" d="M289 203l-3 0c-13,2 -25,-7 -27,-20l-2 -16c-2,-13 7,-25 20,-27l3 0c13,-2 26,7 27,20l2 16c2,13 -7,25 -20,27z"/>
  <path class="fil2" d="M270 147c-2,-4 4,-29 13,-49 4,-9 15,-22 23,-25 3,-2 7,-1 10,0 2,0 8,3 8,3 -25,8 -48,62 -46,68 0,-1 0,-1 0,-1l-8 4z"/>
  <path class="fil7" d="M283 187l-1 1c-7,0 -13,-4 -14,-11l-1 -7c-1,-7 4,-13 10,-14l2 0c6,-1 12,4 13,10l1 8c1,6 -3,12 -10,13z"/>
  <path class="fil3" d="M456 464c0,0 30,-2 33,-1 5,3 22,14 24,17 3,3 9,15 9,15 0,0 -3,1 -4,0 -1,-1 -11,-12 -11,-12l10 16c0,0 -3,-1 -5,-2 -1,-2 -11,-11 -11,-11l-3 -1c0,0 3,3 5,5 2,2 3,5 3,5 0,0 -3,-1 -4,-1 -1,0 -9,-8 -9,-8l4 6c0,0 -3,0 -4,-1 -1,0 -7,-6 -9,-6 -1,0 -9,-1 -13,-3 -4,-2 -15,-6 -15,-6l0 -12z"/>
  <path class="fil8" d="M267 252c0,0 -20,6 -25,11 0,0 22,55 52,80l9 -6 0 13 30 21c0,0 -67,-102 -66,-119z"/>
  <path class="fil4" d="M361 454c-8,29 -21,54 -21,55l10 0 -11 0 -97 0 12 0c-1,-1 16,-46 -12,-65 -28,-19 -38,-64 -38,-64l89 -22c0,0 36,53 46,63 8,8 27,9 27,9l-5 24z"/>
  <path class="fil8" d="M332 261c0,0 9,75 1,110 0,0 13,-24 15,-28l-2 -12 8 2c0,0 -7,-59 -14,-69 -6,-11 -9,-12 -9,-12l1 9z"/>
  <path class="fil3" d="M606 489c0,0 -40,2 -78,2 -10,-15 2,-33 2,-33l0 0c33,6 69,12 69,12l7 19z"/>
  <path class="fil9" d="M609 509l-145 0c0,-6 5,-12 11,-12l134 0 0 12z"/>
  <polygon class="fil9" points="834,350 780,509 554,509 609,350 "/>
  <polygon class="fil10" points="834,350 781,508 780,509 557,509 612,350 "/>
  <path class="fil7" d="M716 428c-1,6 -7,11 -13,11 -7,0 -10,-5 -9,-11 2,-6 8,-11 14,-11 6,0 9,5 8,11z"/>
  <polygon class="fil9" points="834,350 781,508 678,508 803,350 "/>
  <path class="fil3" d="M456 476c0,0 -75,7 -117,5l0 -41c28,7 117,24 117,24l0 12z"/>
  <path class="fil4" d="M242 263c0,0 -43,1 -56,15 -13,15 13,96 13,96 0,0 80,97 120,104 0,0 18,3 26,3 0,0 -8,-23 7,-38 0,0 -17,-5 -18,-7 -1,-2 -92,-173 -92,-173z"/>
  <path class="fil2" d="M36 514l810 0c1,0 2,-1 2,-3 0,-1 -1,-2 -2,-2l-810 0c-1,0 -2,1 -2,2 0,2 1,3 2,3z"/>
  <path class="fil2" d="M342 550l5 0 50 0c0,0 1,-1 1,-2 0,-1 -1,-1 -1,-1l-50 0 -5 0 -38 0 -12 0 -43 0c-1,0 -1,0 -1,1 0,1 0,2 1,2l43 0 12 0 38 0z"/>
  <path class="fil2" d="M736 550l6 0 63 0c1,0 2,-1 2,-2 0,-1 -1,-1 -2,-1l-63 0 -6 0 -48 0 -14 0 -54 0c-1,0 -2,0 -2,1 0,1 1,2 2,2l54 0 14 0 48 0z"/>
  <path class="fil1" d="M340 178l1 9 -4 0c-1,0 -1,1 -1,1 0,1 1,1 1,1l6 0c0,0 0,0 0,0 1,-1 1,-1 1,-1l-2 -10c0,-1 -1,-1 -1,-1 -1,0 -1,1 -1,1z"/>
  <path class="fil1" d="M357 153c0,0 -8,-1 -9,3 0,0 0,2 7,2 6,1 8,0 9,-2 1,-2 -4,-3 -7,-3z"/>
  <path class="fil11" d="M344 202l-26 -3c0,0 0,9 14,11 12,1 12,-8 12,-8z"/>
  <path class="fil0" d="M555 72c0,0 20,-41 62,1 11,10 38,67 48,78 10,11 73,39 65,50 -4,4 2,30 -48,11 -29,-10 -65,-53 -79,-68 -39,-42 -48,-72 -48,-72z"/>
  <path class="fil12" d="M19 469l-13 0c-3,0 -6,-3 -6,-6l0 -12c0,-4 3,-6 6,-6l13 0c4,0 6,2 6,6l0 12c0,3 -2,6 -6,6z"/>
  <path class="fil13" d="M45 135l-1 0c0,4 -2,8 -5,11 -3,3 -7,5 -11,5 -5,0 -9,-2 -12,-5 -3,-3 -5,-7 -5,-11 0,-5 2,-9 5,-12 3,-3 7,-5 12,-5 4,0 8,2 11,5 3,3 5,7 5,12l1 0 2 0c0,-11 -9,-20 -19,-20 -11,0 -20,9 -20,20 0,11 9,20 20,20 10,0 19,-9 19,-20l-2 0z"/>
  <polygon class="fil2" points="137,19 222,19 222,16 137,16 "/>
  <path class="fil12" d="M510 17l-9 0c-2,0 -4,-2 -4,-4l0 -9c0,-2 2,-4 4,-4l9 0c2,0 4,2 4,4l0 9c0,2 -2,4 -4,4z"/>
 </g>
</svg>
