<?xml version="1.0" encoding="UTF-8"?>
<!DOCTYPE svg PUBLIC "-//W3C//DTD SVG 1.1//EN" "http://www.w3.org/Graphics/SVG/1.1/DTD/svg11.dtd">
<!-- Creator: CorelDRAW X7 -->
<svg xmlns="http://www.w3.org/2000/svg" xml:space="preserve" width="36.1598mm" height="36.1598mm" version="1.1" style="shape-rendering:geometricPrecision; text-rendering:geometricPrecision; image-rendering:optimizeQuality; fill-rule:evenodd; clip-rule:evenodd"
viewBox="0 0 270 270"
 xmlns:xlink="http://www.w3.org/1999/xlink">
 <defs>
  <style type="text/css">
   <![CDATA[
    .fil1 {fill:none}
    .fil0 {fill:#EF8641}
   ]]>
  </style>
 </defs>
 <g id="Layer_x0020_1">
  <metadata id="CorelCorpID_0Corel-Layer"/>
  <path class="fil0" d="M126 123l0 0 0 2 0 102 -61 0 0 -102 0 -2 0 0c1,-12 14,-22 30,-22l0 0c17,0 30,10 31,22z"/>
  <circle class="fil0" cx="95" cy="55" r="30"/>
  <path class="fil0" d="M207 123l0 0 0 2 0 102 -61 0 0 -102 0 -2 0 0c1,-12 14,-22 31,-22l0 0c16,0 29,10 30,22z"/>
  <circle class="fil0" cx="177" cy="55" r="30"/>
  <rect class="fil0" x="147" y="55" width="59.7701" height="22.4138" rx="1" ry="1"/>
  <rect class="fil1" width="270" height="270"/>
 </g>
</svg>
