<?xml version="1.0" encoding="UTF-8"?>
<!DOCTYPE svg PUBLIC "-//W3C//DTD SVG 1.1//EN" "http://www.w3.org/Graphics/SVG/1.1/DTD/svg11.dtd">
<!-- Creator: CorelDRAW X7 -->
<svg xmlns="http://www.w3.org/2000/svg" xml:space="preserve" width="139.735mm" height="94.0075mm" version="1.1" style="shape-rendering:geometricPrecision; text-rendering:geometricPrecision; image-rendering:optimizeQuality; fill-rule:evenodd; clip-rule:evenodd"
viewBox="0 0 3417 2299"
 xmlns:xlink="http://www.w3.org/1999/xlink">
 <defs>
  <style type="text/css">
   <![CDATA[
    .fil14 {fill:#FEFEFD}
    .fil3 {fill:#FBE1DB}
    .fil6 {fill:#F2A49E}
    .fil4 {fill:#EF8641}
    .fil9 {fill:#FAE7DD}
    .fil7 {fill:#EDA89E}
    .fil0 {fill:#E9F0F9}
    .fil13 {fill:#E1938C}
    .fil11 {fill:#E1EDF8}
    .fil18 {fill:#DAE5F2}
    .fil15 {fill:#D29995}
    .fil2 {fill:#BACCE9}
    .fil10 {fill:#6FAEDF}
    .fil12 {fill:#5295D0}
    .fil1 {fill:#3A8AC7}
    .fil8 {fill:#515054}
    .fil5 {fill:#282427}
    .fil17 {fill:#272326}
    .fil16 {fill:#2C314B}
   ]]>
  </style>
 </defs>
 <g id="Layer_x0020_1">
  <metadata id="CorelCorpID_0Corel-Layer"/>
  <g id="_1674908847856">
   <path class="fil0" d="M1843 628c0,0 -1227,-242 -1362,226 -134,469 276,1200 1133,1202 912,2 1601,-388 1568,-746 -43,-457 -1339,-682 -1339,-682z"/>
   <path class="fil0" d="M269 1520c0,0 104,395 225,321 121,-75 -28,-188 -138,-446 -66,-155 -63,-265 -86,-244 -24,21 -59,125 -1,369z"/>
   <path class="fil0" d="M3168 1782c0,0 130,-70 101,-138 -30,-67 -108,30 -154,76 -48,49 -105,81 -97,94 7,13 70,11 150,-32z"/>
   <path class="fil1" d="M153 983l-4 0c0,12 -5,23 -13,30 -7,8 -18,13 -29,13 -12,0 -22,-5 -30,-13 -7,-7 -12,-18 -12,-30 0,-11 5,-22 12,-30 8,-7 18,-12 30,-12 11,0 22,5 29,12 8,8 13,19 13,30l4 0 4 0c0,-28 -22,-51 -50,-51 -28,0 -51,23 -51,51 0,29 23,52 51,52 28,0 50,-23 50,-52l-4 0z"/>
   <polygon class="fil2" points="3017,707 3239,707 3239,698 3017,698 "/>
   <polygon class="fil1" points="1310,127 1532,127 1532,118 1310,118 "/>
   <polygon class="fil2" points="460,1976 614,1976 614,1967 460,1967 "/>
   <path class="fil3" d="M417 300l-292 0c-8,0 -14,-6 -14,-13 0,-8 6,-14 14,-14l292 0c7,0 13,6 13,14 0,7 -6,13 -13,13z"/>
   <path class="fil4" d="M2041 66l-34 0c-9,0 -16,-8 -16,-16l0 -32c0,-9 7,-16 16,-16l34 0c9,0 16,7 16,16l0 32c0,8 -7,16 -16,16z"/>
   <path class="fil4" d="M50 1888l-34 0c-9,0 -16,-7 -16,-16l0 -32c0,-9 7,-16 16,-16l34 0c9,0 16,7 16,16l0 32c0,9 -7,16 -16,16z"/>
   <path class="fil4" d="M2929 399l-45 0c-12,0 -22,-10 -22,-22l0 -43c0,-12 10,-21 22,-21l45 0c12,0 22,9 22,21l0 43c0,12 -10,22 -22,22z"/>
   <path class="fil5" d="M2335 705c0,0 -8,58 -39,68 -54,18 -50,43 -44,93 6,51 -33,30 -76,58 -44,28 -41,113 11,152l505 13c0,0 79,-63 46,-137 -33,-74 -75,-16 -86,-85 -10,-69 -43,-37 -77,-99l-240 -63z"/>
   <path class="fil6" d="M2574 1096c-6,-37 17,-72 53,-81 39,-9 79,15 87,55 6,28 9,77 12,130l-148 40 -4 -144z"/>
   <path class="fil6" d="M2578 1240l148 -40 14 202c3,37 -25,51 -62,55l-2 0c-41,6 -79,-5 -85,-46l-13 -171z"/>
   <path class="fil6" d="M3072 1342l-492 28c0,0 13,69 22,105 8,36 45,57 80,46l397 -101 -7 -78z"/>
   <path class="fil7" d="M3101 1434c-47,8 -92,-24 -100,-72 -7,-47 25,-92 72,-99 47,-8 92,24 100,71 7,48 -25,92 -72,100z"/>
   <path class="fil8" d="M3056 1347l0 2 84 2c1,0 2,-1 2,-2 0,-1 0,-2 -1,-2l-42 -20 -2 0 -42 18c-1,0 -1,1 -1,2 0,1 1,2 2,2l0 -2 1 2 41 -18 32 15 -74 -1 0 2 1 2 -1 -2z"/>
   <path class="fil9" d="M3093 1124c0,1 -1,2 -2,2 -1,0 -2,-1 -1,-2 0,-1 0,-2 1,-2 1,0 2,1 2,2z"/>
   <path class="fil10" d="M3235 1064c0,0 9,-14 8,-31 -2,-16 2,-35 8,-42 0,0 20,-34 42,-40 23,-5 39,-3 55,-5 12,-1 31,-12 38,-16 2,-1 5,-1 6,0 0,0 -3,-1 -13,13 -10,14 -42,34 -55,34 -10,1 -31,-6 -47,-3 13,9 21,19 28,35 7,18 -1,46 0,53 0,8 2,17 2,17 -8,-11 -22,-26 -31,-57 -6,-23 -5,-39 -4,-46 -2,1 -5,2 -7,3 -15,13 -15,33 -15,33 0,0 3,39 -10,54 -12,15 -49,59 -53,68l-5 -1c0,0 28,-41 53,-69z"/>
   <path class="fil10" d="M3188 1163c13,-55 27,-296 -74,-415 17,57 20,118 24,178 2,26 4,53 10,78 14,55 21,99 40,159z"/>
   <path class="fil1" d="M3396 966c0,0 9,-16 17,-20 0,0 -6,-7 -28,6 -3,2 -6,4 -10,5 -9,5 -31,19 -42,48 -25,12 -103,67 -167,115 4,-1 5,-1 9,-2 28,-21 58,-43 85,-62 24,8 56,3 73,2 44,-3 76,-23 76,-23 0,0 -34,-10 -45,-12 -28,-5 -52,2 -70,10 21,-13 37,-23 44,-26l79 -25 -1 -4 -54 17c13,-7 27,-17 34,-29z"/>
   <path class="fil1" d="M3257 814c3,9 2,18 1,27 -3,39 -6,78 -10,117 -3,33 -6,67 -13,99 -18,74 -92,234 -135,294 -6,-6 -12,-1 -7,-16 21,-55 92,-203 98,-251 3,-28 -4,-54 -1,-82 6,-58 20,-110 53,-167l14 -21z"/>
   <path class="fil1" d="M3158 1079c-9,-23 11,-64 11,-64 0,0 8,-22 -6,-44 -2,-3 -4,-6 -7,-8 -1,9 -7,28 -23,50 -24,30 -46,40 -60,49 0,0 6,-10 9,-18 4,-8 5,-43 21,-59 15,-15 28,-22 48,-26 -13,-8 -29,-11 -42,-14l-1 0 0 0c-6,-2 -11,-3 -15,-5l-2 -1c-10,-1 -18,2 -18,2 0,0 -23,19 -54,25 -32,6 -48,-13 -48,-13 15,-2 9,-8 47,-25 38,-17 51,6 51,6 5,-1 9,-2 13,-2 -16,-14 -35,-41 -40,-57 -7,-20 -11,-21 -11,-21 2,0 5,1 7,3 7,9 26,30 40,37 17,9 38,15 63,32 24,17 35,64 35,64 3,11 1,34 -8,51 -8,18 -3,38 -3,38 19,43 23,58 23,58l-6 0c0,-12 -15,-35 -24,-58z"/>
   <path class="fil11" d="M3131 979c0,0 28,-10 38,-14 10,-5 30,-23 30,-23 0,0 7,11 51,42 0,0 21,-16 -15,-60 0,0 39,-8 50,-19 0,0 -5,-25 -53,-23 0,0 2,-44 -13,-69 0,0 -39,27 -33,70 0,0 -48,-34 -76,-5 0,0 16,27 61,38 0,0 -51,28 -40,63z"/>
   <path class="fil4" d="M3203 929c0,0 -26,-28 -28,-36 0,0 -2,-16 21,22l-5 -38c0,0 4,-5 11,36 0,0 2,-32 6,-34 5,-1 -1,35 -1,35 0,0 14,-29 17,-26 4,2 -12,27 -12,27 0,0 19,-22 22,-17 3,4 -31,31 -31,31z"/>
   <path class="fil11" d="M3125 1127c0,0 33,1 45,1 12,-1 39,-12 39,-12 0,0 5,14 40,65 0,0 27,-9 4,-69 0,0 44,7 60,1 0,0 3,-29 -49,-46 0,0 19,-46 11,-78 0,0 -50,12 -59,59 0,0 -39,-54 -78,-35 0,0 8,35 51,64 0,0 -63,9 -64,50z"/>
   <path class="fil4" d="M3218 1104c0,0 -17,-40 -17,-49 0,0 4,-17 14,32l9 -42c0,0 6,-4 -2,41 0,0 13,-32 19,-32 5,0 -14,36 -14,36 0,0 25,-25 28,-21 3,4 -22,24 -22,24 0,0 27,-15 28,-9 2,5 -43,20 -43,20z"/>
   <path class="fil7" d="M3010 1309c0,0 19,-92 116,-2l25 36 -27 65 -67 -14 -46 -17 -1 -68z"/>
   <path class="fil3" d="M2689 2199c26,-2 49,2 73,7 10,-548 -147,-788 -147,-788l-275 1c-207,232 -168,753 -166,782 16,-1 33,-2 49,-1 6,-5 14,-7 24,-6 92,11 184,3 277,6 37,1 75,4 112,5 18,-3 35,-6 53,-6z"/>
   <path class="fil3" d="M2691 1105l0 1 20 -87 -50 -7 -164 -22 -176 20c-20,2 -60,36 -57,57l76 352 275 -1 34 -139c57,-42 51,-125 42,-173l0 -1z"/>
   <path class="fil6" d="M2167 1068l59 178c0,0 -199,61 -243,86 -50,29 -87,14 -112,-38l0 0c-22,-48 -3,-105 44,-129l252 -97z"/>
   <path class="fil6" d="M2292 1019c42,-22 94,-7 119,33 27,44 38,106 -7,132 -32,19 -178,62 -178,62l-59 -178 125 -49z"/>
   <path class="fil6" d="M2238 1574l-230 -368c-27,-38 -80,-46 -117,-17 -37,29 -37,94 -5,129l277 307 75 -51z"/>
   <path class="fil6" d="M2397 1618l-75 -55 11 -16c4,-6 4,-14 -1,-20 -5,-5 -13,-7 -20,-3l-87 47 -62 54c38,45 67,49 85,44 2,1 4,2 6,3l64 31c6,3 14,2 18,-4 3,-4 5,-11 -7,-20l12 9c6,4 14,2 18,-4 4,-5 2,-13 -5,-19l9 5c7,4 16,2 20,-5 4,-6 1,-14 -5,-18l-13 -10 17 7c7,4 17,1 20,-7 4,-6 1,-15 -5,-19z"/>
   <path class="fil3" d="M2383 1003l-137 7c0,0 78,69 81,254l151 -48 -36 -127 -59 -86z"/>
   <path class="fil12" d="M2611 820l-17 79 30 0 -11 -79c0,-1 -2,-1 -2,0z"/>
   <path class="fil5" d="M2649 724c2,87 -67,160 -154,162 -87,2 -159,-67 -161,-154 -3,-87 66,-159 153,-162 87,-2 160,67 162,154z"/>
   <path class="fil13" d="M2560 789c-1,23 17,43 40,43 22,1 41,-18 41,-41 1,-23 -17,-43 -40,-43 -22,-1 -41,18 -41,41z"/>
   <path class="fil7" d="M2550 890l5 101c2,35 -18,55 -52,57 -29,1 -53,-11 -53,-42l-1 -159 101 43z"/>
   <path class="fil13" d="M2553 950c0,0 -74,8 -104,-84 -10,-28 101,14 101,14l3 70z"/>
   <path class="fil7" d="M2521 921l0 0c58,-3 103,-52 102,-101l-2 -114c-1,-61 -49,-110 -108,-112 -60,-1 -121,49 -122,111l3 92c3,71 58,123 127,124z"/>
   <path class="fil5" d="M2557 794l5 21 -11 1c-2,1 -3,2 -3,4 0,1 2,2 3,2l14 -1c1,0 2,-1 2,-1 1,-1 1,-2 1,-2l-5 -25c0,-2 -2,-3 -3,-3 -2,1 -3,2 -3,4z"/>
   <path class="fil5" d="M2494 723c0,0 24,-3 25,7 0,0 0,7 -21,9 -20,2 -25,1 -28,-5 -2,-6 13,-10 24,-11z"/>
   <path class="fil5" d="M2593 721c0,0 -20,-1 -21,8 0,0 0,7 17,7 17,1 22,-2 24,-7 1,-6 -11,-8 -20,-8z"/>
   <path class="fil14" d="M2576 832l-69 7c0,0 6,23 42,20 30,-4 27,-27 27,-27z"/>
   <path class="fil5" d="M2523 773c0,0 -7,-5 -17,-5 -5,0 -11,2 -18,5 -2,1 -2,4 -1,5 1,2 3,3 5,2 5,-4 10,-4 14,-4 4,0 7,0 10,1 1,1 2,1 2,1l1 1 0 0 0 0 0 0 0 0 0 0 0 0c2,1 4,1 5,-1 1,-2 1,-4 -1,-5z"/>
   <path class="fil5" d="M2610 772c-1,-1 -6,-6 -14,-6 -5,0 -11,2 -17,5 -2,1 -3,4 -2,5 1,2 3,3 5,2 6,-3 10,-4 14,-4 3,0 5,1 6,1l2 1 0 1 0 0c2,1 4,1 6,0 1,-2 1,-4 0,-5z"/>
   <path class="fil5" d="M2442 721c0,4 -21,74 -21,74l-70 -75 91 1z"/>
   <path class="fil5" d="M2410 766c0,0 82,-10 145,-107 0,0 65,26 66,75 0,0 22,-119 -84,-145 -106,-25 -186,47 -167,157l40 20z"/>
   <path class="fil7" d="M2341 798c0,23 18,42 40,42 23,1 41,-18 41,-41 1,-23 -17,-42 -39,-42 -23,-1 -41,18 -42,41z"/>
   <path class="fil5" d="M2399 811l0 0c0,-1 0,-8 -3,-15 -2,-3 -4,-7 -8,-10 -4,-2 -9,-4 -15,-4 -1,0 -3,0 -5,0 -2,0 -3,2 -3,4 1,1 2,2 4,2 1,0 3,0 4,0 5,0 9,1 11,3 4,3 7,8 8,12 1,4 1,8 1,8l0 0c0,2 1,3 3,3 2,0 3,-1 3,-3z"/>
   <path class="fil12" d="M2399 836l-17 78 30 0 -11 -78c0,-2 -2,-2 -2,0z"/>
   <polygon class="fil6" points="2383,1003 2536,1119 2618,1006 2532,991 2449,995 "/>
   <path class="fil7" d="M998 1178l-337 -229c0,0 -39,-62 -11,-100 31,-41 56,-30 96,0l274 126c39,29 27,86 7,130 -29,61 23,117 -29,73z"/>
   <path class="fil7" d="M629 901l-132 -345 90 -13 172 320c16,50 7,97 -44,101 -41,4 -77,-23 -86,-63z"/>
   <path class="fil10" d="M656 337c0,0 13,-11 17,-27 3,-16 12,-33 20,-38 0,0 29,-27 52,-26 23,2 38,8 53,11 12,3 33,-2 42,-4 2,-1 4,0 6,1 0,0 -3,-2 -17,9 -14,10 -50,21 -62,17 -10,-2 -28,-15 -44,-16 9,12 14,24 16,41 2,19 -14,43 -16,51 -1,7 -3,16 -3,16 -4,-12 -13,-31 -12,-63 0,-23 6,-39 9,-45 -2,0 -5,0 -7,1 -19,8 -25,27 -25,27 0,0 -8,38 -24,49 -17,11 -65,42 -71,50l-4 -3c0,0 39,-31 70,-51z"/>
   <path class="fil10" d="M583 419c28,-49 110,-276 48,-419 0,60 -14,119 -28,177 -5,26 -11,52 -13,78 -2,57 -9,101 -7,164z"/>
   <path class="fil1" d="M839 290c0,0 13,-13 22,-14 0,0 -4,-9 -29,-2 -3,0 -7,1 -11,2 -10,2 -35,9 -54,33 -27,5 -118,35 -193,62 4,0 5,0 9,1 32,-12 68,-24 99,-35 21,14 53,19 70,23 42,10 80,0 80,0 0,0 -30,-19 -41,-25 -25,-12 -50,-13 -69,-10 23,-7 41,-12 49,-12l83 -2 0 -3 -56 1c14,-4 30,-9 41,-19z"/>
   <path class="fil1" d="M750 104c0,10 -4,19 -7,27 -15,36 -29,72 -44,109 -12,31 -25,62 -41,91 -38,65 -156,197 -214,242 -4,-7 -11,-4 -2,-17 36,-46 147,-168 166,-212 11,-26 12,-53 23,-79 22,-54 50,-99 99,-145l20 -16z"/>
   <path class="fil1" d="M578 330c-2,-25 29,-59 29,-59 0,0 14,-19 7,-44 -1,-3 -2,-6 -4,-9 -4,8 -15,25 -37,41 -31,22 -56,25 -71,29 0,0 8,-7 14,-14 5,-7 17,-39 37,-50 18,-10 33,-13 53,-11 -10,-11 -25,-19 -36,-26l-1 0 0 -1c-5,-3 -10,-5 -13,-8l-2 -2c-9,-3 -17,-3 -17,-3 0,0 -28,12 -60,8 -32,-3 -42,-26 -42,-26 15,2 11,-5 52,-11 42,-5 48,21 48,21 5,0 9,1 13,2 -11,-18 -22,-49 -23,-66 0,-22 -4,-23 -4,-23 3,0 5,2 6,5 4,10 16,36 28,47 14,13 32,25 51,48 18,23 15,72 15,72 0,11 -9,32 -22,47 -14,14 -14,35 -14,35 5,46 5,62 5,62l-6 -2c3,-12 -4,-37 -6,-62z"/>
   <path class="fil11" d="M581 226c0,0 29,-2 41,-3 11,-1 35,-13 35,-13 0,0 4,13 37,55 0,0 24,-9 2,-61 0,0 40,3 54,-4 0,0 3,-25 -45,-37 0,0 16,-42 9,-70 0,0 -45,14 -53,57 0,0 -36,-46 -71,-26 0,0 8,30 47,53 0,0 -56,12 -56,49z"/>
   <path class="fil6" d="M664 199c0,0 -16,-34 -16,-42 0,0 3,-16 14,27l6 -38c0,0 6,-3 0,37 0,0 11,-30 16,-30 5,0 -12,33 -12,33 0,0 22,-24 25,-21 3,4 -20,23 -20,23 0,0 24,-15 26,-10 2,5 -39,21 -39,21z"/>
   <path class="fil11" d="M532 366c0,0 31,11 43,14 12,3 42,-1 42,-1 0,0 -1,16 19,74 0,0 28,0 24,-64 0,0 40,19 57,17 0,0 11,-26 -33,-57 0,0 30,-39 32,-72 0,0 -51,-3 -74,40 0,0 -21,-64 -64,-56 0,0 -3,35 30,76 0,0 -63,-10 -76,29z"/>
   <path class="fil6" d="M628 371c0,0 -5,-43 -2,-52 0,0 9,-16 5,34l20 -37c0,0 7,-2 -14,39 0,0 22,-27 28,-25 5,2 -24,30 -24,30 0,0 31,-16 33,-12 2,5 -28,17 -28,17 0,0 30,-7 30,-1 0,6 -48,7 -48,7z"/>
   <path class="fil7" d="M463 572c29,34 80,38 113,9 34,-29 38,-80 9,-113 -29,-34 -80,-37 -113,-9 -34,29 -37,80 -9,113z"/>
   <path class="fil7" d="M546 448c0,0 26,-21 42,0 25,34 45,75 -12,133l-30 -133z"/>
   <polygon class="fil3" points="1039,977 876,908 870,1133 1012,1207 "/>
   <path class="fil7" d="M1373 1022l255 179c38,30 63,76 36,116l0 0c-29,42 -85,20 -127,-8l-284 -122c-40,-27 -55,-78 -37,-123 26,-63 104,-83 157,-42z"/>
   <path class="fil3" d="M1310 999c0,0 55,-10 141,78l-34 198 -113 -50 6 -226z"/>
   <path class="fil3" d="M1310 999l-331 -27c-29,-2 -38,35 -34,64l78 389 265 2 79 -366c1,-32 -24,-60 -57,-62z"/>
   <path class="fil7" d="M1047 977l227 19c0,0 -13,71 -95,68 -114,-4 -132,-87 -132,-87z"/>
   <path class="fil5" d="M1313 716c1,88 -61,159 -148,160 -87,0 -158,-70 -159,-157 -1,-87 70,-158 157,-159 87,0 150,69 150,156z"/>
   <path class="fil13" d="M1231 780c-1,24 17,43 40,44 22,1 41,-17 42,-41 1,-23 -17,-42 -40,-43 -22,-1 -41,17 -42,40z"/>
   <path class="fil14" d="M1306 818c0,7 -5,13 -12,13 -7,0 -12,-6 -12,-13 0,-6 5,-12 12,-12 7,0 12,6 12,12z"/>
   <path class="fil7" d="M1220 881l3 101c1,35 -19,55 -53,56 -29,0 -53,-12 -53,-43l2 -159 101 45z"/>
   <path class="fil13" d="M1222 941c0,0 -74,6 -103,-85 -9,-29 101,15 101,15l2 70z"/>
   <path class="fil7" d="M1191 911l0 0c57,-1 103,-50 103,-98l0 -115c0,-61 -47,-111 -106,-113 -60,-3 -121,46 -124,108l2 92c1,72 56,124 125,126z"/>
   <path class="fil5" d="M1229 785l4 22 -11 0c-2,1 -3,2 -3,4 0,1 1,2 3,2l14 -1c1,0 2,0 2,-1 1,-1 1,-1 1,-2l-4 -25c-1,-2 -2,-3 -4,-2 -1,0 -2,1 -2,3z"/>
   <path class="fil5" d="M1166 728c0,0 24,-3 24,7 0,0 1,7 -20,9 -20,2 -26,1 -28,-6 -2,-6 13,-9 24,-10z"/>
   <path class="fil5" d="M1265 728c0,0 -19,-2 -21,8 0,0 0,6 17,7 17,1 22,-2 24,-7 1,-6 -11,-8 -20,-8z"/>
   <path class="fil5" d="M1253 769c0,6 4,10 10,10 5,0 9,-4 9,-10 0,-6 -4,-10 -10,-10 -5,0 -9,4 -9,10z"/>
   <path class="fil5" d="M1166 769c0,6 4,10 10,10 5,0 10,-4 10,-10 0,-6 -5,-10 -10,-10 -6,0 -10,4 -10,10z"/>
   <path class="fil14" d="M1246 823l-68 6c0,0 5,24 41,20 30,-2 27,-26 27,-26z"/>
   <path class="fil5" d="M1117 655c0,5 -25,129 -25,129l-68 -77 93 -52z"/>
   <path class="fil7" d="M1013 785c-1,23 17,42 39,43 22,1 41,-17 42,-40 1,-23 -17,-42 -39,-43 -23,-1 -41,17 -42,40z"/>
   <path class="fil5" d="M1070 800l0 -1c0,-2 0,-9 -3,-16 -2,-3 -4,-7 -8,-9 -4,-3 -9,-4 -15,-4 -1,0 -3,0 -5,0 -1,0 -2,2 -2,3 0,2 2,3 3,3 2,0 3,-1 4,-1 5,0 9,2 12,4 3,2 6,7 7,11 1,4 1,8 1,9l0 0c0,2 1,3 3,3 2,0 3,-1 3,-2z"/>
   <path class="fil14" d="M1083 824c0,7 -6,13 -12,13 -7,0 -13,-6 -13,-13 0,-6 6,-12 13,-12 6,0 12,6 12,12z"/>
   <path class="fil5" d="M1105 531c13,54 -20,108 -74,121 -54,13 -109,-21 -122,-75 -13,-54 21,-108 75,-121 54,-13 108,21 121,75z"/>
   <path class="fil5" d="M1038 681c0,0 113,65 264,24 22,-6 33,-29 26,-49 -14,-40 -53,-97 -165,-96 0,0 -126,54 -125,121z"/>
   <path class="fil3" d="M1228 2199c63,-1 127,-2 191,-2 8,0 16,0 23,0 10,-549 -154,-770 -154,-770l-265 -2c-128,213 -193,766 -193,766 13,3 26,6 40,9 119,-1 238,2 358,-1z"/>
   <polygon class="fil15" points="1015,1437 1293,1439 1294,1415 1015,1412 "/>
   <path class="fil16" d="M1516 1383l-49 626 -39 188c27,0 55,2 82,4 66,-2 132,-2 198,3l21 -99c11,-44 19,-88 24,-133l65 -616 -302 27z"/>
   <path class="fil16" d="M1804 2199c17,1 277,3 277,3l10 -184c2,-40 -3,-80 -14,-118l-150 -532 -266 -10 149 619 -6 222z"/>
   <path class="fil17" d="M1810 507c0,0 63,15 15,108l-43 -106 28 -2z"/>
   <path class="fil13" d="M1769 647c0,24 19,43 43,43 23,0 41,-20 41,-44 0,-23 -19,-43 -42,-43 -23,0 -42,20 -42,44z"/>
   <path class="fil7" d="M1754 750l8 103c3,37 -17,58 -52,60 -29,2 -63,-10 -64,-42l-4 -163 112 42z"/>
   <path class="fil13" d="M1760 819c0,0 -84,13 -117,-79 -10,-30 111,0 111,0l6 79z"/>
   <path class="fil7" d="M1726 783l0 0c59,-5 104,-56 102,-106l-5 -104c-3,-63 -53,-112 -113,-112 -56,0 -123,-11 -122,117l4 81c5,73 63,124 134,124z"/>
   <path class="fil5" d="M1760 635l4 24 -12 1c-1,0 -2,2 -2,3 0,2 1,3 3,3l15 -2c0,0 1,0 2,-1 0,-1 0,-1 0,-2l-4 -27c-1,-1 -2,-3 -4,-2 -2,0 -3,2 -2,3z"/>
   <path class="fil17" d="M1692 575c0,0 24,-4 25,6 0,0 0,7 -20,10 -21,3 -27,1 -29,-5 -3,-6 13,-11 24,-11z"/>
   <path class="fil17" d="M1796 570c0,0 -20,-1 -21,9 0,0 0,7 17,7 18,0 23,-3 24,-8 2,-6 -11,-9 -20,-8z"/>
   <path class="fil17" d="M1782 619c1,6 5,11 11,10 6,0 10,-5 10,-11 -1,-5 -5,-10 -11,-10 -5,1 -10,6 -10,11z"/>
   <path class="fil17" d="M1693 623c1,6 5,10 11,10 6,0 10,-5 10,-11 0,-6 -5,-10 -11,-10 -5,0 -10,5 -10,11z"/>
   <path class="fil14" d="M1783 681l-78 9c0,0 7,28 48,24 33,-4 30,-33 30,-33z"/>
   <path class="fil14" d="M1748 616l-2 0c0,2 0,4 0,6 0,24 -17,45 -41,47 -1,1 -3,1 -5,1 -23,0 -43,-19 -46,-43 -1,-2 -1,-4 -1,-6 0,-24 18,-45 41,-47 2,0 4,-1 6,-1 23,0 43,19 46,43l2 0 3 0c-3,-27 -26,-47 -51,-47 -2,0 -4,0 -6,0 -26,3 -45,26 -45,52 0,2 0,4 0,6 3,27 25,47 51,47 2,0 4,0 6,0 26,-3 45,-26 45,-52 0,-2 0,-4 0,-6l-3 0z"/>
   <path class="fil14" d="M1836 607l-2 0c0,2 0,4 0,6 0,11 -3,20 -8,27 -5,7 -12,11 -21,12 -1,1 -2,1 -3,1 -17,0 -32,-16 -35,-38 0,-2 0,-4 0,-6 0,-10 3,-19 8,-26 5,-7 13,-12 21,-13 1,0 2,0 3,0 17,0 33,16 35,37l2 0 3 0c-3,-24 -20,-42 -40,-42 -1,0 -2,0 -4,1 -9,1 -18,6 -23,14 -6,8 -10,18 -10,29 0,2 0,5 1,7 2,23 19,41 39,41 2,0 3,0 4,0 10,-1 18,-6 24,-14 6,-8 9,-19 9,-30 0,-2 0,-4 0,-6l-3 0z"/>
   <polygon class="fil14" points="1649,625 1584,630 1584,635 1650,629 "/>
   <polygon class="fil14" points="1749,620 1764,618 1763,613 1748,615 "/>
   <path class="fil17" d="M1755 395c-40,-3 -162,-4 -171,102 0,0 -97,68 -12,159l24 -28 0 0 25 14c0,0 -24,-93 24,-115 0,0 182,42 203,-31 15,-52 -23,-95 -93,-101z"/>
   <path class="fil7" d="M1538 661c0,23 19,43 42,42 23,0 41,-19 41,-43 0,-23 -19,-42 -42,-42 -23,0 -41,19 -41,43z"/>
   <path class="fil5" d="M1597 673c0,0 0,-7 -3,-14 -1,-4 -4,-8 -8,-11 -3,-3 -8,-4 -15,-4 -2,0 -4,0 -6,0 -2,0 -3,2 -3,4 1,1 2,2 4,2 2,0 4,0 5,0 5,0 9,1 12,3 4,3 6,8 7,13 1,2 1,4 1,5l0 2 0 0c0,2 2,3 3,3 2,0 3,-1 3,-3z"/>
   <path class="fil7" d="M2205 491c-1,12 -26,124 -26,124l88 15 48 -123 -110 -16z"/>
   <path class="fil7" d="M2298 566c-47,7 -91,-26 -98,-74 -6,-47 27,-91 74,-98 48,-6 92,27 99,74 6,48 -27,92 -75,98z"/>
   <path class="fil8" d="M2256 478l0 2 84 4c1,0 1,0 2,-1 0,-1 -1,-2 -1,-3l-42 -20 -2 -1 -42 17c-1,0 -2,1 -1,2 0,1 1,2 2,2l0 -2 0 2 42 -16 32 16 -74 -4 0 2 0 2 0 -2z"/>
   <path class="fil9" d="M2326 261c0,2 -2,4 -4,4 -2,0 -4,-2 -3,-4 0,-2 1,-4 3,-4 3,0 4,2 4,4z"/>
   <path class="fil9" d="M2306 293c0,1 -1,2 -2,2 -1,0 -1,-1 -1,-2 0,-1 1,-2 2,-2 1,0 1,1 1,2z"/>
   <path class="fil9" d="M2298 256c0,1 -1,2 -2,2 -1,0 -2,-1 -2,-2 0,-1 1,-2 2,-2 1,0 2,1 2,2z"/>
   <path class="fil7" d="M2210 439c0,0 22,-92 116,0l25 37 -29 64 -66 -15 -46 -18 0 -68z"/>
   <path class="fil0" d="M1850 853l301 -34c49,-1 90,35 94,83 5,50 -32,95 -82,100l-300 54c-48,5 -93,-25 -108,-71 -20,-64 27,-130 95,-132z"/>
   <path class="fil0" d="M2074 889l94 -349 161 40 -84 345c-11,54 -74,87 -124,65 -39,-17 -59,-61 -47,-101z"/>
   <polygon class="fil18" points="2151,601 2309,640 2311,632 2153,593 "/>
   <path class="fil0" d="M1585 1047l-240 218c-37,31 -91,29 -125,-5 -36,-36 -36,-94 0,-130l227 -232c34,-35 88,-40 128,-13l0 0c56,37 61,118 10,162z"/>
   <path class="fil7" d="M1475 1601c7,7 9,17 4,26 -6,11 -20,15 -31,8l-9 -6c-8,11 -14,35 29,81 7,8 6,20 -2,27 -6,6 -14,7 -21,3l-1 0c1,6 -1,12 -6,17 -6,6 -15,6 -22,3 -1,-1 -2,-1 -2,-2 -1,3 -3,6 -6,8 -6,6 -14,7 -21,3 -2,-1 -4,-2 -6,-4l-1 -2 -1 1c-6,6 -15,7 -22,3 -2,-1 -3,-2 -5,-4 -12,-13 -21,-25 -28,-38l0 0 0 0c-4,-6 -6,-12 -9,-17 -12,-26 -31,-77 -30,-123l140 -35 50 51z"/>
   <path class="fil0" d="M1356 1177l80 372 -158 52 -83 -373c-19,-51 15,-107 69,-114 42,-5 82,22 92,63z"/>
   <polygon class="fil18" points="1265,1541 1424,1492 1421,1484 1263,1534 "/>
   <polygon class="fil18" points="1265,1541 1424,1492 1421,1484 1263,1534 "/>
   <path class="fil0" d="M1847 853l-80 3 -47 43 -66 -38 -124 6c-28,1 -81,44 -75,72l51 466 428 -21 -24 -475c-2,-32 -30,-58 -63,-56z"/>
   <polygon class="fil18" points="1638,846 1720,899 1668,957 1593,864 "/>
   <polygon class="fil18" points="1767,842 1720,899 1769,947 1801,855 "/>
   <polygon class="fil16" points="1617,1400 1577,864 1553,866 1593,1401 "/>
   <polygon class="fil16" points="1835,853 1851,1388 1875,1388 1859,852 "/>
   <polygon class="fil18" points="1715,911 1741,1394 1749,1393 1723,911 "/>
   <path class="fil16" d="M1738 910c1,10 -8,19 -18,20 -11,1 -20,-8 -20,-18 -1,-11 7,-20 18,-20 10,-1 19,7 20,18z"/>
   <path class="fil16" d="M1705 901l-54 -27c0,0 -13,40 5,88l57 -40 -8 -21z"/>
   <path class="fil16" d="M1731 899l51 -32c0,0 17,38 5,88l-61 -33 5 -23z"/>
   <path class="fil4" d="M230 2205l2945 0c3,0 6,-3 6,-6 0,-3 -3,-6 -6,-6l-2945 0c-3,0 -6,3 -6,6 0,3 3,6 6,6z"/>
   <path class="fil4" d="M1064 2299l15 0 163 0c2,0 4,-2 4,-4 0,-3 -2,-5 -4,-5l-163 0 -15 0 -126 0 -37 0 -141 0c-2,0 -4,2 -4,5 0,2 2,4 4,4l141 0 37 0 126 0z"/>
   <path class="fil4" d="M2196 2299l15 0 162 0c3,0 5,-2 5,-4 0,-3 -2,-5 -5,-5l-162 0 -15 0 -126 0 -37 0 -141 0c-2,0 -4,2 -4,5 0,2 2,4 4,4l141 0 37 0 126 0z"/>
   <path class="fil4" d="M1205 2299l15 0 162 0c3,0 5,-2 5,-4 0,-3 -2,-5 -5,-5l-162 0 -15 0 -126 0 -37 0 -141 0c-2,0 -4,2 -4,5 0,2 2,4 4,4l141 0 37 0 126 0z"/>
  </g>
 </g>
</svg>
