<?xml version="1.0" encoding="UTF-8"?>
<!DOCTYPE svg PUBLIC "-//W3C//DTD SVG 1.1//EN" "http://www.w3.org/Graphics/SVG/1.1/DTD/svg11.dtd">
<!-- Creator: CorelDRAW X7 -->
<svg xmlns="http://www.w3.org/2000/svg" xml:space="preserve" width="124.757mm" height="101.615mm" version="1.1" style="shape-rendering:geometricPrecision; text-rendering:geometricPrecision; image-rendering:optimizeQuality; fill-rule:evenodd; clip-rule:evenodd"
viewBox="0 0 2716 2212"
 xmlns:xlink="http://www.w3.org/1999/xlink">
 <defs>
  <style type="text/css">
   <![CDATA[
    .fil10 {fill:#FEFEFE}
    .fil6 {fill:#FBE1DB}
    .fil14 {fill:#F8CECF}
    .fil5 {fill:#F19B9A}
    .fil2 {fill:#EF8641}
    .fil13 {fill:#EE7F7D}
    .fil9 {fill:#EB6B6E}
    .fil15 {fill:#F2D996}
    .fil4 {fill:#E8958F}
    .fil0 {fill:#E9F0F9}
    .fil12 {fill:#E6C6C1}
    .fil7 {fill:#272326}
    .fil8 {fill:#292933}
    .fil3 {fill:#2C314B}
    .fil11 {fill:#2F3B60}
    .fil1 {fill:#00B6E8}
   ]]>
  </style>
 </defs>
 <g id="Layer_x0020_1">
  <metadata id="CorelCorpID_0Corel-Layer"/>
  <g id="_1638563729520">
   <path class="fil0" d="M2132 2124c0,0 311,-178 234,-512 -70,-308 -352,-165 -586,-414 -233,-250 -274,-737 -931,-501 -657,236 -883,797 -619,1427l1902 0z"/>
   <path class="fil0" d="M523 291c0,0 -322,159 -238,286 84,127 247,-139 377,-223 129,-84 263,-125 241,-149 -21,-24 -180,-9 -380,86z"/>
   <path class="fil1" d="M2287 1619c12,4 20,16 8,28 -10,10 -32,5 -31,-12 0,-16 13,-20 23,-16z"/>
   <path class="fil2" d="M1623 1c12,4 20,16 8,28 -10,11 -32,5 -31,-11 0,-17 13,-20 23,-17z"/>
   <path class="fil1" d="M550 1261c11,4 20,16 8,28 -10,10 -32,5 -32,-11 1,-17 13,-20 24,-17z"/>
   <path class="fil2" d="M2244 626c-15,19 -36,42 -63,34 -6,-2 -12,-5 -19,-4 -7,2 -10,16 -13,23 -4,11 -14,18 -26,21 -9,1 -18,0 -27,0 -15,1 -18,14 -17,26 0,11 0,23 -9,30 -11,9 -24,8 -37,9 -9,1 -10,-12 -1,-13 11,-2 30,2 33,-14 2,-10 -3,-22 2,-32 11,-20 26,-19 46,-19 5,0 10,-1 14,-3 8,-3 11,-13 14,-20 4,-12 11,-21 24,-22 4,0 9,1 14,3 8,3 14,4 23,1 14,-4 23,-18 32,-29 5,-6 16,2 10,9z"/>
   <path class="fil2" d="M342 755c13,21 27,49 10,71 -4,5 -9,10 -10,17 0,7 12,15 17,19 9,9 13,20 11,32 -2,9 -6,17 -9,26 -5,14 6,21 18,25 10,3 22,8 26,19 4,13 -2,24 -5,38 -2,8 -15,5 -13,-4 3,-11 12,-28 -1,-36 -9,-6 -22,-5 -30,-13 -15,-17 -8,-31 -1,-50 1,-4 2,-9 2,-14 0,-9 -9,-14 -15,-20 -9,-8 -15,-17 -12,-30 1,-4 4,-8 7,-12 6,-7 9,-12 9,-21 1,-15 -8,-28 -15,-40 -5,-8 7,-14 11,-7z"/>
   <path class="fil1" d="M1962 410c-16,23 -40,45 -64,58 -9,-18 -16,-27 -14,-28 17,-9 42,-34 56,-49l22 19z"/>
   <path class="fil1" d="M509 1731c-42,-12 -84,-37 -117,-64 7,-13 19,-23 24,-35 37,12 67,48 104,58l-11 41z"/>
   <path class="fil2" d="M2213 1336c10,-51 34,-103 63,-145 15,7 28,20 43,25 -10,44 -49,83 -57,128l-49 -8z"/>
   <path class="fil1" d="M758 107c-29,-11 -70,-24 -103,-35 4,-12 12,-24 14,-38 32,5 63,24 92,37l-3 36z"/>
   <path class="fil1" d="M2059 1015c14,-4 31,12 21,28 -15,24 -45,-8 -30,-23 3,-3 6,-4 9,-5z"/>
   <path class="fil3" d="M1108 510c96,-11 297,22 297,22l-172 182 -125 -204z"/>
   <path class="fil4" d="M1117 1085c-1,7 -7,12 -13,12 -9,1 -17,-6 -17,-15l0 -7c-10,0 -26,5 -36,48 -2,7 -9,12 -17,10 -5,-1 -9,-6 -10,-11l0 -1c-3,3 -8,4 -12,3 -6,-1 -10,-6 -10,-11 0,-1 0,-2 0,-3 -2,1 -5,1 -7,1 -6,-2 -10,-7 -10,-12 0,-1 0,-3 0,-5l1 -1 -1 0c-6,-2 -10,-6 -10,-12 0,-1 0,-3 0,-5 3,-11 6,-22 11,-30l0 0 0 -1c2,-4 4,-8 7,-11 10,-17 32,-49 59,-66l75 68 -10 49z"/>
   <polygon class="fil5" points="1052,968 1281,641 1369,721 1127,1036 "/>
   <path class="fil6" d="M1281 641l67 -95c20,-29 61,-35 89,-13 27,21 32,60 11,88l-79 100 -88 -80z"/>
   <path class="fil7" d="M942 2029l0 77 -260 0c0,-23 16,-42 38,-47l99 -30 123 0z"/>
   <polygon class="fil3" points="682,2120 942,2120 942,2106 682,2106 "/>
   <path class="fil7" d="M1253 2029l0 77 260 0c0,-23 -15,-42 -37,-47l-100 -30 -123 0z"/>
   <polygon class="fil3" points="1513,2120 1253,2120 1253,2106 1513,2106 "/>
   <polygon class="fil3" points="1005,886 1236,2036 1388,2029 1212,921 "/>
   <polygon class="fil8" points="1094,1349 1124,1205 1163,1673 "/>
   <polygon class="fil3" points="927,881 795,2027 957,2040 1181,921 "/>
   <path class="fil9" d="M1117 354c-1,17 13,32 31,33 18,0 32,-13 33,-31 1,-18 -13,-33 -31,-33 -18,-1 -33,13 -33,31z"/>
   <path class="fil5" d="M1110 403l-3 115c0,32 -23,33 -54,32 -27,-1 -50,-9 -52,-36l-2 -124 111 13z"/>
   <polygon class="fil9" points="1108,496 1024,429 1109,431 "/>
   <path class="fil5" d="M1055 447l45 2c33,1 61,-26 61,-60l0 -83c1,-42 -33,-76 -75,-78 -43,-1 -87,32 -89,75l2 87c0,31 25,56 56,57z"/>
   <path class="fil7" d="M1007 351c0,0 61,9 31,-60 0,0 13,-24 55,-13 41,12 82,10 88,-23 6,-33 -27,-78 -106,-50 0,0 -28,10 -49,27 -20,16 -52,16 -56,48 -4,31 12,84 37,71z"/>
   <path class="fil5" d="M957 355c0,18 13,32 31,33 18,1 33,-13 33,-31 1,-18 -13,-33 -31,-33 -17,-1 -32,13 -33,31z"/>
   <path class="fil7" d="M1002 366l0 0c0,-2 0,-7 -2,-13 -2,-2 -4,-5 -6,-7 -3,-2 -7,-3 -12,-3 -1,0 -2,0 -4,0 -1,0 -2,2 -2,3 0,1 2,2 3,2 1,0 2,0 3,0 4,0 7,1 9,2 3,2 5,5 6,9 1,3 1,6 1,7l0 0c0,1 1,2 2,2 1,0 2,-1 2,-2z"/>
   <path class="fil7" d="M1119 364l3 14 -10 -1c-1,0 -3,1 -3,2 0,2 1,3 3,3l12 0c1,0 2,0 2,-1 1,0 1,-1 1,-2l-4 -16c0,-2 -1,-2 -3,-2 -1,0 -2,1 -1,3z"/>
   <path class="fil7" d="M1133 351c0,3 3,6 7,7 4,0 7,-3 7,-7 0,-4 -3,-7 -7,-7 -3,0 -6,3 -7,7z"/>
   <path class="fil7" d="M1079 349c0,3 3,7 7,7 3,0 6,-3 7,-7 0,-3 -3,-7 -7,-7 -4,0 -7,3 -7,7z"/>
   <path class="fil7" d="M1082 309c0,0 18,-2 18,7 0,0 0,7 -15,8 -16,1 -20,0 -21,-6 -1,-6 10,-9 18,-9z"/>
   <path class="fil7" d="M1145 311c0,0 -15,-2 -16,7 0,0 -1,5 12,7 13,1 17,-1 18,-6 1,-5 -7,-8 -14,-8z"/>
   <path class="fil10" d="M1129 393l-43 0c0,0 3,19 26,16 15,-2 17,-16 17,-16z"/>
   <path class="fil5" d="M488 179c-3,-7 -11,-11 -18,-10 -10,1 -18,11 -15,21l1 8c-10,3 -30,1 -53,-44 -3,-8 -13,-11 -20,-7 -6,3 -9,9 -9,15l1 1c-5,-2 -10,-3 -15,0 -6,3 -9,9 -9,15 1,1 1,2 1,3 -3,-1 -5,0 -8,1 -5,3 -9,9 -8,16 0,1 1,3 2,5l0 1 0 1c-6,3 -9,9 -9,15 0,2 1,4 2,5 6,13 13,23 20,32l0 0 0 1c4,4 7,7 11,11 16,16 48,46 84,58l66 -95 -24 -53z"/>
   <polygon class="fil3" points="432,341 900,690 984,539 512,232 "/>
   <path class="fil3" d="M890 485c-10,-1 -54,36 -54,36l41 302 -10 296 384 -30 -28 -519c-2,-28 -11,-57 -39,-57 0,0 -4,0 -66,-6 -6,0 -45,22 -51,21 -7,0 -55,-28 -62,-29 -47,-4 -66,-7 -115,-14z"/>
   <polygon class="fil10" points="979,496 1100,770 1127,506 1108,510 1067,528 1012,499 "/>
   <polygon class="fil10" points="1027,534 1060,575 1101,536 1067,522 "/>
   <polygon class="fil10" points="1000,492 1067,522 1035,572 979,496 "/>
   <polygon class="fil10" points="1067,522 1098,570 1127,506 1108,503 "/>
   <path class="fil3" d="M1078 539c0,6 -4,11 -11,12 -6,0 -11,-5 -11,-11 -1,-6 4,-12 11,-12 6,0 11,5 11,11z"/>
   <path class="fil3" d="M1058 533l-36 -19c0,0 -9,27 2,60l39 -27 -5 -14z"/>
   <path class="fil3" d="M1075 532l35 -21c0,0 11,26 2,59l-41 -23 4 -15z"/>
   <polygon class="fil11" points="971,498 938,571 991,602 964,653 1096,772 1130,1103 1137,1102 1103,768 974,651 1001,599 948,568 977,501 "/>
   <polygon class="fil11" points="901,1120 1251,1092 1251,1085 900,1112 "/>
   <polygon class="fil11" points="1131,512 1174,558 1135,590 1170,634 1096,768 1103,772 1179,634 1145,591 1184,558 1136,507 "/>
   <path class="fil5" d="M1556 1616l345 -17 6 -68 -353 -19c-30,0 -53,24 -52,53l0 1c0,29 25,52 54,50z"/>
   <path class="fil7" d="M1899 1527l105 0 -3 46 -29 9 27 36 -6 113c0,0 -36,-6 -38,-77l-60 -53 4 -74z"/>
   <path class="fil5" d="M1469 1161l24 424c2,30 27,54 57,53l2 0c30,0 54,-24 55,-54l15 -419 -153 -4z"/>
   <polygon class="fil5" points="1327,1166 1360,2037 1428,2030 1480,1163 "/>
   <path class="fil7" d="M1432 2015l5 105 -45 0 -11 -29 -35 29 -113 0c0,0 4,-35 75,-41l50 -64 74 0z"/>
   <path class="fil6" d="M1579 879c0,0 97,23 330,527 0,0 -157,428 -746,233 0,0 150,-616 237,-771l179 11z"/>
   <polygon class="fil2" points="1589,887 1391,887 1391,865 1589,865 "/>
   <path class="fil6" d="M1584 865l100 -202c8,-24 -1,-86 -25,-91l-242 -50c-28,-6 -53,16 -51,44l29 299 189 0z"/>
   <path class="fil12" d="M1386 729l-1 0c0,0 -8,-4 -15,-14 -8,-10 -15,-24 -15,-47 0,-19 5,-43 20,-73l-7 -3c-15,31 -21,56 -21,76 0,25 9,42 18,53 8,10 17,15 17,15l4 -7z"/>
   <path class="fil6" d="M1727 744l-12 -116c-3,-36 -36,-61 -71,-56 -34,5 -57,37 -52,71l19 127 116 -26z"/>
   <polygon class="fil12" points="1615,769 1600,670 1592,671 1608,770 "/>
   <polygon class="fil12" points="1615,769 1600,670 1592,671 1608,770 "/>
   <path class="fil5" d="M1525 1098c-5,4 -7,11 -5,17 2,8 10,12 17,7l6 -3c3,8 4,24 -27,54 -5,5 -6,13 -3,18 3,4 8,5 13,3l0 0c-1,4 -1,9 2,12 3,4 8,5 12,3l2 -1c0,2 1,4 2,6 3,4 8,5 12,3 1,-1 3,-2 4,-3l1 -1 0 1c3,4 8,5 13,3 1,-1 2,-2 3,-3 9,-8 16,-16 21,-24l1 0 0 0c2,-4 5,-8 7,-12 10,-17 28,-46 32,-83l-77 -29 -36 32z"/>
   <path class="fil5" d="M1741 890l-14 -146 -116 26 26 135c5,27 30,46 57,43 29,-3 49,-29 47,-58z"/>
   <path class="fil5" d="M1638 1095l96 -173c14,-25 4,-57 -22,-70 -25,-13 -56,-1 -68,25l-83 189 77 29z"/>
   <path class="fil2" d="M1520 1236c0,0 22,76 61,107l22 -12c0,0 -72,-81 -75,-106l-8 11z"/>
   <path class="fil2" d="M1506 1224l-13 -12c-4,0 -43,129 27,204l37 -24c0,0 -68,-90 -51,-168z"/>
   <path class="fil10" d="M1640 1095c29,-24 -28,-30 -43,-28 9,-1 4,-25 0,-28 -10,-8 -28,0 -37,5 5,-13 6,-28 -12,-28 -17,-1 -30,18 -38,31 0,-12 -3,-30 -19,-27 -18,3 -18,27 -15,40 -4,-11 -11,-28 -26,-18 -14,10 -7,32 -1,45 -9,-4 -27,-13 -35,-4 -9,9 1,25 7,32 -16,13 -25,34 -1,43 -8,8 -15,20 -6,30 11,11 30,3 43,0 -14,10 -23,32 -2,40 14,5 32,-2 42,-11 -6,10 -12,34 6,35 12,0 22,-13 30,-21 -3,11 -4,32 12,34 15,1 24,-21 28,-32 25,25 36,-8 40,-31 6,19 28,11 35,-2 10,-18 -4,-43 -13,-60 13,6 23,3 25,-11 2,-15 -9,-27 -20,-34z"/>
   <path class="fil9" d="M1492 389c-3,17 -19,29 -36,26 -17,-3 -28,-19 -26,-36 3,-17 19,-28 36,-26 17,3 29,19 26,36z"/>
   <path class="fil10" d="M1452 408c0,5 -4,10 -10,10 -5,0 -10,-5 -10,-10 0,-6 5,-10 10,-10 6,0 10,4 10,10z"/>
   <path class="fil7" d="M1583 286c-12,33 5,69 38,81 33,12 70,-6 81,-39 12,-33 -5,-69 -38,-81 -33,-12 -70,6 -81,39z"/>
   <path class="fil13" d="M1651 363c0,0 24,-76 -68,-92l68 92z"/>
   <path class="fil14" d="M1623 302c0,0 46,-21 -5,-29 0,0 6,-55 -25,-8 0,0 -28,-41 -26,8l56 29z"/>
   <path class="fil7" d="M1562 288c-3,-8 5,-19 5,-19 38,8 68,28 79,67 17,57 -21,132 -92,141 -68,9 10,-182 10,-182l-2 -7z"/>
   <path class="fil5" d="M1482 474l-11 68c-4,23 9,38 32,42 20,3 40,-5 46,-24l11 -106 -78 20z"/>
   <path class="fil5" d="M1455 530l136 28c0,0 -34,62 -114,42 -62,-15 -22,-70 -22,-70z"/>
   <polygon class="fil9" points="1473,530 1567,472 1483,468 "/>
   <path class="fil5" d="M1500 490l0 0c-40,-9 -65,-47 -59,-79l15 -76c7,-41 45,-68 86,-61 31,4 75,61 71,87l-12 61c-10,47 -54,75 -101,68z"/>
   <polygon class="fil15" points="1567,269 1567,269 "/>
   <path class="fil7" d="M1466 309c26,-60 101,-40 101,-40l6 19c11,-12 -3,-18 -6,-19 72,27 65,61 52,84 10,8 19,18 19,18l-57 43c0,0 0,-7 2,-39 0,0 -23,-31 -19,-54 -81,6 -98,-12 -98,-12z"/>
   <path class="fil7" d="M1484 399l-6 12 0 2 2 1 10 3c1,0 2,-1 3,-2 0,-1 -1,-2 -2,-3l-7 -2 5 -9c0,-1 0,-3 -2,-3 -1,-1 -2,-1 -3,1z"/>
   <path class="fil7" d="M1541 360c0,0 -16,-6 -18,1 0,0 -1,5 14,9 14,4 18,4 20,0 3,-4 -8,-9 -16,-10z"/>
   <path class="fil7" d="M1473 346c0,0 15,2 14,9 0,0 0,4 -12,2 -13,-1 -16,-4 -17,-8 0,-4 9,-4 15,-3z"/>
   <path class="fil7" d="M1476 383c-1,4 -4,7 -8,6 -4,-1 -7,-5 -6,-9 1,-3 5,-6 8,-5 4,0 7,4 6,8z"/>
   <path class="fil7" d="M1536 395c-1,3 -5,6 -9,5 -4,0 -6,-4 -5,-8 0,-4 4,-7 8,-6 4,1 7,5 6,9z"/>
   <path class="fil10" d="M1473 423l42 11c0,0 -8,18 -29,9 -14,-6 -13,-20 -13,-20z"/>
   <path class="fil5" d="M1639 422c-2,17 -18,29 -35,26 -17,-3 -29,-18 -27,-36 3,-17 19,-28 36,-26 17,3 29,19 26,36z"/>
   <path class="fil7" d="M1598 425l0 -1c1,-1 2,-5 4,-8 2,-3 6,-6 11,-6 2,0 4,1 7,1 1,1 2,0 3,-1 0,-1 -1,-3 -2,-3 -3,-1 -6,-1 -8,-1 -8,0 -13,5 -16,9 -3,5 -3,9 -3,9 0,2 0,3 2,3 1,0 2,-1 2,-2z"/>
   <path class="fil10" d="M1603 444c0,6 -4,10 -10,10 -6,0 -10,-4 -10,-10 0,-5 4,-10 10,-10 6,0 10,5 10,10z"/>
   <path class="fil2" d="M4 2128l2708 0c2,0 4,-1 4,-3 0,-2 -2,-4 -4,-4l-2708 0c-2,0 -4,2 -4,4 0,2 2,3 4,3z"/>
   <path class="fil2" d="M1718 2212l463 0c2,0 4,-2 4,-4 0,-2 -2,-4 -4,-4l-463 0c-2,0 -4,2 -4,4 0,2 2,4 4,4z"/>
   <path class="fil2" d="M1161 2212l14 0 144 0c3,0 4,-2 4,-4 0,-2 -1,-4 -4,-4l-144 0 -14 0 -112 0 -33 0 -125 0c-2,0 -4,2 -4,4 0,2 2,4 4,4l125 0 33 0 112 0z"/>
  </g>
 </g>
</svg>
