<?xml version="1.0" encoding="UTF-8"?>
<!DOCTYPE svg PUBLIC "-//W3C//DTD SVG 1.1//EN" "http://www.w3.org/Graphics/SVG/1.1/DTD/svg11.dtd">
<!-- Creator: CorelDRAW X7 -->
<svg xmlns="http://www.w3.org/2000/svg" xml:space="preserve" width="158.852mm" height="158.852mm" version="1.1" style="shape-rendering:geometricPrecision; text-rendering:geometricPrecision; image-rendering:optimizeQuality; fill-rule:evenodd; clip-rule:evenodd"
viewBox="0 0 1243 1243"
 xmlns:xlink="http://www.w3.org/1999/xlink">
 <defs>
  <style type="text/css">
   <![CDATA[
    .fil11 {fill:#FEFEFE}
    .fil0 {fill:#FEFEFE}
    .fil7 {fill:#FBE1DB}
    .fil15 {fill:#F8CECF}
    .fil6 {fill:#F19B9A}
    .fil3 {fill:#EF8641}
    .fil14 {fill:#EE7F7D}
    .fil10 {fill:#EB6B6E}
    .fil16 {fill:#F2D996}
    .fil5 {fill:#E8958F}
    .fil1 {fill:#E9F0F9}
    .fil13 {fill:#E6C6C1}
    .fil8 {fill:#272326}
    .fil9 {fill:#292933}
    .fil4 {fill:#2C314B}
    .fil12 {fill:#2F3B60}
    .fil2 {fill:#00B6E8}
    .fil18 {fill:#332C2B;fill-rule:nonzero}
    .fil17 {fill:#00B6E8;fill-rule:nonzero}
   ]]>
  </style>
 </defs>
 <g id="Layer_x0020_1">
  <metadata id="CorelCorpID_0Corel-Layer"/>
  <rect class="fil0" transform="matrix(8.29516E-015 -0.599442 1.27081 6.44153E-014 -0.000350043 1243.24)" width="2074" height="978"/>
  <path class="fil1" d="M636 912c0,0 87,-50 66,-144 -20,-87 -100,-46 -165,-117 -66,-70 -78,-207 -263,-141 -185,67 -249,225 -174,402l536 0z"/>
  <path class="fil1" d="M183 396c0,0 -91,45 -68,81 24,35 70,-40 106,-63 37,-24 75,-36 69,-42 -7,-7 -51,-3 -107,24z"/>
  <path class="fil2" d="M679 770c4,1 6,5 3,8 -3,3 -9,1 -9,-3 0,-5 3,-6 6,-5z"/>
  <path class="fil3" d="M492 314c4,2 6,5 3,8 -3,3 -9,2 -9,-3 0,-5 3,-6 6,-5z"/>
  <path class="fil2" d="M190 669c3,1 6,5 2,8 -3,3 -9,2 -9,-3 0,-5 4,-6 7,-5z"/>
  <path class="fil3" d="M667 490c-4,6 -10,12 -18,10 -1,-1 -3,-2 -5,-1 -2,0 -3,4 -3,6 -2,3 -4,5 -8,6 -2,1 -5,0 -8,0 -4,0 -5,4 -4,8 0,2 0,6 -3,8 -3,3 -7,2 -10,3 -3,0 -3,-4 -1,-4 4,-1 9,0 10,-4 0,-3 -1,-6 0,-9 3,-6 8,-5 13,-5 2,0 3,-1 4,-1 3,-1 3,-4 4,-6 1,-3 3,-6 7,-6 1,0 3,0 4,1 2,0 4,1 6,0 4,-1 7,-5 9,-8 2,-2 5,0 3,2z"/>
  <path class="fil3" d="M132 527c3,6 7,13 2,20 -1,1 -2,2 -2,4 -1,2 3,5 4,6 3,2 4,5 3,9 0,2 -1,5 -2,7 -2,4 2,6 5,7 3,1 6,2 7,5 1,4 0,7 -1,11 -1,3 -4,2 -4,-1 1,-3 4,-8 0,-10 -3,-2 -6,-1 -8,-4 -5,-4 -3,-8 -1,-14 0,-1 1,-2 1,-4 0,-2 -3,-4 -5,-5 -2,-2 -4,-5 -3,-9 0,-1 1,-2 2,-3 2,-2 3,-4 3,-6 0,-4 -3,-8 -5,-11 -1,-2 2,-4 4,-2z"/>
  <path class="fil2" d="M588 429c-5,7 -12,13 -18,17 -3,-5 -5,-8 -4,-8 4,-3 12,-10 16,-14l6 5z"/>
  <path class="fil2" d="M179 802c-12,-4 -24,-11 -34,-19 2,-3 6,-6 7,-9 11,3 19,13 30,16l-3 12z"/>
  <path class="fil3" d="M659 690c2,-14 9,-29 17,-40 4,1 8,5 12,7 -3,12 -14,23 -16,36l-13 -3z"/>
  <path class="fil2" d="M249 344c-9,-3 -20,-7 -29,-10 1,-3 3,-6 4,-10 8,1 17,6 26,10l-1 10z"/>
  <path class="fil2" d="M615 600c4,-1 9,3 6,8 -4,7 -13,-3 -8,-7 0,0 1,-1 2,-1z"/>
  <path class="fil4" d="M347 458c27,-4 84,6 84,6l-48 51 -36 -57z"/>
  <path class="fil5" d="M350 620c-1,1 -2,3 -4,3 -2,0 -5,-2 -5,-4l0 -2c-3,0 -7,1 -10,13 0,2 -3,4 -5,3 -1,0 -2,-2 -2,-3l0 0c-1,1 -3,1 -4,1 -1,-1 -3,-2 -3,-4 0,0 0,0 0,0 0,0 -1,0 -2,0 -1,-1 -2,-2 -2,-3 -1,-1 -1,-1 0,-2l0 0 0 0c-2,-1 -3,-2 -3,-3 0,-1 0,-1 0,-2 1,-3 2,-6 3,-9l0 0 0 0c0,-1 1,-2 2,-3 3,-5 9,-13 17,-18l21 19 -3 14z"/>
  <polygon class="fil6" points="332,587 396,495 421,517 353,606 "/>
  <path class="fil7" d="M396 495l19 -27c6,-8 17,-10 25,-4 8,6 9,17 3,25l-22 28 -25 -22z"/>
  <path class="fil8" d="M300 885l0 22 -73 0c0,-6 5,-12 11,-13l28 -9 34 0z"/>
  <polygon class="fil4" points="227,911 300,911 300,907 227,907 "/>
  <path class="fil8" d="M388 885l0 22 73 0c0,-6 -4,-12 -10,-13l-28 -9 -35 0z"/>
  <polygon class="fil4" points="461,911 388,911 388,907 461,907 "/>
  <polygon class="fil4" points="318,564 383,887 426,885 377,573 "/>
  <polygon class="fil9" points="343,694 352,653 363,785 "/>
  <polygon class="fil4" points="296,562 259,885 305,889 368,573 "/>
  <path class="fil10" d="M350 414c0,5 3,9 8,9 5,0 10,-4 10,-9 0,-5 -4,-9 -9,-9 -5,0 -9,4 -9,9z"/>
  <path class="fil6" d="M348 428l-1 32c0,9 -6,9 -15,9 -8,0 -14,-3 -15,-10l-1 -35 32 4z"/>
  <polygon class="fil10" points="347,454 324,435 348,435 "/>
  <path class="fil6" d="M332 440l13 0c9,1 17,-7 17,-16l0 -24c0,-12 -9,-21 -21,-22 -12,0 -25,9 -25,21l0 25c1,9 8,16 16,16z"/>
  <path class="fil8" d="M319 413c0,0 17,2 8,-17 0,0 4,-7 16,-4 12,4 23,3 25,-6 1,-10 -8,-22 -30,-14 0,0 -8,3 -14,7 -6,5 -15,5 -16,14 -1,9 4,24 11,20z"/>
  <path class="fil6" d="M305 414c0,5 3,9 8,9 5,0 10,-3 10,-8 0,-5 -4,-10 -9,-10 -5,0 -9,4 -9,9z"/>
  <path class="fil8" d="M317 417l0 0c0,0 0,-2 0,-3 -1,-1 -1,-2 -2,-2 -1,-1 -2,-1 -3,-1 -1,0 -1,0 -1,0 -1,0 -1,0 -1,0 0,1 0,1 1,1 0,0 0,0 1,0 1,0 2,0 2,1 1,0 2,1 2,2 0,1 0,2 0,2l0 0c0,0 0,1 1,1 0,0 0,-1 0,-1z"/>
  <path class="fil8" d="M350 416l1 4 -3 0c0,0 0,1 0,1 0,0 0,1 0,1l4 0c0,0 0,0 0,-1 0,0 0,0 0,0l-1 -5c0,0 0,0 0,0 -1,0 -1,0 -1,0z"/>
  <path class="fil8" d="M354 413c0,1 1,2 2,2 1,0 2,-1 2,-2 0,-1 -1,-2 -2,-2 -1,0 -2,1 -2,2z"/>
  <path class="fil8" d="M339 412c0,1 1,2 2,2 1,0 2,-1 2,-2 0,-1 -1,-2 -2,-2 -1,0 -2,1 -2,2z"/>
  <path class="fil8" d="M340 401c0,0 5,-1 5,2 0,0 0,2 -4,2 -5,1 -6,0 -6,-1 -1,-2 3,-3 5,-3z"/>
  <path class="fil8" d="M358 401c0,0 -4,0 -5,2 0,0 0,2 3,2 4,1 5,0 6,-1 0,-2 -3,-2 -4,-3z"/>
  <path class="fil11" d="M353 425l-12 0c0,0 1,5 7,4 5,0 5,-4 5,-4z"/>
  <path class="fil6" d="M173 364c-1,-2 -3,-3 -6,-2 -2,0 -4,3 -4,6l1 2c-3,1 -9,0 -15,-13 -1,-2 -4,-3 -6,-2 -2,1 -3,3 -2,5l0 0c-2,-1 -3,-1 -5,0 -1,1 -2,2 -2,4 0,0 0,1 0,1 0,0 -1,0 -2,0 -2,1 -2,3 -2,5 0,0 0,1 0,1l0 1 0 0c-1,0 -2,2 -2,4 0,1 0,1 0,1 2,4 4,7 6,9l0 0 0 1c1,1 2,2 3,3 4,4 14,13 24,16l18 -27 -6 -15z"/>
  <polygon class="fil4" points="157,410 289,508 312,466 179,379 "/>
  <path class="fil4" d="M286 451c-3,-1 -15,10 -15,10l11 85 -3 83 108 -8 -7 -146c-1,-8 -3,-16 -11,-17 0,0 -2,0 -19,-1 -2,0 -13,6 -14,6 -2,0 -16,-8 -18,-8 -13,-2 -18,-3 -32,-4z"/>
  <polygon class="fil11" points="311,454 345,531 352,457 347,458 336,463 320,454 "/>
  <polygon class="fil11" points="324,464 334,476 345,465 336,461 "/>
  <polygon class="fil11" points="317,453 336,461 327,475 311,454 "/>
  <polygon class="fil11" points="336,461 344,474 352,457 347,456 "/>
  <path class="fil4" d="M339 466c0,2 -2,3 -3,3 -2,0 -3,-1 -4,-3 0,-2 2,-3 4,-3 1,0 3,1 3,3z"/>
  <path class="fil4" d="M333 464l-10 -5c0,0 -3,7 0,17l11 -8 -1 -4z"/>
  <path class="fil4" d="M338 464l10 -6c0,0 3,7 0,17l-11 -7 1 -4z"/>
  <polygon class="fil12" points="308,454 299,475 314,483 307,498 344,531 353,625 355,624 346,530 309,497 317,483 302,474 310,455 "/>
  <polygon class="fil12" points="289,629 388,622 387,620 289,627 "/>
  <polygon class="fil12" points="354,458 366,471 355,480 365,493 344,530 346,531 367,493 358,480 369,471 355,457 "/>
  <path class="fil6" d="M473 769l98 -5 1 -19 -99 -5c-9,0 -15,7 -15,15l0 0c0,8 7,15 15,14z"/>
  <path class="fil8" d="M570 744l30 0 -1 13 -9 3 8 10 -2 32c0,0 -10,-2 -10,-22l-17 -15 1 -21z"/>
  <path class="fil6" d="M449 641l7 120c0,8 7,15 16,15l0 0c9,-1 15,-7 16,-16l4 -118 -43 -1z"/>
  <polygon class="fil6" points="409,643 418,888 437,886 452,642 "/>
  <path class="fil8" d="M438 882l2 29 -13 0 -3 -8 -10 8 -32 0c0,0 1,-10 22,-12l14 -17 20 0z"/>
  <path class="fil7" d="M480 562c0,0 27,6 93,148 0,0 -44,120 -210,66 0,0 42,-174 66,-218l51 4z"/>
  <polygon class="fil3" points="483,564 427,564 427,558 483,558 "/>
  <path class="fil7" d="M481 558l28 -57c3,-7 0,-25 -7,-26l-68 -14c-8,-2 -15,5 -14,13l8 84 53 0z"/>
  <path class="fil13" d="M425 519l0 0c0,0 -2,-1 -4,-4 -2,-2 -4,-6 -4,-13 0,-5 1,-12 5,-20l-2 -1c-4,8 -5,16 -5,21 0,7 2,12 4,15 3,3 5,4 5,4l1 -2z"/>
  <path class="fil7" d="M521 523l-3 -32c-1,-10 -10,-17 -20,-16 -9,2 -16,11 -15,20l6 36 32 -8z"/>
  <polygon class="fil13" points="490,531 486,503 484,503 488,531 "/>
  <polygon class="fil13" points="490,531 486,503 484,503 488,531 "/>
  <path class="fil6" d="M465 623c-2,1 -2,3 -2,5 1,2 3,3 5,2l2 -1c1,2 1,7 -8,15 -1,2 -2,4 -1,6 1,1 3,1 4,0l0 0c0,1 0,3 0,4 1,1 3,1 4,1l0 -1c0,1 1,1 1,2 1,1 2,1 3,1 1,0 1,-1 1,-1l1 0 0 0c1,1 2,1 3,1 1,0 1,-1 1,-1 3,-2 5,-5 6,-7l0 0 0 0c1,-1 2,-2 2,-3 3,-5 8,-13 10,-23l-22 -9 -10 9z"/>
  <path class="fil6" d="M525 565l-4 -42 -32 8 7 38c1,8 9,13 16,12 8,-1 14,-8 13,-16z"/>
  <path class="fil6" d="M497 623l27 -49c3,-7 1,-16 -7,-20 -7,-4 -16,0 -19,7l-23 53 22 9z"/>
  <path class="fil3" d="M463 662c0,0 6,22 18,30l6 -3c0,0 -21,-23 -22,-30l-2 3z"/>
  <path class="fil3" d="M459 659l-3 -4c-1,0 -13,37 7,58l11 -7c0,0 -19,-25 -15,-47z"/>
  <path class="fil11" d="M497 622c8,-6 -8,-8 -12,-7 2,-1 1,-7 0,-8 -3,-3 -8,0 -11,1 2,-4 2,-8 -3,-8 -5,0 -8,5 -11,9 1,-3 0,-8 -5,-8 -5,1 -5,8 -4,12 -1,-4 -3,-8 -7,-5 -4,2 -2,9 -1,12 -2,-1 -7,-3 -10,-1 -2,3 1,7 2,9 -4,4 -7,10 0,12 -2,2 -4,6 -2,9 4,3 9,0 12,0 -3,2 -6,9 0,11 4,1 9,-1 12,-3 -2,3 -3,9 1,10 4,0 7,-4 9,-6 -1,3 -1,9 3,9 4,1 7,-6 8,-9 7,7 10,-2 12,-8 1,5 7,3 9,-1 3,-5 -1,-12 -3,-17 3,2 6,1 7,-3 0,-4 -3,-8 -6,-10z"/>
  <path class="fil10" d="M455 424c0,4 -5,8 -10,7 -4,-1 -8,-5 -7,-10 1,-5 5,-8 10,-7 5,0 8,5 7,10z"/>
  <path class="fil11" d="M444 429c0,1 -1,3 -3,3 -1,0 -2,-2 -2,-3 0,-2 1,-3 2,-3 2,0 3,1 3,3z"/>
  <path class="fil8" d="M481 394c-3,10 1,20 11,23 9,4 19,-1 23,-11 3,-9 -2,-19 -11,-22 -10,-4 -20,1 -23,10z"/>
  <path class="fil14" d="M500 416c0,0 7,-21 -19,-26l19 26z"/>
  <path class="fil15" d="M492 399c0,0 13,-6 -1,-8 0,0 1,-16 -7,-2 0,0 -8,-12 -8,2l16 8z"/>
  <path class="fil8" d="M475 395c-1,-2 1,-5 1,-5 11,2 20,8 23,19 4,16 -6,37 -26,39 -19,3 3,-51 3,-51l-1 -2z"/>
  <path class="fil6" d="M453 448l-4 19c-1,6 3,10 9,11 6,1 12,-1 13,-6l4 -30 -22 6z"/>
  <path class="fil6" d="M445 463l38 8c0,0 -9,18 -32,12 -17,-4 -6,-20 -6,-20z"/>
  <polygon class="fil10" points="450,463 476,447 453,446 "/>
  <path class="fil6" d="M457 452l0 0c-11,-3 -18,-13 -16,-22l4 -22c2,-11 13,-19 24,-17 9,1 22,17 20,25l-3 17c-3,13 -15,21 -29,19z"/>
  <polygon class="fil16" points="477,390 476,390 "/>
  <path class="fil8" d="M448 401c7,-17 28,-11 28,-11l2 5c3,-3 -1,-5 -1,-5 20,7 18,17 14,23 3,3 6,5 6,5l-16 13c0,0 -1,-2 0,-11 0,0 -6,-9 -5,-16 -23,2 -28,-3 -28,-3z"/>
  <path class="fil8" d="M453 426l-1 4 -1 0 1 1 3 0c0,0 0,0 1,0 0,0 -1,-1 -1,-1l-2 0 1 -3c1,0 0,-1 0,-1 0,0 -1,0 -1,0z"/>
  <path class="fil8" d="M469 415c0,0 -4,-1 -5,1 0,0 0,1 4,2 4,1 5,1 6,0 0,-1 -2,-2 -5,-3z"/>
  <path class="fil8" d="M450 412c0,0 4,0 4,2 0,0 0,1 -4,1 -3,-1 -4,-2 -4,-3 0,-1 2,-1 4,0z"/>
  <path class="fil8" d="M451 422c0,1 -1,2 -2,2 -2,-1 -2,-2 -2,-3 0,-1 1,-2 2,-1 1,0 2,1 2,2z"/>
  <path class="fil8" d="M468 425c-1,1 -2,2 -3,2 -1,0 -2,-2 -1,-3 0,-1 1,-1 2,-1 1,0 2,1 2,2z"/>
  <path class="fil11" d="M450 433l12 3c0,0 -2,5 -8,3 -4,-2 -4,-6 -4,-6z"/>
  <path class="fil6" d="M497 433c-1,5 -5,8 -10,7 -5,-1 -8,-5 -8,-10 1,-5 6,-8 10,-7 5,1 9,5 8,10z"/>
  <path class="fil8" d="M485 434l0 0c0,-1 1,-2 1,-3 1,-1 2,-1 3,-1 1,0 2,0 2,0 1,0 1,0 1,-1 0,0 0,0 0,0 -1,-1 -2,-1 -3,-1 -2,0 -3,2 -4,3 -1,1 -1,2 -1,3 0,0 0,0 1,0 0,0 0,0 0,0z"/>
  <path class="fil11" d="M487 439c0,2 -2,3 -3,3 -2,0 -3,-1 -3,-3 0,-1 1,-3 3,-3 1,0 3,2 3,3z"/>
  <path class="fil3" d="M36 914l763 0c1,0 1,-1 1,-2 0,0 0,-1 -1,-1l-763 0c0,0 -1,1 -1,1 0,1 1,2 1,2z"/>
  <path class="fil3" d="M519 937l130 0c1,0 1,0 1,-1 0,-1 0,-1 -1,-1l-130 0c-1,0 -1,0 -1,1 0,1 0,1 1,1z"/>
  <path class="fil3" d="M362 937l4 0 41 0c0,0 1,0 1,-1 0,-1 -1,-1 -1,-1l-41 0 -4 0 -31 0 -10 0 -35 0c-1,0 -1,0 -1,1 0,1 0,1 1,1l35 0 10 0 31 0z"/>
  <g id="_2032447779296">
   <path class="fil3" d="M966 472l0 0 0 0 0 45 -27 0 0 -45 0 0 0 0c1,-6 6,-10 13,-10l0 0c7,0 13,4 14,10z"/>
   <path class="fil3" d="M952 429c8,0 13,6 13,13 0,7 -5,13 -13,13 -7,0 -13,-6 -13,-13 0,-7 6,-13 13,-13z"/>
   <path class="fil17" d="M856 517c-13,0 -24,-5 -33,-14 -10,-10 -14,-21 -14,-34l0 -84 18 0 0 46c9,-7 18,-10 29,-10 1,0 1,0 1,0 0,0 0,0 1,0 0,0 0,0 0,0 0,0 1,0 1,0 0,0 0,0 0,0 1,0 1,0 1,0 0,0 0,0 1,0 0,0 0,0 0,0l0 0c0,0 1,0 1,0 0,0 0,0 0,0 1,0 1,0 1,1 0,0 0,0 1,0 0,0 0,0 0,0 0,0 1,0 1,0l0 0c0,0 0,0 0,0l0 0c1,0 1,0 1,0l0 0c0,0 0,0 1,0l0 0c0,0 0,0 0,0l0 0c0,0 0,0 1,0l0 0c0,0 0,0 0,0l0 0c0,1 1,1 1,1l0 0c0,0 0,0 0,0l0 0c1,0 1,0 1,0l0 0c0,0 0,0 0,0l0 0c1,0 1,0 1,0l0 0c0,0 0,0 1,0l0 0c6,3 13,7 18,12 9,9 13,19 14,31l0 0c0,0 0,0 0,0l0 0c0,1 0,1 0,1l0 0c0,0 0,0 0,1 0,0 0,0 0,0l0 0c0,1 0,1 0,1 0,0 0,0 0,1l0 0c0,0 0,0 0,0 0,0 0,1 0,1l0 0c0,0 0,0 0,0l0 0c0,1 0,1 0,1l0 0c-1,12 -5,22 -14,31 -6,6 -12,10 -20,12l0 0c0,0 0,0 0,0l0 0c0,0 0,0 -1,0l0 0c0,0 0,0 0,0l0 0c0,0 -1,0 -1,0l0 0c0,0 0,0 0,1l0 0c-1,0 -1,0 -1,0l0 0c0,0 0,0 0,0l0 0c-1,0 -1,0 -1,0l0 0c0,0 0,0 -1,0l0 0c0,0 0,0 0,0l0 0c0,0 -1,0 -1,0 0,0 0,0 0,0 -1,0 -1,0 -1,0 0,0 0,0 -1,0 0,0 0,0 0,0 0,0 -1,1 -1,1l0 0c0,0 0,0 0,0 -1,0 -1,0 -1,0 0,0 0,0 -1,0 0,0 0,0 0,0 0,0 -1,0 -1,0 0,0 0,0 0,0 -1,0 -1,0 -1,0 0,0 0,0 -1,0zm0 -78c-8,0 -15,3 -21,9 -6,6 -9,13 -9,21 0,8 3,15 9,21 6,6 13,9 21,9 9,0 16,-3 22,-9 5,-6 8,-13 8,-21 0,-8 -3,-15 -8,-21 -6,-6 -13,-9 -22,-9z"/>
   <path class="fil17" d="M856 439c17,0 31,13 31,30 0,17 -14,30 -31,30 -16,0 -30,-13 -30,-30 0,-17 14,-30 30,-30zm0 0c-8,0 -15,3 -21,9 -6,6 -9,13 -9,21 0,8 3,15 9,21 6,6 13,9 21,9 9,0 16,-3 22,-9 5,-6 8,-13 8,-21 0,-8 -3,-15 -8,-21 -6,-6 -13,-9 -22,-9z"/>
   <polygon class="fil17" points="930,385 930,517 913,517 913,385 "/>
   <path class="fil3" d="M1001 472l0 0 0 0 0 45 -27 0 0 -45 0 0 0 0c1,-6 7,-10 14,-10l0 0c7,0 12,4 13,10z"/>
   <path class="fil3" d="M988 429c7,0 13,6 13,13 0,7 -6,13 -13,13 -8,0 -13,-6 -13,-13 0,-7 5,-13 13,-13z"/>
   <path class="fil3" d="M975 442l25 0c0,0 1,0 1,0l0 9c0,0 -1,1 -1,1l-25 0c0,0 0,-1 0,-1l0 -9c0,0 0,0 0,0z"/>
   <path class="fil17" d="M1025 491c0,2 1,4 2,5 2,2 5,3 7,3 3,0 6,-1 8,-3 2,-2 3,-4 3,-7 0,-3 -1,-5 -3,-7 -2,-2 -5,-4 -9,-7 -6,-3 -11,-6 -13,-9 -5,-5 -7,-10 -7,-17 0,-6 2,-12 7,-16 4,-5 10,-7 16,-7 7,0 12,2 16,6 3,3 5,7 6,11l-17 5c0,-2 0,-3 -1,-3 -1,-1 -2,-2 -4,-2 -2,0 -3,1 -4,2 -1,1 -2,3 -2,4 0,2 1,4 2,5 1,1 3,2 7,5 7,4 12,7 15,10 6,6 8,12 8,20 0,8 -2,14 -8,20 -5,5 -12,8 -20,8 -7,0 -14,-3 -19,-8 -4,-4 -6,-9 -8,-14l18 -4z"/>
  </g>
  <path class="fil17" d="M856 517c-13,0 -24,-5 -33,-14 -10,-10 -14,-21 -14,-34l0 -84 18 0 0 46c9,-7 18,-10 29,-10 1,0 1,0 1,0 0,0 0,0 1,0 0,0 0,0 0,0 0,0 1,0 1,0 0,0 0,0 0,0 1,0 1,0 1,0 0,0 0,0 1,0 0,0 0,0 0,0l0 0c0,0 1,0 1,0 0,0 0,0 0,0 1,0 1,0 1,1 0,0 0,0 1,0 0,0 0,0 0,0 0,0 1,0 1,0l0 0c0,0 0,0 0,0l0 0c1,0 1,0 1,0l0 0c0,0 0,0 1,0l0 0c0,0 0,0 0,0l0 0c0,0 0,0 1,0l0 0c0,0 0,0 0,0l0 0c0,1 1,1 1,1l0 0c0,0 0,0 0,0l0 0c1,0 1,0 1,0l0 0c0,0 0,0 0,0l0 0c1,0 1,0 1,0l0 0c0,0 0,0 1,0l0 0c6,3 13,7 18,12 9,9 13,19 14,31l0 0c0,0 0,0 0,0l0 0c0,1 0,1 0,1l0 0c0,0 0,0 0,1 0,0 0,0 0,0l0 0c0,1 0,1 0,1 0,0 0,0 0,1l0 0c0,0 0,0 0,0 0,0 0,1 0,1l0 0c0,0 0,0 0,0l0 0c0,1 0,1 0,1l0 0c-1,12 -5,22 -14,31 -6,6 -12,10 -20,12l0 0c0,0 0,0 0,0l0 0c0,0 0,0 -1,0l0 0c0,0 0,0 0,0l0 0c0,0 -1,0 -1,0l0 0c0,0 0,0 0,1l0 0c-1,0 -1,0 -1,0l0 0c0,0 0,0 0,0l0 0c-1,0 -1,0 -1,0l0 0c0,0 0,0 -1,0l0 0c0,0 0,0 0,0l0 0c0,0 -1,0 -1,0 0,0 0,0 0,0 -1,0 -1,0 -1,0 0,0 0,0 -1,0 0,0 0,0 0,0 0,0 -1,1 -1,1l0 0c0,0 0,0 0,0 -1,0 -1,0 -1,0 0,0 0,0 -1,0 0,0 0,0 0,0 0,0 -1,0 -1,0 0,0 0,0 0,0 -1,0 -1,0 -1,0 0,0 0,0 -1,0zm0 -78c-8,0 -15,3 -21,9 -6,6 -9,13 -9,21 0,8 3,15 9,21 6,6 13,9 21,9 9,0 16,-3 22,-9 5,-6 8,-13 8,-21 0,-8 -3,-15 -8,-21 -6,-6 -13,-9 -22,-9z"/>
  <path class="fil17" d="M856 439c17,0 31,13 31,30 0,17 -14,30 -31,30 -16,0 -30,-13 -30,-30 0,-17 14,-30 30,-30zm0 0c-8,0 -15,3 -21,9 -6,6 -9,13 -9,21 0,8 3,15 9,21 6,6 13,9 21,9 9,0 16,-3 22,-9 5,-6 8,-13 8,-21 0,-8 -3,-15 -8,-21 -6,-6 -13,-9 -22,-9z"/>
  <polygon class="fil17" points="930,385 930,517 913,517 913,385 "/>
  <path class="fil17" d="M1025 491c0,2 1,4 2,5 2,2 5,3 7,3 3,0 6,-1 8,-3 2,-2 3,-4 3,-7 0,-3 -1,-5 -3,-7 -2,-2 -5,-4 -9,-7 -6,-3 -11,-6 -13,-9 -5,-5 -7,-10 -7,-17 0,-6 2,-12 7,-16 4,-5 10,-7 16,-7 7,0 12,2 16,6 3,3 5,7 6,11l-17 5c0,-2 0,-3 -1,-3 -1,-1 -2,-2 -4,-2 -2,0 -3,1 -4,2 -1,1 -2,3 -2,4 0,2 1,4 2,5 1,1 3,2 7,5 7,4 12,7 15,10 6,6 8,12 8,20 0,8 -2,14 -8,20 -5,5 -12,8 -20,8 -7,0 -14,-3 -19,-8 -4,-4 -6,-9 -8,-14l18 -4z"/>
  <path class="fil18" d="M824 595l0 8 -6 0 0 -8 -9 -16 6 0 6 11 7 -11 5 0 -9 16zm23 9c-3,0 -5,-1 -7,-2 -2,-1 -4,-2 -5,-4 -1,-2 -2,-4 -2,-7 0,-2 1,-4 2,-6 1,-2 3,-4 5,-5 2,-1 4,-2 7,-2 2,0 5,1 7,2 2,1 3,3 4,5 2,2 2,4 2,6 0,3 0,5 -2,7 -1,2 -2,3 -4,4 -2,1 -5,2 -7,2zm0 -5c1,0 2,0 4,-1 1,-1 2,-2 2,-3 1,-1 1,-2 1,-4 0,-1 0,-3 -1,-4 0,-1 -1,-2 -2,-3 -2,0 -3,-1 -4,-1 -2,0 -3,1 -4,1 -1,1 -2,2 -3,3 -1,1 -1,3 -1,4 0,2 0,3 1,4 1,1 2,2 3,3 1,1 2,1 4,1zm28 5c-3,0 -6,-1 -8,-3 -2,-2 -3,-5 -3,-8l0 -14 6 0 0 13c0,5 2,7 5,7 2,0 4,-1 5,-2 0,-1 1,-2 1,-5l0 -13 6 0 0 14c0,3 -1,6 -3,8 -2,2 -5,3 -9,3zm33 -1l-5 -6 0 0 -5 0 0 6 -6 0 0 -24 11 0c2,0 4,0 6,1 1,1 2,2 3,3 1,1 2,3 2,5 0,2 -1,3 -2,4 -1,2 -2,3 -4,4l6 7 -6 0zm0 -15c0,-2 -1,-3 -2,-3 0,-1 -2,-2 -3,-2l-5 0 0 9 5 0c1,0 3,0 3,-1 1,-1 2,-2 2,-3zm20 -9l11 0c3,0 5,0 7,1 2,1 4,3 5,5 1,2 2,4 2,6 0,3 -1,5 -2,7 -1,1 -3,3 -5,4 -2,1 -4,1 -7,1l-11 0 0 -24zm11 20c2,0 4,-1 6,-2 1,-2 2,-4 2,-6 0,-2 -1,-4 -2,-5 -2,-2 -4,-3 -6,-3l-5 0 0 16 5 0zm18 -20l6 0 0 24 -6 0 0 -24zm28 12l5 0 0 10c-1,1 -2,2 -4,2 -2,1 -4,1 -6,1 -2,0 -4,-1 -6,-2 -2,-1 -4,-2 -5,-4 -1,-2 -2,-4 -2,-7 0,-2 1,-5 2,-6 1,-2 3,-4 5,-5 2,-1 4,-2 7,-2 2,0 4,1 5,1 2,1 4,2 5,4l-4 3c-2,-2 -4,-3 -6,-3 -2,0 -3,1 -4,1 -2,1 -3,2 -3,3 -1,1 -1,3 -1,4 0,2 0,3 1,4 0,1 1,2 3,3 1,1 2,1 4,1 1,0 3,0 4,-1l0 -7zm11 -12l5 0 0 24 -5 0 0 -24zm16 4l-8 0 0 -4 22 0 0 4 -8 0 0 20 -6 0 0 -20zm32 15l-12 0 -2 5 -6 0 11 -24 6 0 11 24 -6 0 -2 -5zm-2 -4l-4 -10 -4 10 8 0zm13 -15l5 0 0 20 13 0 0 4 -18 0 0 -24zm-206 48l-8 25 -6 0 -5 -17 -6 17 -6 0 -8 -25 6 0 5 18 6 -18 5 0 6 18 6 -18 5 0zm22 20l0 5 -19 0 0 -25 19 0 0 5 -13 0 0 5 12 0 0 5 -12 0 0 5 13 0zm5 -20l11 0c3,0 5,1 7,2 2,1 4,2 5,4 1,2 2,4 2,7 0,2 -1,4 -2,6 -1,2 -3,3 -5,4 -2,1 -4,2 -7,2l-11 0 0 -25zm11 20c2,0 4,0 6,-2 1,-1 2,-3 2,-5 0,-3 -1,-5 -2,-6 -2,-1 -4,-2 -6,-2l-5 0 0 15 5 0zm18 -20l11 0c3,0 5,1 7,2 2,1 4,2 5,4 1,2 2,4 2,7 0,2 -1,4 -2,6 -1,2 -3,3 -5,4 -2,1 -4,2 -7,2l-11 0 0 -25zm11 20c2,0 4,0 6,-2 1,-1 2,-3 2,-5 0,-3 -1,-5 -2,-6 -2,-1 -4,-2 -6,-2l-5 0 0 15 5 0zm18 -20l6 0 0 25 -6 0 0 -25zm34 0l0 25 -4 0 -13 -15 0 15 -5 0 0 -25 4 0 13 15 0 -15 5 0zm23 12l5 0 0 10c-1,1 -3,2 -5,3 -1,0 -3,0 -5,0 -3,0 -5,0 -7,-1 -2,-1 -4,-3 -5,-5 -1,-2 -1,-4 -1,-6 0,-3 0,-5 1,-7 1,-2 3,-3 5,-4 2,-2 4,-2 7,-2 2,0 4,0 6,1 2,1 3,2 4,3l-3 4c-2,-2 -4,-3 -7,-3 -1,0 -3,0 -4,1 -1,0 -2,1 -3,2 0,2 -1,3 -1,5 0,1 1,2 1,4 1,1 2,2 3,2 1,1 3,1 4,1 2,0 3,0 5,-1l0 -7zm20 -12l6 0 0 25 -6 0 0 -25zm34 0l0 25 -4 0 -13 -15 0 15 -5 0 0 -25 4 0 13 15 0 -15 5 0zm30 0l-11 25 -6 0 -10 -25 6 0 7 18 8 -18 6 0zm2 0l5 0 0 25 -5 0 0 -25zm16 5l-8 0 0 -5 22 0 0 5 -8 0 0 20 -6 0 0 -20zm32 15l-12 0 -2 5 -6 0 11 -25 6 0 11 25 -6 0 -2 -5zm-2 -5l-4 -9 -4 9 8 0zm16 -10l-7 0 0 -5 21 0 0 5 -8 0 0 20 -6 0 0 -20zm17 -5l6 0 0 25 -6 0 0 -25zm24 25c-3,0 -5,0 -7,-1 -2,-1 -4,-3 -5,-5 -1,-2 -2,-4 -2,-6 0,-3 1,-5 2,-7 1,-2 3,-3 5,-4 2,-2 4,-2 7,-2 2,0 4,0 6,2 3,1 4,2 5,4 1,2 2,4 2,7 0,2 -1,4 -2,6 -1,2 -2,4 -5,5 -2,1 -4,1 -6,1zm0 -5c1,0 2,0 4,-1 1,0 2,-1 2,-2 1,-2 1,-3 1,-4 0,-2 0,-3 -1,-4 0,-2 -1,-3 -2,-3 -2,-1 -3,-1 -4,-1 -2,0 -3,0 -4,1 -2,0 -2,1 -3,3 -1,1 -1,2 -1,4 0,1 0,2 1,4 1,1 1,2 3,2 1,1 2,1 4,1zm40 -20l0 25 -5 0 -12 -15 0 15 -6 0 0 -25 5 0 12 15 0 -15 6 0z"/>
  <g id="_2032447784448">
   <path class="fil18" d="M812 686c0,0 1,-1 1,-2 1,0 1,-1 2,-1 1,0 2,0 3,0 1,0 1,0 2,0 1,0 1,0 2,0l0 -1c0,-1 0,-2 -1,-3 -1,-1 -2,-1 -3,-1 -1,0 -1,0 -2,0 -1,1 -1,1 -2,2l-1 -1c1,-1 2,-1 3,-2 1,0 1,0 2,0 2,0 3,0 4,1 1,1 1,3 1,4l0 7c0,0 0,0 0,0 0,0 0,0 1,0l0 1c0,0 -1,0 -1,0 0,0 0,0 0,0 0,0 -1,0 -1,0 0,0 0,-1 0,-1l0 -1c-1,1 -1,1 -2,2 -1,0 -2,0 -3,0 -1,0 -2,0 -2,0 -1,0 -2,-1 -2,-2 0,0 -1,-1 -1,-2zm9 1c1,0 1,0 1,0 0,0 0,-1 0,-1l0 -2c-1,0 -1,0 -2,0 -1,0 -1,-1 -2,-1 -1,0 -2,1 -3,1 -1,1 -1,1 -1,2 0,1 0,1 0,2 0,0 1,1 1,1 1,0 1,0 2,0 1,0 2,0 3,0 0,0 1,-1 1,-2zm6 3l0 -12 -1 0 0 -1 1 0 0 0c0,-1 1,-2 1,-3 0,-1 1,-1 1,-2 1,0 1,0 2,0 1,0 1,0 1,0 1,0 1,0 2,1l-1 0c0,0 0,0 -1,0 0,0 0,0 -1,0 -1,0 -1,0 -2,1 0,0 0,1 0,3l0 0 3 0 0 1 -3 0 0 12 -2 0zm13 0c-1,0 -2,0 -3,0 -1,0 -1,-1 -2,-2 0,0 -1,-1 -1,-2 -1,-1 -1,-1 -1,-2 0,-1 0,-2 1,-3 0,-1 1,-1 1,-2 1,-1 1,-1 2,-1 1,-1 2,-1 3,-1 1,0 1,0 2,1 1,0 2,0 2,1 1,1 1,1 2,2 0,1 0,2 0,3 0,1 0,1 0,2 -1,1 -1,2 -2,2 0,1 -1,2 -2,2 -1,0 -1,0 -2,0zm-5 -6c0,1 0,2 0,3 1,0 1,1 2,2 1,0 2,0 3,0 1,0 1,0 2,0 1,-1 2,-2 2,-3 1,0 1,-1 1,-2 0,-1 0,-2 -1,-3 0,-1 -1,-2 -2,-2 -1,-1 -1,-1 -2,-1 -1,0 -2,0 -3,1 -1,0 -1,1 -2,2 0,1 0,2 0,3zm20 -6c-1,0 -2,1 -3,1 -1,1 -1,2 -2,3l0 8 -1 0 0 -13 1 0 0 3c1,-1 1,-1 2,-2 1,0 2,-1 2,-1 1,0 1,0 1,0 0,0 0,0 0,0l0 1zm1 6c0,-1 0,-3 1,-4 0,-1 1,-1 2,-2 1,-1 2,-1 3,-1 1,0 2,0 3,1 1,0 2,1 2,2l0 -8 1 0 0 17c0,0 1,0 1,0 0,0 0,0 0,0l0 1c0,0 0,0 -1,0 0,0 0,0 0,0 -1,0 -1,-1 -1,-1l0 -1c0,0 -1,1 -2,2 -1,0 -2,0 -3,0 0,0 -1,0 -2,0 -1,-1 -1,-1 -2,-2 -1,0 -1,-1 -1,-2 -1,-1 -1,-1 -1,-2zm11 2l0 -4c0,-1 0,-2 -1,-2 0,-1 -1,-1 -2,-1 0,-1 -1,-1 -2,-1 0,0 -1,0 -2,1 0,0 -1,0 -1,1 -1,0 -1,1 -1,2 0,0 -1,1 -1,2 0,0 1,1 1,2 0,1 0,1 1,2 0,0 1,1 2,1 0,0 1,0 2,0 0,0 1,0 1,0 1,0 1,0 2,-1 0,0 0,0 1,-1 0,0 0,-1 0,-1zm4 0c0,0 1,-1 1,-2 1,0 1,-1 2,-1 1,0 2,0 3,0 0,0 1,0 2,0 1,0 1,0 2,0l0 -1c0,-1 -1,-2 -1,-3 -1,-1 -2,-1 -3,-1 -1,0 -1,0 -2,0 -1,1 -2,1 -2,2l-1 -1c1,-1 2,-1 3,-2 0,0 1,0 2,0 2,0 3,0 4,1 1,1 1,3 1,4l0 7c0,0 0,0 0,0 0,0 0,0 1,0l0 1c-1,0 -1,0 -1,0 0,0 0,0 0,0 0,0 -1,0 -1,0 0,0 0,-1 0,-1l0 -1c-1,1 -1,1 -2,2 -1,0 -2,0 -3,0 -1,0 -2,0 -3,0 0,0 -1,-1 -1,-2 0,0 -1,-1 -1,-2zm9 1c0,0 1,0 1,0 0,0 0,-1 0,-1l0 -2c-1,0 -1,0 -2,0 -1,0 -1,-1 -2,-1 -1,0 -2,1 -3,1 -1,1 -1,1 -1,2 0,1 0,1 0,2 0,0 1,1 1,1 1,0 1,0 2,0 1,0 2,0 3,0 0,0 1,-1 1,-2zm12 3c-1,0 -2,0 -3,0 -1,-1 -1,-2 -2,-2l0 2 -1 0 0 -18 1 0 0 8c1,-1 1,-2 2,-2 1,-1 2,-1 3,-1 1,0 2,0 3,1 0,0 1,0 2,1 0,1 0,1 1,2 0,1 0,2 0,3 0,1 0,1 0,2 -1,1 -1,2 -2,2 0,1 -1,2 -2,2 0,0 -1,0 -2,0zm0 -1c0,0 1,0 2,0 0,0 1,-1 1,-1 1,-1 1,-2 1,-2 1,-1 1,-2 1,-2 0,-1 0,-2 -1,-3 0,-1 -1,-2 -2,-2 0,-1 -1,-1 -2,-1 -1,0 -2,0 -2,1 -1,0 -1,0 -2,1 0,0 -1,1 -1,2l0 4c0,0 0,1 1,1 0,1 0,1 1,1 0,1 1,1 1,1 1,0 1,0 2,0zm9 -17l2 0 0 16c0,0 0,1 0,1 0,0 0,0 1,0 0,0 0,0 1,0 0,0 0,0 0,0l1 1c-1,0 -1,0 -1,0 -1,0 -1,0 -1,0 -1,0 -2,0 -2,0 -1,-1 -1,-1 -1,-2l0 -16zm12 18c-1,0 -2,0 -2,0 -1,0 -2,-1 -2,-2 -1,0 -1,-1 -2,-2 0,-1 0,-1 0,-2 0,-2 0,-3 1,-4 0,-1 1,-1 2,-2 1,-1 2,-1 3,-1 1,0 2,0 3,1 1,1 2,1 3,2 0,1 0,2 0,4 0,0 0,0 0,0 0,0 0,0 0,0l-11 0c0,1 0,2 1,3 0,1 1,1 2,2 0,0 1,0 2,0 1,0 2,0 3,0 1,-1 1,-1 1,-2l1 0c0,1 0,1 -1,2 0,0 -1,1 -2,1 0,0 -1,0 -2,0zm-5 -7l10 0c0,-1 0,-2 -1,-2 0,-1 -1,-2 -1,-2 -1,-1 -2,-1 -3,-1 -1,0 -2,0 -2,1 -1,0 -2,1 -2,2 -1,0 -1,1 -1,2zm15 9l0 -2 0 0 0 -2 1 0 0 2 -1 2 0 0zm17 -2c-1,0 -2,0 -2,0 -1,0 -2,-1 -3,-2 0,0 -1,-1 -1,-2 0,-1 0,-1 0,-2 0,-2 0,-3 0,-4 1,-1 2,-2 3,-2 1,-1 2,-1 3,-1 1,0 2,0 3,1 1,0 2,1 2,2l-1 0c0,0 -1,-1 -2,-1 0,-1 -1,-1 -2,-1 -1,0 -2,0 -3,1 0,0 -1,1 -1,2 -1,1 -1,2 -1,3 0,1 0,2 1,2 0,1 1,2 1,3 1,0 2,0 3,0 1,0 1,0 2,0 0,0 1,-1 1,-1 1,0 1,-1 1,-1l1 0c0,1 0,1 -1,2 0,0 -1,1 -2,1 0,0 -1,0 -2,0zm13 0c0,0 -1,0 -2,0 -1,0 -2,-1 -2,-2 -1,0 -1,-1 -1,-2 -1,-1 -1,-1 -1,-2 0,-1 0,-2 1,-3 0,-1 0,-1 1,-2 0,-1 1,-1 2,-1 1,-1 2,-1 2,-1 1,0 2,0 3,1 1,0 1,0 2,1 1,1 1,1 1,2 1,1 1,2 1,3 0,1 0,1 -1,2 0,1 0,2 -1,2 -1,1 -1,2 -2,2 -1,0 -2,0 -3,0zm-5 -6c0,1 1,2 1,3 0,0 1,1 2,2 1,0 1,0 2,0 1,0 2,0 3,0 1,-1 1,-2 2,-3 0,0 1,-1 1,-2 0,-1 -1,-2 -1,-3 -1,-1 -1,-2 -2,-2 -1,-1 -2,-1 -3,-1 0,0 -1,0 -2,1 -1,0 -2,1 -2,2 0,1 -1,2 -1,3zm25 6l-1 0 0 -7c0,-2 0,-3 -1,-4 0,0 -1,-1 -2,-1 -1,0 -1,0 -2,1 -1,0 -1,0 -2,1 0,1 -1,1 -1,2l0 8 -1 0 0 -13 1 0 0 3c0,0 1,-1 1,-1 1,-1 2,-1 2,-2 1,0 2,0 3,0 0,0 1,0 1,0 1,1 1,1 2,1 0,1 0,2 0,2 0,1 0,2 0,3l0 7zm15 0l-1 0 0 -7c0,-2 -1,-3 -1,-4 -1,0 -1,-1 -2,-1 -1,0 -2,0 -3,1 0,0 -1,0 -1,1 -1,1 -1,1 -2,2l0 8 -1 0 0 -13 1 0 0 3c1,0 1,-1 2,-1 0,-1 1,-1 2,-2 0,0 1,0 2,0 1,0 1,0 2,0 0,1 1,1 1,1 0,1 0,2 1,2 0,1 0,2 0,3l0 7zm9 0c-1,0 -2,0 -2,0 -1,0 -2,-1 -3,-2 0,0 -1,-1 -1,-2 0,-1 0,-1 0,-2 0,-2 0,-3 0,-4 1,-1 2,-1 3,-2 1,-1 2,-1 3,-1 1,0 2,0 3,1 1,1 2,1 3,2 0,1 0,2 0,4 0,0 0,0 0,0 0,0 0,0 0,0l-11 0c0,1 0,2 1,3 0,1 1,1 2,2 0,0 1,0 2,0 1,0 2,0 3,0 0,-1 1,-1 1,-2l1 0c0,1 0,1 -1,2 0,0 -1,1 -2,1 0,0 -1,0 -2,0zm-5 -7l10 0c0,-1 0,-2 -1,-2 0,-1 -1,-2 -1,-2 -1,-1 -2,-1 -3,-1 -1,0 -2,0 -2,1 -1,0 -2,1 -2,2 -1,0 -1,1 -1,2zm20 7c-1,0 -2,0 -3,0 -1,0 -1,-1 -2,-2 -1,0 -1,-1 -1,-2 -1,-1 -1,-1 -1,-2 0,-2 0,-3 1,-4 1,-1 1,-2 2,-2 1,-1 2,-1 4,-1 1,0 2,0 3,1 1,0 1,1 2,2l-1 0c-1,0 -1,-1 -2,-1 -1,-1 -2,-1 -2,-1 -1,0 -2,0 -3,1 -1,0 -1,1 -2,2 0,1 -1,2 -1,3 0,1 1,2 1,2 1,1 1,2 2,3 1,0 2,0 3,0 0,0 1,0 1,0 1,0 1,-1 2,-1 0,0 1,-1 1,-1l1 0c0,1 -1,1 -1,2 -1,0 -1,1 -2,1 -1,0 -2,0 -2,0zm14 0c-1,0 -1,0 -1,0 0,0 -1,0 -1,0 0,0 -1,0 -1,0 -1,0 -1,0 -1,0 -1,0 -1,0 -1,-1 -1,0 -1,0 -1,-1l0 -10 -2 0 0 -1 2 0 0 -4 1 0 0 4 4 0 0 1 -4 0 0 10c1,0 1,1 1,1 0,0 1,0 1,0 1,0 1,0 1,0 1,0 1,0 1,0l1 1zm2 0l0 -13 1 0 0 13 -1 0zm0 -16l0 -2 1 0 0 2 -1 0zm15 16l-1 0 0 -7c0,-2 0,-3 0,-4 -1,0 -2,-1 -3,-1 0,0 -1,0 -2,1 -1,0 -1,0 -2,1 0,1 -1,1 -1,2l0 8 -1 0 0 -13 1 0 0 3c0,0 1,-1 1,-1 1,-1 2,-1 2,-2 1,0 2,0 3,0 0,0 1,0 1,0 1,1 1,1 2,1 0,1 0,2 0,2 0,1 0,2 0,3l0 7zm10 0c-1,0 -2,0 -3,0 -1,-1 -1,-1 -2,-2 0,0 -1,-1 -1,-2 0,-1 -1,-1 -1,-2 0,-1 1,-2 1,-3 0,-1 1,-1 1,-2 1,-1 1,-1 2,-1 1,-1 2,-1 2,-1 2,0 3,0 3,1 1,0 2,1 2,2l0 -3 2 0 0 13c0,2 -1,3 -1,3 -1,1 -2,2 -2,2 -1,1 -2,1 -3,1 -2,0 -3,-1 -4,-1 -1,-1 -2,-1 -2,-2l1 -1c0,1 1,2 2,2 1,0 2,1 3,1 0,0 1,0 2,-1 1,0 1,-1 2,-1 0,-1 0,-2 0,-3l0 -2c0,0 -1,1 -2,2 -1,0 -2,0 -2,0zm0 -1c0,0 1,0 1,0 1,0 1,0 2,-1 0,0 1,0 1,-1 0,0 0,-1 0,-1l0 -4c0,-1 0,-2 -1,-2 0,-1 -1,-1 -1,-1 -1,-1 -2,-1 -2,-1 -1,0 -2,0 -2,1 -1,0 -2,0 -2,1 0,0 -1,1 -1,2 0,0 0,1 0,2 0,1 0,1 0,2 0,1 1,1 1,2 1,0 1,1 2,1 0,0 1,0 2,0zm10 3l0 -2 0 0 0 -2 1 0 0 2 0 2 -1 0zm18 -2c-1,0 -2,0 -3,0 -1,-1 -1,-2 -2,-3l0 8 -1 0 0 -18 1 0 0 3c1,-1 1,-2 2,-2 1,-1 2,-1 3,-1 1,0 2,0 2,1 1,0 2,0 2,1 1,1 1,1 2,2 0,1 0,2 0,3 0,1 0,2 -1,3 0,1 -1,2 -2,2 -1,1 -2,1 -3,1zm0 -1c1,0 1,0 2,0 1,-1 1,-1 2,-1 0,-1 0,-2 1,-2 0,-1 0,-2 0,-2 0,-1 0,-2 0,-2 -1,-1 -1,-2 -2,-2 0,-1 -1,-1 -1,-1 -1,-1 -2,-1 -2,-1 -1,0 -1,0 -2,0 0,1 -1,1 -1,1 -1,0 -1,1 -1,1 -1,1 -1,1 -1,2l0 4c0,0 1,1 1,2 1,0 1,1 2,1 1,0 1,0 2,0zm8 -3c0,0 0,-1 1,-2 0,0 1,-1 2,-1 1,0 1,0 3,0 0,0 1,0 2,0 0,0 1,0 2,0l0 -1c0,-1 -1,-2 -1,-3 -1,-1 -2,-1 -3,-1 -1,0 -2,0 -2,0 -1,1 -2,1 -3,2l0 -1c1,-1 2,-1 2,-2 1,0 2,0 3,0 1,0 3,0 3,1 1,1 2,3 2,4l0 7c0,0 0,0 0,0 0,0 0,0 0,0l0 1c0,0 0,0 0,0 0,0 0,0 0,0 -1,0 -1,0 -1,0 0,0 0,-1 0,-1l0 -1c-1,1 -2,1 -3,2 -1,0 -2,0 -3,0 0,0 -1,0 -2,0 0,0 -1,-1 -1,-2 -1,0 -1,-1 -1,-2zm9 1c0,0 0,0 0,0 1,0 1,-1 1,-1l0 -2c-1,0 -2,0 -2,0 -1,0 -2,-1 -2,-1 -2,0 -3,1 -3,1 -1,1 -2,1 -2,2 0,1 0,1 1,2 0,0 0,1 1,1 0,0 1,0 2,0 1,0 1,0 2,0 1,0 2,-1 2,-2zm12 3c-1,0 -2,0 -3,0 -1,-1 -2,-2 -2,-3l0 8 -1 0 0 -18 1 0 0 3c0,-1 1,-2 2,-2 1,-1 2,-1 3,-1 1,0 1,0 2,1 1,0 2,0 2,1 1,1 1,1 1,2 1,1 1,2 1,3 0,1 0,2 -1,3 0,1 -1,2 -2,2 -1,1 -2,1 -3,1zm0 -1c0,0 1,0 2,0 0,-1 1,-1 1,-1 1,-1 1,-2 1,-2 0,-1 1,-2 1,-2 0,-1 -1,-2 -1,-2 0,-1 0,-2 -1,-2 0,-1 -1,-1 -2,-1 0,-1 -1,-1 -2,-1 0,0 -1,0 -1,0 -1,1 -1,1 -1,1 -1,0 -1,1 -2,1 0,1 0,1 0,2l0 4c0,0 1,1 1,2 0,0 1,1 2,1 0,0 1,0 2,0z"/>
   <path class="fil18" d="M1124 690c-1,0 -1,0 -2,0 -1,0 -2,-1 -2,-2 -1,0 -1,-1 -2,-2 0,-1 0,-1 0,-2 0,-2 0,-3 1,-4 0,-1 1,-1 2,-2 1,-1 2,-1 3,-1 2,0 3,0 4,1 1,1 1,1 2,2 0,1 1,2 1,4 0,0 0,0 0,0 0,0 0,0 0,0l-12 0c0,1 1,2 1,3 1,1 1,1 2,2 1,0 2,0 2,0 1,0 2,0 3,0 1,-1 1,-1 2,-2l1 0c0,1 -1,1 -1,2 -1,0 -2,1 -2,1 -1,0 -2,0 -3,0zm-5 -7l10 0c0,-1 0,-2 0,-2 -1,-1 -1,-2 -2,-2 -1,-1 -2,-1 -3,-1 -1,0 -1,0 -2,1 -1,0 -2,1 -2,2 0,0 -1,1 -1,2zm21 -5c-2,0 -3,1 -3,1 -1,1 -2,2 -2,3l0 8 -2 0 0 -13 2 0 0 3c0,-1 1,-1 1,-2 1,0 2,-1 3,-1 0,0 0,0 0,0 0,0 0,0 1,0l0 1zm2 -6l1 0 0 16c0,0 0,1 1,1 0,0 0,0 1,0 0,0 0,0 0,0 1,0 1,0 1,0l0 1c0,0 0,0 -1,0 0,0 0,0 -1,0 0,0 -1,0 -1,0 -1,-1 -1,-1 -1,-2l0 -16zm12 18c-1,0 -2,0 -3,0 0,0 -1,-1 -2,-2 0,0 -1,-1 -1,-2 0,-1 0,-1 0,-2 0,-2 0,-3 0,-4 1,-1 2,-1 3,-2 1,-1 2,-1 3,-1 1,0 2,0 3,1 1,1 2,1 2,2 1,1 1,2 1,4 0,0 0,0 0,0 0,0 0,0 0,0l-11 0c0,1 0,2 1,3 0,1 1,1 1,2 1,0 2,0 3,0 1,0 2,0 3,0 0,-1 1,-1 1,-2l1 0c0,1 0,1 -1,2 0,0 -1,1 -2,1 -1,0 -1,0 -2,0zm-5 -7l10 0c0,-1 0,-2 -1,-2 0,-1 -1,-2 -2,-2 0,-1 -1,-1 -2,-1 -1,0 -2,0 -3,1 0,0 -1,1 -1,2 -1,0 -1,1 -1,2zm18 7c-1,0 -2,0 -3,0 -1,0 -1,-1 -2,-2l0 -1c1,1 2,2 3,2 0,0 1,0 2,0 1,0 2,0 3,0 0,-1 1,-1 1,-2 0,-1 0,-1 -1,-2 0,0 -1,0 -1,0 -1,-1 -1,-1 -2,-1 -1,0 -2,0 -3,-1 0,0 -1,0 -1,-1 0,0 0,-1 0,-1 0,-1 0,-2 0,-2 1,-1 1,-1 2,-2 1,0 2,0 2,0 1,0 2,0 3,1 1,0 1,0 2,1l-1 1c0,-1 -1,-1 -2,-2 0,0 -1,0 -2,0 0,0 -1,0 -1,0 -1,0 -1,1 -2,1 0,0 0,1 0,2 0,0 0,0 0,1 0,0 1,0 1,0 1,1 1,1 2,1 1,0 2,1 3,1 0,0 1,0 1,1 1,0 1,1 1,2 0,1 0,2 -1,2 -1,1 -2,1 -4,1zm12 0c-1,0 -2,0 -3,0 -1,0 -2,-1 -2,-2l0 -1c1,1 2,2 3,2 0,0 1,0 2,0 1,0 2,0 3,0 0,-1 1,-1 1,-2 0,-1 0,-1 -1,-2 0,0 -1,0 -1,0 -1,-1 -2,-1 -2,-1 -1,0 -2,0 -3,-1 0,0 -1,0 -1,-1 0,0 0,-1 0,-1 0,-1 0,-2 0,-2 1,-1 1,-1 2,-2 1,0 1,0 2,0 1,0 2,0 3,1 1,0 1,0 2,1l-1 1c0,-1 -1,-1 -2,-2 0,0 -1,0 -2,0 0,0 -1,0 -1,0 -1,0 -1,1 -2,1 0,0 0,1 0,2 0,0 0,0 0,1 0,0 1,0 1,0 1,1 1,1 2,1 1,0 2,1 3,1 0,0 1,0 1,1 1,0 1,1 1,2 0,1 -1,2 -1,2 -1,1 -2,1 -4,1z"/>
  </g>
 </g>
</svg>
