<?xml version="1.0" encoding="UTF-8"?>
<!DOCTYPE svg PUBLIC "-//W3C//DTD SVG 1.1//EN" "http://www.w3.org/Graphics/SVG/1.1/DTD/svg11.dtd">
<!-- Creator: CorelDRAW X7 -->
<svg xmlns="http://www.w3.org/2000/svg" xml:space="preserve" width="158.852mm" height="83mm" version="1.1" style="shape-rendering:geometricPrecision; text-rendering:geometricPrecision; image-rendering:optimizeQuality; fill-rule:evenodd; clip-rule:evenodd"
viewBox="0 0 1631 852"
 xmlns:xlink="http://www.w3.org/1999/xlink">
 <defs>
  <style type="text/css">
   <![CDATA[
    .fil0 {fill:none}
    .fil11 {fill:#FEFEFE}
    .fil7 {fill:#FBE1DB}
    .fil15 {fill:#F8CECF}
    .fil6 {fill:#F19B9A}
    .fil3 {fill:#EF8641}
    .fil14 {fill:#EE7F7D}
    .fil10 {fill:#EB6B6E}
    .fil16 {fill:#F2D996}
    .fil5 {fill:#E8958F}
    .fil1 {fill:#E9F0F9}
    .fil13 {fill:#E6C6C1}
    .fil8 {fill:#272326}
    .fil9 {fill:#292933}
    .fil4 {fill:#2C314B}
    .fil12 {fill:#2F3B60}
    .fil2 {fill:#00B6E8}
    .fil18 {fill:#332C2B;fill-rule:nonzero}
    .fil17 {fill:#00B6E8;fill-rule:nonzero}
   ]]>
  </style>
 </defs>
 <g id="Layer_x0020_1">
  <metadata id="CorelCorpID_0Corel-Layer"/>
  <rect class="fil0" transform="matrix(8.29516E-015 -0.313208 1.27081 3.36569E-014 -0.000459175 852.111)" width="2721" height="1283"/>
  <g id="_1638564076688">
   <path class="fil1" d="M852 807c0,0 115,-65 86,-189 -26,-114 -130,-61 -216,-153 -86,-92 -102,-272 -344,-185 -243,87 -327,294 -229,527l703 0z"/>
   <path class="fil1" d="M258 130c0,0 -119,59 -89,106 31,46 92,-52 140,-83 47,-31 97,-46 89,-55 -8,-9 -67,-3 -140,32z"/>
   <path class="fil2" d="M909 621c5,1 8,6 3,10 -4,4 -12,2 -11,-4 0,-6 4,-8 8,-6z"/>
   <path class="fil3" d="M664 23c4,2 7,6 3,10 -4,4 -12,2 -12,-4 0,-6 5,-7 9,-6z"/>
   <path class="fil2" d="M267 489c5,1 8,5 3,10 -4,4 -12,2 -11,-4 0,-7 4,-8 8,-6z"/>
   <path class="fil3" d="M893 254c-5,7 -13,15 -23,12 -2,0 -5,-2 -7,-1 -3,1 -4,6 -5,8 -1,5 -5,7 -9,8 -4,1 -7,0 -11,0 -5,0 -6,5 -6,10 0,4 0,8 -3,11 -4,3 -9,3 -14,3 -3,1 -3,-4 0,-5 4,0 11,1 12,-5 1,-3 -1,-8 1,-12 4,-7 10,-7 17,-7 2,0 3,0 5,-1 3,-1 4,-4 5,-7 2,-4 4,-8 9,-8 2,0 4,0 5,1 3,1 5,1 9,0 5,-1 8,-6 12,-10 2,-3 5,0 3,3z"/>
   <path class="fil3" d="M191 302c4,7 10,18 3,26 -1,2 -3,3 -3,6 -1,3 4,6 6,7 3,3 5,7 4,12 -1,3 -3,6 -4,10 -1,5 3,7 7,9 4,1 8,3 10,7 1,5 -1,9 -2,14 -1,3 -6,1 -5,-2 1,-4 5,-10 0,-13 -3,-2 -8,-2 -11,-5 -6,-6 -3,-11 -1,-18 1,-2 1,-4 1,-5 0,-4 -3,-6 -5,-8 -4,-3 -6,-6 -5,-11 1,-1 2,-3 3,-4 2,-3 3,-5 3,-8 0,-6 -3,-11 -6,-15 -1,-3 3,-5 5,-2z"/>
   <path class="fil2" d="M789 174c-6,9 -15,16 -23,22 -4,-7 -7,-10 -6,-11 6,-3 16,-12 21,-18l8 7z"/>
   <path class="fil2" d="M252 662c-15,-4 -31,-13 -43,-24 2,-4 7,-8 9,-12 13,4 24,17 38,21l-4 15z"/>
   <path class="fil3" d="M882 516c3,-19 12,-38 23,-53 6,2 11,7 16,9 -4,16 -18,31 -21,47l-18 -3z"/>
   <path class="fil2" d="M344 62c-11,-4 -26,-9 -38,-13 2,-4 4,-9 6,-14 11,2 23,9 33,14l-1 13z"/>
   <path class="fil2" d="M825 398c5,-2 12,4 8,10 -6,9 -17,-3 -11,-9 1,-1 2,-1 3,-1z"/>
   <path class="fil4" d="M474 211c35,-4 109,8 109,8l-63 67 -46 -75z"/>
   <path class="fil5" d="M477 423c-1,3 -3,5 -5,5 -3,0 -6,-2 -6,-6l0 -2c-4,0 -10,2 -14,18 0,2 -3,4 -6,3 -2,0 -3,-2 -3,-4l0 0c-2,1 -3,1 -5,1 -2,-1 -4,-2 -4,-4 0,-1 0,-1 0,-1 -1,0 -1,0 -2,0 -2,-1 -4,-2 -4,-4 0,-1 0,-2 0,-2l0 -1 0 0c-2,0 -3,-2 -4,-4 0,-1 0,-1 0,-2 1,-4 3,-8 4,-11l0 0 0 0c1,-2 2,-3 3,-5 4,-6 12,-17 22,-24l28 25 -4 18z"/>
   <polygon class="fil6" points="453,380 538,259 570,289 481,405 "/>
   <path class="fil7" d="M538 259l24 -35c8,-10 23,-13 33,-5 10,8 12,23 4,33l-29 37 -32 -30z"/>
   <path class="fil8" d="M412 772l0 29 -96 0c0,-9 6,-16 14,-18l37 -11 45 0z"/>
   <polygon class="fil4" points="316,806 412,806 412,801 316,801 "/>
   <path class="fil8" d="M527 772l0 29 96 0c0,-9 -5,-16 -14,-18l-36 -11 -46 0z"/>
   <polygon class="fil4" points="623,806 527,806 527,801 623,801 "/>
   <polygon class="fil4" points="435,350 521,775 577,772 512,363 "/>
   <polygon class="fil9" points="469,521 480,468 494,641 "/>
   <polygon class="fil4" points="407,348 358,772 418,776 500,363 "/>
   <path class="fil10" d="M477 153c0,7 5,12 11,12 7,1 12,-4 13,-11 0,-7 -5,-12 -12,-12 -6,0 -12,5 -12,11z"/>
   <path class="fil6" d="M474 172l-1 42c0,12 -8,12 -20,12 -10,0 -18,-4 -19,-14l-1 -45 41 5z"/>
   <polygon class="fil10" points="474,206 443,181 474,182 "/>
   <path class="fil6" d="M454 188l16 0c13,1 23,-9 23,-22l0 -30c0,-16 -12,-29 -28,-29 -16,-1 -32,12 -32,28l0 32c0,11 10,20 21,21z"/>
   <path class="fil8" d="M436 152c0,0 23,4 12,-22 0,0 4,-9 20,-5 15,5 30,4 33,-8 2,-13 -10,-29 -40,-19 0,0 -10,4 -18,10 -7,6 -19,6 -20,18 -2,12 4,31 13,26z"/>
   <path class="fil6" d="M418 154c0,6 5,12 11,12 7,0 12,-5 13,-12 0,-6 -5,-12 -12,-12 -6,0 -12,5 -12,12z"/>
   <path class="fil8" d="M435 158l0 0c0,-1 -1,-3 -1,-5 -1,-1 -2,-2 -3,-3 -1,0 -2,-1 -4,-1 0,0 -1,0 -1,0 -1,0 -1,1 -1,1 0,1 0,1 1,1 0,0 1,0 1,0 2,0 3,0 3,1 1,1 2,2 2,3 1,1 1,2 1,3l0 0c0,0 0,1 1,1 0,0 1,-1 1,-1z"/>
   <path class="fil8" d="M477 157l2 5 -4 0c-1,0 -1,0 -1,1 0,0 0,1 1,1l5 0c0,0 0,0 0,-1 0,0 0,0 0,0l-1 -6c0,-1 0,-1 -1,-1 0,0 -1,0 -1,1z"/>
   <path class="fil8" d="M483 152c0,1 1,3 2,3 2,0 3,-1 3,-3 0,-1 -1,-2 -3,-2 -1,0 -2,1 -2,2z"/>
   <path class="fil8" d="M463 151c0,2 1,3 2,3 2,0 3,-1 3,-2 0,-2 -1,-3 -3,-3 -1,0 -2,1 -2,2z"/>
   <path class="fil8" d="M464 137c0,0 6,-1 7,2 0,0 -1,3 -6,3 -6,1 -7,0 -8,-2 0,-2 4,-3 7,-3z"/>
   <path class="fil8" d="M487 137c0,0 -5,0 -6,3 0,0 0,2 5,2 4,1 6,0 6,-2 1,-2 -2,-3 -5,-3z"/>
   <path class="fil11" d="M481 168l-16 0c0,0 2,7 10,6 6,-1 6,-6 6,-6z"/>
   <path class="fil6" d="M244 89c-1,-3 -3,-4 -6,-4 -4,0 -7,4 -6,8l1 3c-4,1 -11,0 -20,-17 -1,-3 -5,-4 -7,-2 -3,1 -4,3 -4,5l1 1c-2,-1 -4,-1 -6,0 -2,1 -3,3 -3,5 0,1 0,1 0,1 -1,0 -2,0 -3,1 -2,1 -3,3 -3,6 0,0 1,1 1,1l0 1 0 0c-2,1 -3,4 -3,6 0,1 0,1 0,2 3,4 5,8 8,12l0 0 0 0c1,1 2,3 4,4 6,6 18,17 31,21l24 -35 -9 -19z"/>
   <polygon class="fil4" points="224,148 397,278 428,222 253,108 "/>
   <path class="fil4" d="M393 202c-4,-1 -20,13 -20,13l15 112 -4 109 142 -11 -10 -192c-1,-10 -4,-21 -14,-21 0,0 -2,0 -25,-2 -2,0 -16,8 -19,8 -2,-1 -20,-11 -23,-11 -17,-2 -24,-3 -42,-5z"/>
   <polygon class="fil11" points="426,206 470,307 480,210 474,211 458,218 438,207 "/>
   <polygon class="fil11" points="444,220 456,235 471,221 458,215 "/>
   <polygon class="fil11" points="434,204 458,215 447,234 426,206 "/>
   <polygon class="fil11" points="458,215 470,233 480,210 474,208 "/>
   <path class="fil4" d="M463 222c0,2 -2,4 -4,4 -3,0 -5,-2 -5,-4 0,-2 2,-4 4,-4 3,0 4,1 5,4z"/>
   <path class="fil4" d="M455 219l-13 -7c0,0 -4,10 0,22l15 -9 -2 -6z"/>
   <path class="fil4" d="M461 219l13 -8c0,0 4,10 1,22l-15 -8 1 -6z"/>
   <polygon class="fil12" points="423,206 411,234 430,245 420,264 469,308 482,430 484,430 472,306 424,263 434,244 414,232 425,208 "/>
   <polygon class="fil12" points="397,436 527,426 526,423 397,434 "/>
   <polygon class="fil12" points="482,212 498,229 483,240 496,257 469,306 472,308 500,257 487,241 502,229 484,210 "/>
   <path class="fil6" d="M639 620l127 -7 3 -25 -131 -7c-11,0 -19,9 -19,20l0 0c0,11 9,19 20,19z"/>
   <path class="fil8" d="M766 587l39 0 -1 17 -11 3 10 14 -3 41c0,0 -13,-2 -14,-28l-22 -20 2 -27z"/>
   <path class="fil6" d="M607 452l9 156c1,11 10,20 21,20l1 0c11,0 19,-9 20,-20l5 -155 -56 -1z"/>
   <polygon class="fil6" points="555,453 567,775 592,773 611,452 "/>
   <path class="fil8" d="M593 767l2 39 -17 0 -4 -11 -13 11 -41 0c0,0 1,-13 27,-15l19 -24 27 0z"/>
   <path class="fil7" d="M648 347c0,0 35,9 121,195 0,0 -58,158 -275,86 0,0 55,-228 87,-285l67 4z"/>
   <polygon class="fil3" points="651,350 578,350 578,342 651,342 "/>
   <path class="fil7" d="M650 342l36 -75c3,-8 0,-31 -9,-33l-89 -19c-11,-2 -20,6 -19,17l10 110 71 0z"/>
   <path class="fil13" d="M576 292l0 0c0,0 -3,-2 -6,-5 -3,-4 -5,-9 -5,-18 0,-7 2,-15 7,-27l-2 -1c-6,12 -8,21 -8,28 0,10 3,16 6,20 4,4 7,5 7,5l1 -2z"/>
   <path class="fil7" d="M702 297l-4 -42c-1,-14 -13,-23 -26,-21 -13,2 -22,14 -20,26l8 47 42 -10z"/>
   <polygon class="fil13" points="661,307 655,270 653,271 658,307 "/>
   <polygon class="fil13" points="661,307 655,270 653,271 658,307 "/>
   <path class="fil6" d="M628 428c-2,2 -3,4 -2,7 0,3 3,4 6,2l2 -1c1,3 2,9 -10,20 -2,2 -2,5 -1,7 1,1 3,2 5,1l0 0c0,1 0,3 1,4 1,2 3,2 4,1l1 0c0,1 0,1 1,2 1,1 2,2 4,1 1,0 1,0 1,-1l1 0 0 0c1,1 3,2 5,1 0,0 1,0 1,-1 3,-3 6,-6 8,-9l0 0 0 0c1,-1 2,-3 2,-4 4,-6 11,-17 12,-31l-28 -11 -13 12z"/>
   <path class="fil6" d="M707 352l-5 -55 -42 10 9 50c2,10 11,17 21,16 11,-1 18,-11 17,-21z"/>
   <path class="fil6" d="M669 427l36 -64c5,-9 1,-21 -8,-26 -10,-4 -21,0 -25,10l-31 69 28 11z"/>
   <path class="fil3" d="M626 479c0,0 8,28 22,40l8 -5c0,0 -26,-29 -27,-39l-3 4z"/>
   <path class="fil3" d="M621 475l-5 -5c-2,0 -16,48 10,76l13 -9c0,0 -25,-34 -18,-62z"/>
   <path class="fil11" d="M670 427c11,-9 -10,-11 -16,-10 3,-1 2,-9 0,-11 -4,-3 -10,0 -13,2 1,-4 2,-10 -5,-10 -6,0 -11,7 -14,12 0,-5 -1,-12 -7,-11 -6,2 -7,10 -6,15 -1,-4 -4,-10 -9,-6 -5,3 -3,11 0,16 -4,-1 -10,-5 -14,-1 -3,3 1,9 3,12 -6,4 -9,12 0,16 -3,2 -6,7 -2,10 4,4 11,2 15,1 -5,3 -8,11 0,14 5,2 12,0 15,-4 -2,4 -4,13 2,13 5,0 9,-5 12,-8 -2,4 -2,12 4,13 5,0 9,-8 10,-12 10,9 14,-3 15,-11 2,7 10,4 13,-1 4,-7 -1,-16 -5,-22 5,2 9,1 9,-4 1,-6 -3,-10 -7,-13z"/>
   <path class="fil10" d="M615 166c-1,7 -6,11 -13,10 -6,-1 -10,-7 -9,-13 1,-7 6,-11 13,-10 6,1 10,7 9,13z"/>
   <path class="fil11" d="M601 173c0,2 -2,4 -4,4 -2,0 -4,-2 -4,-4 0,-2 2,-3 4,-3 2,0 4,1 4,3z"/>
   <path class="fil8" d="M649 128c-4,12 2,26 14,30 12,4 26,-2 30,-14 5,-12 -2,-26 -14,-30 -12,-5 -26,2 -30,14z"/>
   <path class="fil14" d="M674 156c0,0 9,-27 -25,-33l25 33z"/>
   <path class="fil15" d="M664 134c0,0 17,-8 -2,-10 0,0 2,-21 -9,-3 0,0 -10,-16 -10,3l21 10z"/>
   <path class="fil8" d="M641 129c-1,-3 2,-7 2,-7 14,3 25,10 29,25 6,21 -8,48 -34,52 -25,3 4,-67 4,-67l-1 -3z"/>
   <path class="fil6" d="M612 198l-4 25c-2,8 3,14 12,15 7,1 14,-1 16,-9l5 -39 -29 8z"/>
   <path class="fil6" d="M602 218l50 11c0,0 -13,23 -42,15 -23,-5 -8,-26 -8,-26z"/>
   <polygon class="fil10" points="608,218 643,197 612,195 "/>
   <path class="fil6" d="M618 203l0 0c-14,-3 -24,-17 -21,-29l5 -28c3,-15 17,-25 32,-22 11,1 28,22 26,32l-4 23c-4,17 -20,27 -38,24z"/>
   <polygon class="fil16" points="643,122 643,122 "/>
   <path class="fil8" d="M606 137c9,-22 37,-15 37,-15l2 7c4,-4 -1,-7 -2,-7 27,10 24,23 19,31 4,3 8,6 8,6l-22 17c0,0 0,-3 1,-15 0,0 -8,-11 -7,-20 -30,2 -36,-4 -36,-4z"/>
   <path class="fil8" d="M613 170l-3 4 0 1 1 0 4 1c0,1 1,0 1,0 0,-1 0,-1 -1,-1l-3 -1 2 -3c0,-1 0,-1 0,-2 -1,0 -1,0 -1,1z"/>
   <path class="fil8" d="M634 155c0,0 -6,-1 -7,1 0,0 0,2 5,3 5,2 7,2 8,0 0,-1 -3,-3 -6,-4z"/>
   <path class="fil8" d="M609 150c0,0 5,1 5,4 0,0 0,1 -5,1 -5,-1 -6,-2 -6,-3 0,-2 3,-2 6,-2z"/>
   <path class="fil8" d="M610 164c-1,2 -2,3 -4,2 -1,0 -2,-1 -2,-3 1,-1 2,-2 3,-2 2,0 3,2 3,3z"/>
   <path class="fil8" d="M632 168c-1,2 -2,3 -3,2 -2,0 -3,-1 -3,-3 1,-1 2,-2 4,-2 1,0 2,2 2,3z"/>
   <path class="fil11" d="M608 179l16 4c0,0 -3,6 -11,3 -5,-2 -5,-7 -5,-7z"/>
   <path class="fil6" d="M670 178c-1,7 -7,11 -13,10 -7,-1 -11,-7 -10,-13 1,-6 7,-11 13,-10 6,1 11,7 10,13z"/>
   <path class="fil8" d="M655 180l0 -1c0,0 0,-2 1,-3 1,-1 2,-2 4,-2 1,0 2,0 3,1 0,0 1,-1 1,-1 0,0 0,-1 -1,-1 -1,0 -2,-1 -3,-1 -3,0 -5,2 -6,4 -1,2 -1,3 -1,3 0,1 0,1 1,1 0,0 1,0 1,0z"/>
   <path class="fil11" d="M656 187c0,2 -1,3 -3,3 -2,0 -4,-1 -4,-3 0,-2 2,-4 4,-4 2,0 3,2 3,4z"/>
   <path class="fil3" d="M66 809l1000 0c1,0 2,-1 2,-1 0,-1 -1,-2 -2,-2l-1000 0c-1,0 -2,1 -2,2 0,0 1,1 2,1z"/>
   <path class="fil3" d="M699 840l171 0c1,0 1,-1 1,-2 0,0 0,-1 -1,-1l-171 0c-1,0 -2,1 -2,1 0,1 1,2 2,2z"/>
   <path class="fil3" d="M493 840l5 0 54 0c0,0 1,-1 1,-2 0,0 -1,-1 -1,-1l-54 0 -5 0 -41 0 -12 0 -47 0c0,0 -1,1 -1,1 0,1 1,2 1,2l47 0 12 0 41 0z"/>
  </g>
  <g id="_1638564111408">
   <path class="fil3" d="M1285 229l0 0 0 1 0 58 -35 0 0 -58 0 -1 0 0c1,-7 8,-12 17,-12l0 0c10,0 17,5 18,12z"/>
   <path class="fil3" d="M1267 173c10,0 17,8 17,17 0,10 -7,17 -17,17 -9,0 -17,-7 -17,-17 0,-9 8,-17 17,-17z"/>
   <path class="fil17" d="M1141 288c-17,0 -32,-6 -44,-18 -12,-12 -18,-27 -18,-44l0 -110 24 0 0 60c11,-9 24,-13 38,-13 1,0 1,0 1,0 1,0 1,0 1,0 0,0 1,0 1,0 0,0 0,0 1,0 0,0 0,0 1,0 0,0 0,0 0,0 1,0 1,0 1,0 0,0 1,0 1,0l0 0c0,0 0,0 1,0 0,0 0,0 0,0 1,0 1,1 1,1 0,0 1,0 1,0 0,0 0,0 1,0 0,0 0,0 0,0l0 0c1,0 1,0 1,0l0 0c1,0 1,0 1,0l0 0c0,0 1,0 1,0l0 0c0,0 0,0 1,0l0 0c0,1 0,1 0,1l0 0c0,0 1,0 1,0l0 0c0,0 0,0 1,0l0 0c0,0 0,0 0,0l0 0c1,0 1,0 1,0l0 0c0,0 1,1 1,1l0 0c0,0 0,0 1,0l0 0c0,0 0,0 0,0l0 0c9,3 18,8 25,15 11,12 17,25 18,41l0 0c0,0 0,0 0,1l0 0c0,0 0,0 0,0l0 0c0,1 0,1 0,1 0,0 0,1 0,1l0 0c0,0 0,0 0,1 0,0 0,0 0,1l0 0c0,0 0,0 0,0 0,1 0,1 0,1l0 0c0,0 0,1 0,1l0 0c0,0 0,0 0,1l0 0c-1,15 -7,29 -18,40 -8,8 -16,13 -26,16l0 0c0,0 -1,0 -1,0l0 0c0,0 0,0 -1,0l0 0c0,0 0,0 0,1l0 0c-1,0 -1,0 -1,0l0 0c0,0 -1,0 -1,0l0 0c0,0 0,0 0,0l0 0c-1,0 -1,0 -1,0l0 0c0,0 -1,0 -1,0l0 0c0,0 0,0 -1,0l0 0c0,1 0,1 -1,1l0 0c0,0 0,0 0,0 -1,0 -1,0 -1,0 0,0 -1,0 -1,0 0,0 0,0 -1,0 0,0 0,0 0,0 -1,0 -1,0 -1,0l0 0c0,0 -1,0 -1,0 0,0 0,0 -1,0 0,0 0,0 0,0 -1,0 -1,0 -1,0 -1,0 -1,0 -1,0 0,0 -1,0 -1,0 0,0 0,0 -1,0 0,0 0,0 -1,0zm0 -102c-10,0 -20,4 -27,12 -8,8 -12,17 -12,28 0,11 4,20 12,27 7,8 17,12 27,12 11,0 21,-4 28,-12 8,-7 12,-16 12,-27 0,-11 -4,-20 -12,-28 -7,-8 -17,-12 -28,-12z"/>
   <path class="fil17" d="M1141 186c22,0 40,18 40,40 0,22 -18,39 -40,39 -21,0 -39,-17 -39,-39 0,-22 18,-40 39,-40zm0 0c-10,0 -20,4 -27,12 -8,8 -12,17 -12,28 0,11 4,20 12,27 7,8 17,12 27,12 11,0 21,-4 28,-12 8,-7 12,-16 12,-27 0,-11 -4,-20 -12,-28 -7,-8 -17,-12 -28,-12z"/>
   <polygon class="fil17" points="1238,116 1238,288 1216,288 1216,116 "/>
   <path class="fil3" d="M1331 229l0 0 0 1 0 58 -35 0 0 -58 0 -1 0 0c1,-7 8,-12 18,-12l0 0c9,0 16,5 17,12z"/>
   <path class="fil3" d="M1314 173c9,0 17,8 17,17 0,10 -8,17 -17,17 -10,0 -17,-7 -17,-17 0,-9 7,-17 17,-17z"/>
   <path class="fil3" d="M1297 190l33 0c0,0 1,0 1,1l0 11c0,1 -1,1 -1,1l-33 0c0,0 0,0 0,-1l0 -11c0,-1 0,-1 0,-1z"/>
   <path class="fil17" d="M1362 254c1,4 2,6 3,8 3,2 6,4 10,4 4,0 7,-2 10,-4 2,-3 4,-6 4,-10 0,-4 -2,-7 -4,-10 -2,-2 -6,-4 -12,-8 -8,-5 -14,-9 -18,-12 -6,-6 -9,-13 -9,-22 0,-8 3,-16 9,-22 6,-6 14,-9 22,-9 9,0 16,3 22,9 4,4 6,8 7,13l-22 7c0,-2 -1,-3 -1,-4 -2,-1 -4,-2 -6,-2 -2,0 -4,1 -5,3 -2,1 -3,3 -3,5 0,2 1,4 3,6 1,1 4,3 9,7 9,5 16,9 20,13 7,7 10,16 10,26 0,10 -3,19 -10,26 -7,7 -16,10 -26,10 -10,0 -19,-3 -26,-10 -5,-5 -8,-11 -9,-19l22 -5z"/>
  </g>
  <path class="fil17" d="M1141 288c-17,0 -32,-6 -44,-18 -12,-12 -18,-27 -18,-44l0 -110 24 0 0 60c11,-9 24,-13 38,-13 1,0 1,0 1,0 1,0 1,0 1,0 0,0 1,0 1,0 0,0 0,0 1,0 0,0 0,0 1,0 0,0 0,0 0,0 1,0 1,0 1,0 0,0 1,0 1,0l0 0c0,0 0,0 1,0 0,0 0,0 0,0 1,0 1,1 1,1 0,0 1,0 1,0 0,0 0,0 1,0 0,0 0,0 0,0l0 0c1,0 1,0 1,0l0 0c1,0 1,0 1,0l0 0c0,0 1,0 1,0l0 0c0,0 0,0 1,0l0 0c0,1 0,1 0,1l0 0c0,0 1,0 1,0l0 0c0,0 0,0 1,0l0 0c0,0 0,0 0,0l0 0c1,0 1,0 1,0l0 0c0,0 1,1 1,1l0 0c0,0 0,0 1,0l0 0c0,0 0,0 0,0l0 0c9,3 18,8 25,15 11,12 17,25 18,41l0 0c0,0 0,0 0,1l0 0c0,0 0,0 0,0l0 0c0,1 0,1 0,1 0,0 0,1 0,1l0 0c0,0 0,0 0,1 0,0 0,0 0,1l0 0c0,0 0,0 0,0 0,1 0,1 0,1l0 0c0,0 0,1 0,1l0 0c0,0 0,0 0,1l0 0c-1,15 -7,29 -18,40 -8,8 -16,13 -26,16l0 0c0,0 -1,0 -1,0l0 0c0,0 0,0 -1,0l0 0c0,0 0,0 0,1l0 0c-1,0 -1,0 -1,0l0 0c0,0 -1,0 -1,0l0 0c0,0 0,0 0,0l0 0c-1,0 -1,0 -1,0l0 0c0,0 -1,0 -1,0l0 0c0,0 0,0 -1,0l0 0c0,1 0,1 -1,1l0 0c0,0 0,0 0,0 -1,0 -1,0 -1,0 0,0 -1,0 -1,0 0,0 0,0 -1,0 0,0 0,0 0,0 -1,0 -1,0 -1,0l0 0c0,0 -1,0 -1,0 0,0 0,0 -1,0 0,0 0,0 0,0 -1,0 -1,0 -1,0 -1,0 -1,0 -1,0 0,0 -1,0 -1,0 0,0 0,0 -1,0 0,0 0,0 -1,0zm0 -102c-10,0 -20,4 -27,12 -8,8 -12,17 -12,28 0,11 4,20 12,27 7,8 17,12 27,12 11,0 21,-4 28,-12 8,-7 12,-16 12,-27 0,-11 -4,-20 -12,-28 -7,-8 -17,-12 -28,-12z"/>
  <path class="fil17" d="M1141 186c22,0 40,18 40,40 0,22 -18,39 -40,39 -21,0 -39,-17 -39,-39 0,-22 18,-40 39,-40zm0 0c-10,0 -20,4 -27,12 -8,8 -12,17 -12,28 0,11 4,20 12,27 7,8 17,12 27,12 11,0 21,-4 28,-12 8,-7 12,-16 12,-27 0,-11 -4,-20 -12,-28 -7,-8 -17,-12 -28,-12z"/>
  <polygon class="fil17" points="1238,116 1238,288 1216,288 1216,116 "/>
  <path class="fil17" d="M1362 254c1,4 2,6 3,8 3,2 6,4 10,4 4,0 7,-2 10,-4 2,-3 4,-6 4,-10 0,-4 -2,-7 -4,-10 -2,-2 -6,-4 -12,-8 -8,-5 -14,-9 -18,-12 -6,-6 -9,-13 -9,-22 0,-8 3,-16 9,-22 6,-6 14,-9 22,-9 9,0 16,3 22,9 4,4 6,8 7,13l-22 7c0,-2 -1,-3 -1,-4 -2,-1 -4,-2 -6,-2 -2,0 -4,1 -5,3 -2,1 -3,3 -3,5 0,2 1,4 3,6 1,1 4,3 9,7 9,5 16,9 20,13 7,7 10,16 10,26 0,10 -3,19 -10,26 -7,7 -16,10 -26,10 -10,0 -19,-3 -26,-10 -5,-5 -8,-11 -9,-19l22 -5z"/>
  <path class="fil18" d="M1099 391l0 11 -8 0 0 -11 -12 -21 8 0 8 14 9 -14 7 0 -12 21zm30 12c-4,0 -7,-1 -9,-2 -3,-2 -5,-4 -7,-6 -1,-3 -2,-6 -2,-9 0,-3 1,-6 2,-9 2,-2 4,-4 7,-5 2,-2 5,-3 9,-3 3,0 6,1 9,3 3,1 5,3 6,5 2,3 2,6 2,9 0,3 0,6 -2,9 -1,2 -3,4 -6,6 -3,1 -6,2 -9,2zm0 -7c2,0 3,0 5,-1 1,-1 3,-2 4,-4 0,-1 1,-3 1,-5 0,-2 -1,-4 -1,-5 -1,-2 -3,-3 -4,-4 -2,-1 -3,-1 -5,-1 -2,0 -4,0 -5,1 -2,1 -3,2 -4,4 -1,1 -1,3 -1,5 0,2 0,4 1,5 1,2 2,3 4,4 1,1 3,1 5,1zm37 7c-4,0 -8,-2 -10,-4 -3,-3 -4,-6 -4,-11l0 -18 7 0 0 18c0,5 3,8 7,8 3,0 5,0 6,-2 1,-1 2,-3 2,-6l0 -18 7 0 0 18c0,5 -1,8 -4,11 -2,2 -6,4 -11,4zm43 -1l-6 -9 -1 0 -6 0 0 9 -8 0 0 -32 14 0c3,0 6,0 8,1 2,1 4,3 5,4 1,2 1,4 1,7 0,2 0,4 -1,6 -1,2 -3,3 -5,4l7 10 -8 0zm0 -20c0,-2 -1,-4 -2,-5 -1,-1 -3,-1 -5,-1l-6 0 0 11 6 0c2,0 4,0 5,-1 1,-1 2,-3 2,-4zm26 -12l15 0c4,0 7,1 9,2 3,1 5,3 7,6 1,2 2,5 2,8 0,3 -1,6 -2,9 -2,2 -4,4 -7,5 -2,2 -5,2 -9,2l-15 0 0 -32zm15 26c3,0 5,-1 7,-3 2,-1 3,-4 3,-7 0,-3 -1,-5 -3,-7 -2,-2 -4,-3 -7,-3l-7 0 0 20 7 0zm23 -26l8 0 0 32 -8 0 0 -32zm37 16l7 0 0 13c-1,1 -4,2 -6,3 -2,0 -4,1 -7,1 -3,0 -6,-1 -9,-2 -3,-2 -5,-4 -6,-6 -2,-3 -2,-6 -2,-9 0,-3 0,-6 2,-9 1,-2 4,-4 6,-6 3,-1 6,-2 9,-2 3,0 6,1 8,2 2,1 4,2 6,4l-5 4c-2,-2 -5,-3 -8,-3 -2,0 -4,0 -6,1 -1,1 -3,2 -4,4 0,1 -1,3 -1,5 0,2 1,4 1,5 1,2 3,3 4,4 2,1 4,1 6,1 2,0 4,0 5,-1l0 -9zm14 -16l8 0 0 32 -8 0 0 -32zm22 6l-10 0 0 -6 28 0 0 6 -11 0 0 26 -7 0 0 -26zm41 19l-15 0 -2 7 -8 0 14 -32 8 0 14 32 -8 0 -3 -7zm-2 -5l-5 -13 -5 13 10 0zm17 -20l7 0 0 26 16 0 0 6 -23 0 0 -32zm-270 64l-10 32 -8 0 -8 -22 -7 22 -8 0 -10 -32 7 0 8 22 7 -22 7 0 7 22 8 -22 7 0zm29 26l0 6 -25 0 0 -32 25 0 0 6 -17 0 0 7 15 0 0 5 -15 0 0 8 17 0zm6 -26l15 0c3,0 7,0 9,2 3,1 5,3 6,5 2,3 3,5 3,9 0,3 -1,6 -3,8 -1,3 -3,4 -6,6 -2,1 -6,2 -9,2l-15 0 0 -32zm15 26c3,0 5,-1 7,-3 2,-2 3,-4 3,-7 0,-3 -1,-6 -3,-8 -2,-1 -4,-2 -7,-2l-7 0 0 20 7 0zm23 -26l15 0c4,0 7,0 9,2 3,1 5,3 7,5 1,3 2,5 2,9 0,3 -1,6 -2,8 -2,3 -4,4 -7,6 -2,1 -5,2 -9,2l-15 0 0 -32zm15 26c3,0 5,-1 7,-3 2,-2 3,-4 3,-7 0,-3 -1,-6 -3,-8 -2,-1 -4,-2 -7,-2l-7 0 0 20 7 0zm23 -26l8 0 0 32 -8 0 0 -32zm45 0l0 32 -6 0 -16 -20 0 20 -7 0 0 -32 6 0 16 19 0 -19 7 0zm30 15l7 0 0 13c-2,2 -4,3 -7,3 -2,1 -4,1 -7,1 -3,0 -6,0 -9,-2 -2,-1 -4,-3 -6,-6 -1,-2 -2,-5 -2,-8 0,-4 1,-6 2,-9 2,-2 4,-4 6,-6 3,-1 6,-2 10,-2 2,0 5,0 7,1 3,1 5,3 6,5l-5 4c-2,-2 -5,-4 -8,-4 -2,0 -4,1 -6,2 -1,0 -2,2 -3,3 -1,2 -2,4 -2,6 0,2 1,3 2,5 1,2 2,3 3,4 2,1 4,1 6,1 2,0 4,0 6,-1l0 -10zm26 -15l8 0 0 32 -8 0 0 -32zm45 0l0 32 -6 0 -16 -20 0 20 -7 0 0 -32 6 0 16 19 0 -19 7 0zm39 0l-14 32 -8 0 -14 -32 9 0 9 23 10 -23 8 0zm2 0l8 0 0 32 -8 0 0 -32zm22 6l-10 0 0 -6 28 0 0 6 -10 0 0 26 -8 0 0 -26zm42 19l-15 0 -3 7 -8 0 15 -32 7 0 14 32 -7 0 -3 -7zm-3 -6l-5 -12 -5 12 10 0zm22 -13l-10 0 0 -6 28 0 0 6 -11 0 0 26 -7 0 0 -26zm22 -6l7 0 0 32 -7 0 0 -32zm30 32c-3,0 -6,0 -9,-2 -2,-1 -4,-3 -6,-6 -1,-2 -2,-5 -2,-8 0,-4 1,-6 2,-9 2,-2 4,-4 6,-6 3,-1 6,-2 9,-2 4,0 7,1 9,2 3,2 5,4 7,6 1,3 2,5 2,9 0,3 -1,6 -2,8 -2,3 -4,5 -7,6 -2,2 -5,2 -9,2zm0 -6c2,0 4,0 6,-1 1,-1 2,-2 3,-4 1,-2 2,-3 2,-5 0,-2 -1,-4 -2,-6 -1,-1 -2,-2 -3,-3 -2,-1 -4,-2 -6,-2 -1,0 -3,1 -5,2 -1,1 -2,2 -3,3 -1,2 -2,4 -2,6 0,2 1,3 2,5 1,2 2,3 3,4 2,1 4,1 5,1zm53 -26l0 32 -6 0 -16 -20 0 20 -7 0 0 -32 6 0 16 19 0 -19 7 0z"/>
  <g id="_1638564115344">
   <path class="fil18" d="M1084 511c0,-1 0,-2 1,-3 0,0 1,-1 2,-1 1,-1 3,-1 4,-1 1,0 2,0 3,0 1,0 1,1 2,1l0 -2c0,-1 0,-3 -1,-3 -1,-1 -2,-2 -4,-2 -1,0 -2,0 -3,1 0,0 -1,0 -2,1l-1 -1c1,-1 2,-1 3,-2 1,0 2,0 3,0 2,0 4,0 5,1 1,2 2,3 2,5l0 9c0,0 0,0 0,0 0,1 0,1 1,1l0 1c-1,0 -1,0 -1,0 0,0 0,0 0,0 -1,0 -1,0 -1,-1 0,0 -1,0 -1,0l0 -2c0,1 -1,2 -3,2 -1,1 -2,1 -4,1 -1,0 -2,0 -2,0 -1,-1 -2,-1 -2,-2 -1,-1 -1,-2 -1,-3zm12 1c0,0 0,0 0,0 0,-1 0,-1 0,-1l0 -3c-1,0 -1,0 -2,-1 -1,0 -2,0 -3,0 -2,0 -3,1 -4,1 -1,1 -2,2 -2,3 0,1 1,1 1,2 0,1 1,1 1,1 1,1 2,1 3,1 1,0 2,0 3,-1 1,0 2,-1 3,-2zm7 4l0 -16 -2 0 0 -1 2 0 0 -1c0,-1 1,-2 1,-3 0,-1 1,-2 2,-2 0,-1 1,-1 2,-1 1,0 2,0 2,0 1,0 1,0 2,1l-1 1c0,0 -1,0 -1,-1 -1,0 -1,0 -1,0 -2,0 -2,1 -3,1 -1,1 -1,3 -1,4l0 1 5 0 0 1 -5 0 0 16 -2 0zm17 0c-2,0 -3,0 -4,0 -1,-1 -2,-1 -2,-2 -1,-1 -2,-2 -2,-3 -1,-1 -1,-2 -1,-3 0,-2 0,-3 1,-4 0,-1 1,-2 2,-3 0,-1 1,-1 2,-2 1,0 2,0 4,0 1,0 2,0 3,0 1,1 2,1 3,2 0,1 1,2 1,3 1,1 1,2 1,4 0,1 0,2 -1,3 0,1 -1,2 -1,3 -1,1 -2,1 -3,2 -1,0 -2,0 -3,0zm-7 -8c0,1 0,2 1,3 0,1 1,2 2,3 1,0 2,1 4,1 1,0 2,-1 3,-1 1,-1 2,-2 2,-3 1,-1 1,-2 1,-4 0,-1 0,-2 -1,-3 0,-1 -1,-2 -2,-3 -1,-1 -2,-1 -3,-1 -2,0 -3,0 -4,1 -1,1 -2,2 -2,3 -1,1 -1,2 -1,4zm27 -8c-2,0 -3,1 -4,2 -1,1 -2,2 -3,3l0 11 -1 0 0 -17 1 0 0 4c1,-1 2,-2 3,-3 1,-1 2,-1 3,-1 0,0 0,0 0,0 1,0 1,0 1,0l0 1zm1 8c0,-2 1,-4 1,-5 1,-1 2,-2 3,-3 1,-1 3,-1 4,-1 2,0 3,0 4,1 1,1 2,2 3,3l0 -11 1 0 0 22c0,0 0,0 1,0 0,1 0,1 0,1l0 1c0,0 -1,0 -1,0 0,0 0,0 -1,-1 0,0 0,0 0,-1l0 -1c-1,1 -2,2 -3,2 -1,1 -2,1 -4,1 -1,0 -2,0 -3,0 -1,-1 -2,-2 -2,-2 -1,-1 -2,-2 -2,-3 -1,-1 -1,-2 -1,-3zm15 2l0 -5c-1,-1 -1,-2 -2,-3 0,0 -1,-1 -2,-1 -1,-1 -2,-1 -3,-1 -1,0 -1,0 -2,1 -1,0 -2,1 -2,1 -1,1 -1,2 -2,3 0,1 0,2 0,3 0,1 0,1 0,2 1,1 1,2 2,3 1,0 1,1 2,1 1,1 2,1 3,1 0,0 1,0 2,-1 0,0 1,0 1,-1 1,0 2,0 2,-1 0,-1 1,-1 1,-2zm5 1c0,-1 0,-2 1,-3 1,0 2,-1 3,-1 1,-1 2,-1 3,-1 1,0 2,0 3,0 1,0 2,1 3,1l0 -2c0,-1 -1,-3 -2,-3 -1,-1 -2,-2 -4,-2 0,0 -1,0 -2,1 -1,0 -2,0 -3,1l-1 -1c1,-1 2,-1 3,-2 2,0 3,0 4,0 2,0 3,0 4,1 2,2 2,3 2,5l0 9c0,0 0,0 0,0 0,1 1,1 1,1l0 1c0,0 0,0 -1,0 0,0 0,0 0,0 0,0 -1,0 -1,-1 0,0 0,0 0,0l0 -2c-1,1 -2,2 -3,2 -2,1 -3,1 -4,1 -1,0 -2,0 -3,0 -1,-1 -2,-1 -2,-2 -1,-1 -1,-2 -1,-3zm12 1c0,0 0,0 0,0 0,-1 1,-1 1,-1l0 -3c-1,0 -2,0 -3,-1 -1,0 -2,0 -3,0 -1,0 -3,1 -4,1 -1,1 -1,2 -1,3 0,1 0,1 0,2 1,1 1,1 2,1 0,1 1,1 2,1 1,0 2,0 4,-1 1,0 1,-1 2,-2zm15 4c-1,0 -2,0 -4,-1 -1,0 -2,-1 -2,-2l0 3 -2 0 0 -24 2 0 0 11c1,-1 2,-2 3,-3 1,-1 2,-1 3,-1 2,0 3,0 4,0 1,1 1,2 2,2 1,1 1,2 2,3 0,1 0,2 0,4 0,1 0,2 0,3 -1,1 -1,2 -2,3 -1,0 -2,1 -3,2 -1,0 -2,0 -3,0zm0 -1c1,0 2,0 3,-1 0,0 1,-1 2,-1 0,-1 1,-2 1,-3 0,-1 1,-2 1,-2 0,-2 -1,-3 -1,-4 -1,-1 -2,-2 -3,-3 -1,0 -2,-1 -3,-1 -1,0 -2,0 -3,1 0,0 -1,1 -2,1 0,1 -1,2 -1,3l0 5c0,1 0,2 0,2 1,1 1,1 2,1 1,1 1,1 2,1 1,1 1,1 2,1zm12 -23l2 0 0 21c0,1 0,1 0,1 1,1 1,1 2,1 0,0 0,0 1,0 0,0 1,0 1,-1l0 2c0,0 -1,0 -1,0 -1,0 -1,0 -2,0 -1,0 -1,0 -2,-1 0,0 -1,-1 -1,-2l0 -21zm16 24c-1,0 -2,0 -3,0 -1,-1 -2,-2 -3,-2 -1,-1 -1,-2 -2,-3 0,-1 -1,-2 -1,-4 0,-1 1,-3 2,-4 0,-1 1,-2 3,-3 1,-1 2,-1 4,-1 1,0 3,0 4,1 1,1 2,2 3,3 1,1 1,3 1,4 0,1 0,1 0,1 0,0 0,0 0,0l-15 0c0,1 1,3 1,4 1,1 2,1 3,2 1,1 2,1 3,1 1,0 2,0 3,-1 1,-1 2,-1 3,-2l1 0c0,1 -1,2 -2,2 0,1 -1,1 -2,2 -1,0 -2,0 -3,0zm-7 -9l14 0c0,-1 -1,-3 -1,-4 -1,-1 -2,-1 -3,-2 -1,-1 -2,-1 -3,-1 -1,0 -2,0 -3,1 -1,1 -2,1 -3,2 0,1 -1,3 -1,4zm19 12l1 -3 -1 0 0 -3 2 0 0 3 -1 3 -1 0zm23 -3c-1,0 -2,0 -3,0 -1,-1 -2,-2 -3,-2 -1,-1 -1,-2 -2,-3 0,-1 0,-2 0,-4 0,-1 0,-3 1,-4 1,-1 2,-2 3,-3 1,-1 3,-1 4,-1 2,0 3,0 4,1 1,0 2,1 3,3l-2 0c0,-1 -1,-1 -2,-2 -1,-1 -2,-1 -3,-1 -1,0 -2,0 -3,1 -1,1 -2,2 -3,3 0,1 -1,2 -1,3 0,2 1,3 1,4 1,1 2,2 3,3 1,0 2,1 3,1 1,0 2,0 2,-1 1,0 2,0 2,-1 1,0 1,-1 2,-1l1 0c0,1 -1,2 -1,2 -1,1 -2,1 -3,2 -1,0 -2,0 -3,0zm18 0c-1,0 -3,0 -4,0 -1,-1 -1,-1 -2,-2 -1,-1 -1,-2 -2,-3 0,-1 -1,-2 -1,-3 0,-2 1,-3 1,-4 1,-1 1,-2 2,-3 1,-1 2,-1 3,-2 1,0 2,0 3,0 1,0 2,0 3,0 1,1 2,1 3,2 0,1 1,2 2,3 0,1 0,2 0,4 0,1 0,2 0,3 -1,1 -1,2 -2,3 -1,1 -2,1 -3,2 -1,0 -2,0 -3,0zm-7 -8c0,1 0,2 1,3 1,1 1,2 2,3 1,0 3,1 4,1 1,0 2,-1 3,-1 1,-1 2,-2 3,-3 0,-1 0,-2 0,-4 0,-1 0,-2 0,-3 -1,-1 -2,-2 -3,-3 -1,-1 -2,-1 -3,-1 -1,0 -3,0 -4,1 -1,1 -1,2 -2,3 -1,1 -1,2 -1,4zm33 8l-2 0 0 -9c0,-3 0,-4 -1,-5 0,-1 -1,-2 -3,-2 -1,0 -1,0 -2,1 -1,0 -2,1 -3,2 -1,1 -1,1 -1,2l0 11 -2 0 0 -17 2 0 0 4c0,-1 1,-2 1,-2 1,-1 2,-1 3,-2 1,0 2,0 3,0 1,0 2,0 2,0 1,1 1,1 2,2 0,0 1,1 1,2 0,1 0,2 0,3l0 10zm19 0l-2 0 0 -9c0,-3 0,-4 -1,-5 0,-1 -1,-2 -3,-2 -1,0 -2,0 -3,1 0,0 -1,1 -2,2 -1,1 -1,1 -1,2l0 11 -2 0 0 -17 1 0 0 4c1,-1 2,-2 2,-2 1,-1 2,-1 3,-2 1,0 2,0 3,0 1,0 1,0 2,0 1,1 1,1 2,2 0,0 0,1 1,2 0,1 0,2 0,3l0 10zm12 0c-1,0 -2,0 -3,0 -1,-1 -2,-2 -3,-2 -1,-1 -1,-2 -2,-3 0,-1 0,-2 0,-4 0,-1 0,-3 1,-4 0,-1 1,-2 3,-3 1,-1 2,-1 4,-1 2,0 3,0 4,1 1,1 2,2 3,3 1,1 1,3 1,4 0,1 0,1 0,1 0,0 0,0 0,0l-15 0c0,1 1,3 1,4 1,1 2,1 3,2 1,1 2,1 3,1 1,0 2,0 3,-1 1,-1 2,-1 3,-2l1 0c0,1 -1,2 -1,2 -1,1 -2,1 -3,2 -1,0 -2,0 -3,0zm-7 -9l14 0c0,-1 -1,-3 -1,-4 -1,-1 -2,-1 -3,-2 -1,-1 -2,-1 -3,-1 -1,0 -2,0 -3,1 -1,1 -2,1 -3,2 0,1 -1,3 -1,4zm26 9c-1,0 -2,0 -3,0 -1,-1 -2,-2 -3,-2 -1,-1 -1,-2 -2,-3 0,-1 0,-2 0,-4 0,-1 0,-3 1,-4 1,-1 2,-2 3,-3 1,-1 2,-1 4,-1 2,0 3,0 4,1 1,0 2,1 3,3l-2 0c0,-1 -1,-1 -2,-2 -1,-1 -2,-1 -3,-1 -1,0 -2,0 -3,1 -1,1 -2,2 -3,3 0,1 -1,2 -1,3 0,2 1,3 1,4 1,1 2,2 3,3 1,0 2,1 3,1 1,0 2,0 2,-1 1,0 2,0 2,-1 1,0 1,-1 1,-1l2 0c0,1 -1,2 -1,2 -1,1 -2,1 -3,2 -1,0 -2,0 -3,0zm18 -1c0,0 0,0 0,1 -1,0 -1,0 -2,0 0,0 -1,0 -1,0 -1,0 -1,0 -2,0 0,0 -1,-1 -1,-1 0,-1 -1,-1 -1,-2l0 -13 -2 0 0 -1 2 0 0 -6 2 0 0 6 4 0 0 1 -4 0 0 13c0,0 0,1 1,1 0,1 1,1 1,1 1,0 1,0 2,-1 0,0 1,0 1,0l0 1zm3 1l0 -17 2 0 0 17 -2 0zm0 -21l0 -3 2 0 0 3 -2 0zm21 21l-2 0 0 -9c0,-3 0,-4 -1,-5 0,-1 -1,-2 -3,-2 -1,0 -2,0 -2,1 -1,0 -2,1 -3,2 -1,1 -1,1 -1,2l0 11 -2 0 0 -17 2 0 0 4c0,-1 1,-2 1,-2 1,-1 2,-1 3,-2 1,0 2,0 3,0 1,0 2,0 2,0 1,1 1,1 2,2 0,0 0,1 1,2 0,1 0,2 0,3l0 10zm12 0c-1,0 -2,0 -3,0 -1,-1 -2,-2 -3,-2 -1,-1 -1,-2 -2,-3 0,-1 0,-2 0,-3 0,-2 0,-3 0,-4 1,-1 1,-2 2,-3 1,0 1,-1 2,-2 1,0 2,0 4,0 1,0 2,0 3,1 2,1 3,2 3,3l0 -4 2 0 0 17c0,2 -1,3 -1,4 -1,1 -2,2 -3,2 -1,1 -3,1 -4,1 -2,0 -4,0 -5,-1 -1,-1 -2,-1 -3,-3l1 0c1,1 2,2 3,2 1,1 2,1 4,1 1,0 2,0 3,-1 1,0 2,-1 2,-2 1,0 1,-1 1,-3l0 -3c-1,1 -1,2 -3,2 -1,1 -2,1 -3,1zm0 -1c1,0 2,0 2,-1 1,0 2,0 2,-1 1,0 1,-1 2,-1 0,-1 0,-1 0,-2l0 -5c0,-1 -1,-2 -1,-3 -1,0 -2,-1 -3,-1 0,-1 -1,-1 -2,-1 -1,0 -2,0 -3,1 -1,0 -1,1 -2,2 0,0 -1,1 -1,2 0,1 -1,2 -1,3 0,1 1,1 1,2 0,1 1,2 1,3 1,0 2,1 2,1 1,1 2,1 3,1zm14 4l0 -3 -1 0 0 -3 2 0 0 3 -1 3 0 0zm23 -3c-1,0 -2,0 -3,-1 -2,-1 -3,-2 -3,-3l0 11 -2 0 0 -24 2 0 0 3c0,-1 1,-2 2,-2 2,-1 3,-1 4,-1 1,0 2,0 3,0 1,1 2,2 3,2 1,1 1,2 2,3 0,1 0,2 0,4 0,1 0,3 -1,4 0,1 -1,2 -2,3 -2,1 -3,1 -5,1zm0 -1c1,0 2,0 3,-1 1,0 1,-1 2,-1 0,-1 1,-2 1,-3 0,-1 1,-2 1,-2 0,-1 -1,-2 -1,-3 0,-1 -1,-2 -1,-3 -1,0 -2,-1 -3,-1 0,-1 -1,-1 -2,-1 -1,0 -1,0 -2,1 -1,0 -1,0 -2,1 -1,0 -1,0 -2,1 0,1 0,1 0,2l0 5c0,1 1,2 1,3 1,0 2,1 2,1 1,1 2,1 3,1zm11 -4c0,-1 0,-2 1,-3 0,0 1,-1 2,-1 1,-1 3,-1 4,-1 1,0 2,0 3,0 1,0 1,1 2,1l0 -2c0,-1 0,-3 -1,-3 -1,-1 -2,-2 -4,-2 -1,0 -2,0 -3,1 -1,0 -1,0 -2,1l-1 -1c1,-1 2,-1 3,-2 1,0 2,0 3,0 2,0 4,0 5,1 1,2 2,3 2,5l0 9c0,0 0,0 0,0 0,1 0,1 1,1l0 1c-1,0 -1,0 -1,0 0,0 0,0 0,0 -1,0 -1,0 -1,-1 -1,0 -1,0 -1,0l0 -2c0,1 -1,2 -3,2 -1,1 -2,1 -4,1 -1,0 -2,0 -2,0 -1,-1 -2,-1 -2,-2 -1,-1 -1,-2 -1,-3zm11 1c1,0 1,0 1,0 0,-1 0,-1 0,-1l0 -3c-1,0 -1,0 -2,-1 -1,0 -2,0 -3,0 -2,0 -3,1 -4,1 -1,1 -2,2 -2,3 0,1 1,1 1,2 0,1 1,1 1,1 1,1 2,1 3,1 1,0 2,0 3,-1 1,0 2,-1 2,-2zm16 4c-1,0 -3,0 -4,-1 -1,-1 -2,-2 -3,-3l0 11 -1 0 0 -24 1 0 0 3c1,-1 2,-2 3,-2 1,-1 2,-1 4,-1 1,0 2,0 3,0 1,1 2,2 3,2 0,1 1,2 1,3 1,1 1,2 1,4 0,1 0,3 -1,4 -1,1 -2,2 -3,3 -1,1 -2,1 -4,1zm0 -1c1,0 2,0 2,-1 1,0 2,-1 2,-1 1,-1 1,-2 2,-3 0,-1 0,-2 0,-2 0,-1 0,-2 0,-3 -1,-1 -1,-2 -2,-3 0,0 -1,-1 -2,-1 -1,-1 -2,-1 -3,-1 0,0 -1,0 -1,1 -1,0 -2,0 -2,1 -1,0 -1,0 -2,1 0,1 -1,1 -1,2l0 5c1,1 1,2 2,3 1,0 1,1 2,1 1,1 2,1 3,1z"/>
   <path class="fil18" d="M1493 516c-1,0 -2,0 -3,0 -1,-1 -2,-2 -3,-2 -1,-1 -1,-2 -2,-3 0,-1 0,-2 0,-4 0,-1 0,-3 1,-4 0,-1 1,-2 3,-3 1,-1 2,-1 4,-1 2,0 3,0 4,1 1,1 2,2 3,3 1,1 1,3 1,4 0,1 0,1 0,1 0,0 0,0 0,0l-15 0c0,1 1,3 1,4 1,1 2,1 3,2 1,1 2,1 3,1 1,0 2,0 3,-1 2,-1 2,-1 3,-2l1 0c0,1 -1,2 -1,2 -1,1 -2,1 -3,2 -1,0 -2,0 -3,0zm-7 -9l14 0c0,-1 -1,-3 -1,-4 -1,-1 -2,-1 -3,-2 -1,-1 -2,-1 -3,-1 -1,0 -2,0 -3,1 -1,1 -2,1 -3,2 0,1 -1,3 -1,4zm27 -7c-2,0 -3,1 -4,2 -1,1 -2,2 -2,3l0 11 -2 0 0 -17 1 0 0 4c1,-1 2,-2 3,-3 1,-1 2,-1 3,-1 0,0 0,0 1,0 0,0 0,0 0,0l0 1zm3 -8l2 0 0 21c0,1 0,1 0,1 1,1 1,1 2,1 0,0 0,0 1,0 0,0 0,0 1,-1l0 2c0,0 -1,0 -1,0 -1,0 -1,0 -2,0 -1,0 -1,0 -2,-1 -1,0 -1,-1 -1,-2l0 -21zm16 24c-1,0 -3,0 -4,0 -1,-1 -1,-2 -2,-2 -1,-1 -2,-2 -2,-3 0,-1 -1,-2 -1,-4 0,-1 1,-3 1,-4 1,-1 2,-2 3,-3 2,-1 3,-1 5,-1 1,0 3,0 4,1 1,1 2,2 3,3 1,1 1,3 1,4 0,1 0,1 0,1 0,0 0,0 0,0l-15 0c0,1 1,3 1,4 1,1 2,1 3,2 1,1 2,1 3,1 1,0 2,0 3,-1 1,-1 2,-1 2,-2l2 0c0,1 -1,2 -2,2 0,1 -1,1 -2,2 -1,0 -2,0 -3,0zm-7 -9l13 0c0,-1 0,-3 -1,-4 0,-1 -1,-1 -2,-2 -1,-1 -2,-1 -3,-1 -1,0 -3,0 -4,1 -1,1 -1,1 -2,2 -1,1 -1,3 -1,4zm24 9c-1,0 -3,0 -4,0 -1,-1 -2,-2 -3,-2l1 -2c1,1 2,2 3,2 1,1 2,1 3,1 1,0 3,0 4,-1 0,-1 1,-1 1,-3 0,0 0,-1 -1,-1 0,-1 -1,-1 -2,-1 0,0 -1,-1 -2,-1 -2,0 -3,-1 -3,-1 -1,0 -2,-1 -2,-1 -1,-1 -1,-1 -1,-2 0,-1 0,-2 1,-3 1,-1 1,-1 2,-2 1,0 2,0 3,0 2,0 3,0 4,0 1,1 2,1 2,2l-1 1c0,-1 -1,-1 -2,-1 -1,-1 -2,-1 -3,-1 0,0 -1,0 -2,0 -1,1 -1,1 -2,1 0,1 0,2 0,2 0,1 0,2 0,2 1,0 1,1 2,1 0,0 1,0 2,1 1,0 3,0 3,1 1,0 2,0 3,1 0,1 0,1 0,2 0,2 0,3 -1,4 -1,1 -3,1 -5,1zm16 0c-2,0 -3,0 -4,0 -1,-1 -2,-2 -3,-2l1 -2c1,1 2,2 3,2 0,1 2,1 3,1 1,0 2,0 3,-1 1,-1 2,-1 2,-3 0,0 -1,-1 -1,-1 -1,-1 -1,-1 -2,-1 -1,0 -2,-1 -3,-1 -1,0 -2,-1 -3,-1 -1,0 -1,-1 -2,-1 0,-1 0,-1 0,-2 0,-1 0,-2 1,-3 0,-1 1,-1 2,-2 1,0 2,0 3,0 1,0 3,0 4,0 1,1 1,1 2,2l-1 1c-1,-1 -1,-1 -2,-1 -1,-1 -2,-1 -3,-1 -1,0 -2,0 -2,0 -1,1 -1,1 -2,1 0,1 -1,2 -1,2 0,1 1,2 1,2 0,0 1,1 1,1 1,0 2,0 3,1 1,0 2,0 3,1 1,0 2,0 2,1 1,1 1,1 1,2 0,2 0,3 -2,4 -1,1 -2,1 -4,1z"/>
  </g>
 </g>
</svg>
