<?xml version="1.0" encoding="UTF-8"?>
<!DOCTYPE svg PUBLIC "-//W3C//DTD SVG 1.1//EN" "http://www.w3.org/Graphics/SVG/1.1/DTD/svg11.dtd">
<!-- Creator: CorelDRAW X7 -->
<svg xmlns="http://www.w3.org/2000/svg" xml:space="preserve" width="106.144mm" height="78.3669mm" version="1.1" style="shape-rendering:geometricPrecision; text-rendering:geometricPrecision; image-rendering:optimizeQuality; fill-rule:evenodd; clip-rule:evenodd"
viewBox="0 0 841 621"
 xmlns:xlink="http://www.w3.org/1999/xlink">
 <defs>
  <style type="text/css">
   <![CDATA[
    .str0 {stroke:#E9F0F9;stroke-width:0.603601}
    .fil5 {fill:#FEFEFE}
    .fil14 {fill:#FEFEFE}
    .fil4 {fill:#FEFEFD}
    .fil6 {fill:#F8CECF}
    .fil2 {fill:#F19B9A}
    .fil17 {fill:#EF8641}
    .fil9 {fill:#EE7F7D}
    .fil3 {fill:#EB6B6E}
    .fil13 {fill:#FAE7DD}
    .fil8 {fill:#EFB9BB}
    .fil7 {fill:#EDA89E}
    .fil0 {fill:#E9F0F9}
    .fil11 {fill:#E1938C}
    .fil15 {fill:#DAE5F2}
    .fil16 {fill:#3A8AC7}
    .fil12 {fill:#282427}
    .fil1 {fill:#272326}
    .fil10 {fill:#2C314B}
   ]]>
  </style>
 </defs>
 <g id="Layer_x0020_1">
  <metadata id="CorelCorpID_0Corel-Layer"/>
  <path class="fil0" d="M395 119c0,0 293,-14 328,138 35,152 -47,324 -269,324 -236,1 -310,-129 -301,-245 11,-148 242,-217 242,-217z"/>
  <path class="fil1" d="M354 79c0,0 -41,-1 -39,89l99 10c0,0 3,-75 -22,-88l-38 -11z"/>
  <path class="fil2" d="M348 157l-3 24c0,9 4,14 13,15 7,0 14,-3 16,-10l2 -39 -28 10z"/>
  <polygon class="fil3" points="346,177 378,154 348,154 "/>
  <path class="fil2" d="M355 162l0 0c-15,-2 -25,-16 -24,-27l4 -28c2,-15 15,-26 30,-25 11,1 29,21 28,31l-3 22c-3,17 -18,28 -35,27z"/>
  <path class="fil1" d="M350 129l-2 5 2 0c1,0 1,1 1,1 0,0 0,1 -1,1l-4 -1c0,0 0,0 0,-1l0 0 3 -6c0,0 1,0 1,0 0,0 0,0 0,1z"/>
  <path class="fil1" d="M367 112c0,0 -6,-1 -6,1 0,0 -1,2 5,3 5,1 6,1 7,-1 1,-1 -3,-3 -6,-3z"/>
  <path class="fil1" d="M342 109c0,0 5,0 5,3 0,0 0,1 -4,1 -5,0 -6,-1 -6,-2 -1,-2 3,-2 5,-2z"/>
  <path class="fil1" d="M344 124c-1,1 -2,2 -3,2 -2,0 -3,-2 -3,-3 1,-1 2,-2 3,-2 2,0 3,1 3,3z"/>
  <path class="fil4" d="M353 125l1 0c0,0 0,1 0,1 0,4 3,7 8,8 1,0 1,0 2,0 5,0 8,-2 9,-6 0,0 0,-1 0,-1 0,-4 -3,-8 -8,-8 -1,-1 -1,-1 -2,-1 -5,0 -8,3 -9,7l-1 0 0 0c1,-5 5,-8 10,-8 1,0 1,0 2,0 5,1 9,5 9,10 0,0 0,1 0,1 -1,5 -5,8 -10,8 -1,0 -1,0 -2,0 -5,-1 -9,-5 -9,-10 0,0 0,-1 0,-1l0 0z"/>
  <path class="fil4" d="M329 123l1 0c0,0 0,1 0,1 0,4 3,7 7,8 0,0 1,0 1,0 4,0 8,-3 8,-6 0,-1 0,-1 0,-2 0,-4 -2,-7 -7,-8 0,0 -1,0 -1,0 -4,0 -7,3 -8,7l-1 0 0 0c1,-5 4,-8 9,-8 1,0 1,0 2,0 4,1 8,5 8,9 0,1 0,1 -1,2 0,4 -4,7 -9,7 0,0 -1,0 -1,0 -5,-1 -8,-4 -8,-9 0,0 0,-1 0,-1l0 0z"/>
  <path class="fil4" d="M354 123l0 0c-1,0 -3,-2 -5,-2 -1,0 -2,0 -2,1l-1 -1c1,-1 2,-1 3,-1 3,0 6,2 6,2l-1 1z"/>
  <polygon class="fil4" points="373,124 383,126 383,127 373,125 "/>
  <path class="fil1" d="M365 126c0,2 -1,3 -2,3 -2,-1 -3,-2 -3,-3 0,-2 2,-3 3,-3 2,1 3,2 2,3z"/>
  <path class="fil1" d="M360 141c0,0 -3,2 -6,2 -3,0 -5,-1 -8,-3 0,0 0,-1 0,-1 0,0 1,0 1,0 2,2 5,2 7,2 1,0 3,0 4,0 0,-1 0,-1 1,-1l0 0 0 0c0,0 1,0 1,0 0,0 0,1 0,1z"/>
  <path class="fil2" d="M404 134c-1,6 -6,11 -13,10 -6,0 -11,-6 -10,-12 0,-6 6,-11 12,-10 6,0 11,6 11,12z"/>
  <path class="fil1" d="M376 92c0,0 -13,17 -41,15 0,0 -3,-42 44,-23l-3 8z"/>
  <path class="fil1" d="M371 92c0,0 -1,43 34,49l-1 -22c2,-15 -6,-28 -20,-33l-5 -2 -8 8z"/>
  <path class="fil5" d="M384 144c0,2 2,4 4,4 2,0 4,-2 4,-4 0,-2 -2,-3 -4,-3 -2,0 -4,1 -4,3z"/>
  <path class="fil2" d="M302 170c-3,-1 -79,-38 -123,-76l-23 22c0,0 64,58 146,95l0 -41z"/>
  <path class="fil6" d="M287 162l39 14c13,4 19,18 15,30 -5,11 -18,17 -30,13l-12 -5 -12 -52z"/>
  <path class="fil1" d="M207 69l-3 29c0,4 -3,7 -6,8l-56 15c-3,0 -6,-2 -6,-5l4 -32c1,-2 2,-3 4,-4l57 -16c3,-1 6,2 6,5z"/>
  <path class="fil4" d="M189 96l1 0c0,1 1,2 2,2l0 0c1,0 2,-1 2,-2l0 0 0 0c0,-1 -1,-2 -2,-2l0 0c-1,0 -2,1 -2,2l0 0 0 0 -1 0 0 0 0 0c0,-1 1,-3 3,-3l0 0c1,0 3,1 3,3l-1 0 1 0 0 0c0,2 -1,3 -3,3l0 0c-2,0 -3,-1 -3,-3l0 0 0 0z"/>
  <path class="fil2" d="M183 69c0,0 -6,3 -5,17 0,3 -1,5 -4,6 -3,1 -6,-1 -7,-4 -2,-6 -3,-17 4,-22 0,0 7,-3 12,3z"/>
  <path class="fil2" d="M174 71c0,0 -6,3 -5,18 1,2 -1,4 -3,5 -3,1 -6,0 -7,-3 -2,-6 -4,-18 3,-22 0,0 8,-4 12,2z"/>
  <path class="fil2" d="M168 74c0,0 -6,3 -5,17 0,2 -1,5 -3,6 -3,1 -7,-1 -8,-4 -1,-6 -3,-17 4,-22 0,0 7,-3 12,3z"/>
  <path class="fil2" d="M161 77c0,0 -6,3 -4,17 0,2 -2,5 -4,6 -3,1 -6,-1 -7,-4 -2,-6 -3,-17 3,-22 0,0 8,-3 12,3z"/>
  <path class="fil7" d="M316 253c-1,-1 -3,0 -4,2 -1,3 -1,8 1,10l2 1c-1,4 -5,9 -16,4 -2,0 -4,1 -4,5 0,2 0,4 1,6l1 0c-2,1 -2,2 -3,4 0,2 0,5 2,6 0,0 0,1 0,1 0,0 -1,1 -1,2 0,3 1,5 2,6 0,1 0,1 1,1l0 0 0 1c0,2 0,5 2,6 0,0 0,1 1,1 3,1 6,2 8,2l0 0 0 0c2,0 3,0 4,0 5,-1 15,-3 23,-10l-7 -42 -13 -6z"/>
  <path class="fil6" d="M386 309l27 -95c3,-9 9,-23 0,-25l-89 -12c-11,-1 -19,7 -18,17l9 110 71 5z"/>
  <path class="fil6" d="M312 194c0,0 -25,46 3,62l16 -5 -19 -57z"/>
  <polygon class="fil2" points="332,178 391,186 348,204 "/>
  <path class="fil8" d="M302 216c0,-1 4,-12 13,-21l2 2c-4,4 -7,9 -9,13 -1,2 -2,3 -2,5 -1,0 -1,1 -1,1l0 0 0 0 -3 0z"/>
  <path class="fil6" d="M454 223l-31 -29c-10,-8 -25,-7 -33,3 -8,9 -7,24 3,32l19 16 42 -22z"/>
  <polygon class="fil8" points="406,241 392,230 394,227 408,239 "/>
  <path class="fil6" d="M386 309c0,0 69,42 62,277l-198 0c13,-87 39,-235 65,-282l71 5z"/>
  <polygon class="fil9" points="387,313 387,305 314,303 314,311 "/>
  <path class="fil5" d="M473 136c0,2 2,4 4,4 2,0 3,-2 3,-4 0,-2 -1,-4 -3,-4 -2,0 -4,2 -4,4z"/>
  <path class="fil10" d="M527 344l15 190 11 52 -86 0 -4 -23c-4,-13 -6,-26 -8,-40l-20 -188 92 9z"/>
  <path class="fil10" d="M355 586l-3 -49c0,-12 1,-24 5,-36l45 -162 81 -3 -45 188 2 62 -85 0z"/>
  <path class="fil1" d="M438 77c0,0 -19,4 -5,33l13 -32 -8 -1z"/>
  <path class="fil11" d="M450 120c0,7 -6,13 -13,13 -7,0 -12,-6 -12,-14 0,-7 6,-13 13,-13 7,0 12,6 12,14z"/>
  <path class="fil7" d="M455 151l-3 31c-1,11 6,18 16,19 9,0 19,-3 20,-13l1 -50 -34 13z"/>
  <path class="fil11" d="M453 172c0,0 25,4 36,-24 3,-9 -34,0 -34,0l-2 24z"/>
  <path class="fil7" d="M463 161l0 0c-17,-1 -31,-17 -31,-32l2 -32c1,-19 16,-34 34,-34 17,0 38,-3 37,35l-1 25c-1,22 -19,38 -41,38z"/>
  <path class="fil12" d="M453 116l-1 7 3 1c1,0 1,0 1,1 0,0 0,0 -1,0l-4 0c-1,0 -1,0 -1,0 0,-1 0,-1 0,-1l1 -8c0,-1 1,-1 1,-1 1,0 1,1 1,1z"/>
  <path class="fil1" d="M474 98c0,0 -8,-2 -8,1 0,0 0,3 6,3 7,1 8,1 9,-1 1,-2 -4,-3 -7,-3z"/>
  <path class="fil1" d="M442 96c0,0 6,0 6,3 0,0 1,2 -5,2 -5,0 -7,-1 -7,-2 -1,-2 3,-3 6,-3z"/>
  <path class="fil1" d="M446 111c0,2 -1,3 -3,3 -2,0 -3,-1 -3,-3 0,-2 2,-3 3,-3 2,0 3,1 3,3z"/>
  <path class="fil1" d="M473 112c0,2 -1,3 -3,3 -2,0 -3,-1 -3,-3 0,-2 2,-3 3,-3 2,0 3,2 3,3z"/>
  <path class="fil4" d="M446 130l24 3c0,0 -2,8 -15,7 -10,-1 -9,-10 -9,-10z"/>
  <path class="fil1" d="M455 43c12,-1 49,-1 52,31 0,0 29,21 3,48l-7 -8 0 0 -8 4c0,0 8,-28 -7,-35 0,0 -55,13 -62,-9 -4,-16 7,-29 29,-31z"/>
  <path class="fil7" d="M521 124c-1,7 -6,13 -13,13 -7,0 -13,-6 -13,-13 0,-8 6,-13 13,-13 7,0 13,6 13,13z"/>
  <path class="fil12" d="M503 128c0,0 0,-3 1,-5 0,-1 1,-2 2,-3 1,-1 3,-1 4,-1 1,0 2,0 2,0 1,0 1,0 1,1 0,0 0,1 -1,1 0,-1 -1,-1 -2,-1 -1,0 -2,1 -3,2 -1,0 -2,2 -2,3 0,1 -1,2 -1,2l0 0 0 1c0,0 0,1 -1,1 0,0 0,-1 0,-1z"/>
  <path class="fil13" d="M281 2c0,1 0,1 1,1 1,0 1,0 1,-1 0,-1 -1,-1 -1,-1 -1,0 -1,1 -1,1z"/>
  <path class="fil13" d="M287 12c0,0 0,0 0,0 1,0 1,0 1,0 0,-1 0,-1 -1,-1 0,0 0,1 0,1z"/>
  <path class="fil13" d="M289 1c0,0 0,0 1,0 0,0 0,0 0,0 0,-1 0,-1 0,-1 -1,0 -1,0 -1,1z"/>
  <path class="fil14" d="M506 241l73 67c11,9 28,9 39,-2 10,-11 10,-28 -1,-39l-69 -71c-10,-11 -26,-12 -39,-4l0 0c-17,11 -18,36 -3,49z"/>
  <path class="fil7" d="M540 410c-2,2 -3,5 -2,8 2,3 7,5 10,2l3 -1c2,3 4,10 -9,24 -2,3 -2,6 0,9 2,1 5,2 7,0l0 0c0,2 1,4 2,6 2,1 5,1 7,0 0,0 0,0 1,0 0,1 0,2 1,2 2,2 5,2 7,1 0,0 1,0 1,-1l1 -1 0 1c2,1 4,2 7,1 0,-1 1,-1 1,-2 4,-4 7,-7 9,-11l0 0 0 0c1,-2 2,-4 2,-5 4,-8 10,-24 10,-38l-43 -10 -15 15z"/>
  <path class="fil14" d="M576 281l-24 113 48 16 25 -113c6,-16 -4,-33 -21,-35 -13,-2 -25,6 -28,19z"/>
  <polygon class="fil15" points="604,392 555,377 556,374 604,390 "/>
  <polygon class="fil10" points="604,392 555,377 556,374 604,390 "/>
  <path class="fil14" d="M427 182l24 1 14 13 20 -11 38 2c9,0 25,13 23,21l-16 142 -130 -6 7 -144c1,-10 10,-18 20,-18z"/>
  <polygon class="fil14 str0" points="490,180 465,196 481,214 504,186 "/>
  <polygon class="fil14 str0" points="451,179 465,196 450,211 440,183 "/>
  <polygon class="fil10" points="497,349 509,186 516,186 504,349 "/>
  <polygon class="fil10" points="430,182 425,345 418,345 423,182 "/>
  <polygon class="fil10" points="467,200 459,347 456,347 464,200 "/>
  <path class="fil10" d="M460 200c0,3 2,6 5,6 3,0 6,-3 6,-6 1,-3 -2,-6 -5,-6 -3,0 -6,2 -6,6z"/>
  <path class="fil10" d="M470 197l16 -8c0,0 4,12 -1,27l-18 -13 3 -6z"/>
  <path class="fil10" d="M462 196l-16 -10c0,0 -5,12 -1,27l19 -10 -2 -7z"/>
  <polygon class="fil16" points="591,79 663,79 663,76 591,76 "/>
  <path class="fil17" d="M63 417l-11 0c-3,0 -6,-3 -6,-6l0 -10c0,-3 3,-5 6,-5l11 0c2,0 5,2 5,5l0 10c0,3 -3,6 -5,6z"/>
  <path class="fil17" d="M804 337l-10 0c-3,0 -6,-2 -6,-5l0 -10c0,-3 3,-5 6,-5l10 0c3,0 6,2 6,5l0 10c0,3 -3,5 -6,5z"/>
  <path class="fil17" d="M2 590l837 0c1,0 2,-1 2,-2 0,-1 -1,-2 -2,-2l-837 0c-1,0 -2,1 -2,2 0,1 1,2 2,2z"/>
  <path class="fil17" d="M580 621l5 0 53 0c1,0 1,-1 1,-2 0,0 0,-1 -1,-1l-53 0 -5 0 -41 0 -12 0 -45 0c-1,0 -2,1 -2,1 0,1 1,2 2,2l45 0 12 0 41 0z"/>
  <path class="fil17" d="M319 621l5 0 53 0c1,0 1,-1 1,-2 0,0 0,-1 -1,-1l-53 0 -5 0 -41 0 -12 0 -45 0c-1,0 -2,1 -2,1 0,1 1,2 2,2l45 0 12 0 41 0z"/>
  <path class="fil0" d="M173 169c0,0 37,7 13,50 -6,11 -46,46 -53,56 -7,10 -15,68 -26,64 -4,-2 -24,8 -20,-36 2,-26 29,-65 38,-80 26,-41 48,-54 48,-54z"/>
  <polygon class="fil6" points="735,541 807,541 807,538 735,538 "/>
  <path class="fil6" d="M92 158l-11 0c-3,0 -6,-2 -6,-5l0 -10c0,-3 3,-5 6,-5l11 0c2,0 5,2 5,5l0 10c0,3 -3,5 -5,5z"/>
  <path class="fil0" d="M749 420c-2,7 0,16 -3,23 -2,7 -52,64 -46,68 1,0 2,4 6,5 3,1 35,-32 44,-41 12,-11 20,-38 24,-47 10,-30 -13,-34 -25,-8z"/>
 </g>
</svg>
